<?xml version="1.0" encoding="utf-8"?>
<!-- Generator: Adobe Illustrator 18.1.0, SVG Export Plug-In . SVG Version: 6.00 Build 0)  -->
<svg version="1.1" id="Layer_1" xmlns="http://www.w3.org/2000/svg" xmlns:xlink="http://www.w3.org/1999/xlink" x="0px" y="0px"
	 viewBox="72.9 98.3 354.2 401.7" enable-background="new 72.9 98.3 354.2 401.7" xml:space="preserve">
<title>HTML5 Logo</title>
<path fill="#E44D26" d="M105.1,459.8L72.9,98.3h354.2l-32.3,361.5L249.8,500L105.1,459.8z"/>
<path fill="#F16529" d="M250,469.3l117.2-32.5l27.6-308.9H250V469.3z"/>
<path fill="#EBEBEB" d="M250,261.9h-58.7l-4.1-45.4H250v-44.3H138.8l1.1,11.9l10.9,122.2H250V261.9z M250,377.1l-0.2,0.1l-49.4-13.3
	l-3.2-35.4h-44.5l6.2,69.6l90.8,25.2l0.2-0.1V377.1z"/>
<path fill="#FFFFFF" d="M249.8,261.9v44.3h54.6l-5.1,57.5l-49.5,13.3v46.1l90.9-25.2l0.7-7.5l10.4-116.7l1.1-11.9h-12L249.8,261.9z
	 M249.8,172.2v44.3H357l0.9-10l2-22.5l1.1-11.9L249.8,172.2z"/>
</svg>
