<svg xmlns="http://www.w3.org/2000/svg" viewBox="0 0 500 500" enable-background="new 0 0 500 500"><path d="M99 433.5h302m-326-28h352m-383-39h411m-424-29h436m-447-40h460m-464-28h468m-468-40h468m-464-26h460m-449-40h436m-423-29h411m-381-39h354m-327-29h299" opacity=".8" fill="none" stroke="#FFEABB" stroke-miterlimit="10"/><g opacity=".65" fill="none" stroke="#FFEABB" stroke-miterlimit="10"><path d="M330.5 94v41m59-41v41m-39-41v41M376.5 163v40M156.5 163v40m-12-40v40"/></g><path d="M77.4 36.8c-3.3 0-4.4.1-4.6.1-.4 0-.4 0-.4-.4v-2.8c0-.4 0-.4.4-.4.2 0 1.3.1 4.6.1h9.5c0-1.7-.1-2.7-.3-4.1 1.4 0 2.7.1 4 .3.4 0 .6.2.6.4 0 .4-.1.6-.2.9-.2.4-.2 1.1-.2 2.6H101c3.3 0 4.4-.1 4.6-.1.3 0 .4 0 .4.4v2.8c0 .4 0 .4-.4.4-.2 0-1.3-.1-4.6-.1H90.8v2.4h5.8c3.7 0 5-.1 5.2-.1.4 0 .4 0 .4.5 0 .2-.1 1.3-.1 3.7v6.5c0 2.5.1 3.5.1 3.7 0 .4 0 .4-.4.4-.2 0-1.5-.1-5.2-.1h-3.1c3.6 3.3 8.5 5.6 13.7 7-.7.8-1.2 1.7-1.6 2.7-.3.8-.4 1-.7 1-.2 0-.4-.1-.9-.3-4.9-1.9-9.9-4.7-13.3-8.9 0 4.9.3 8.8.3 9.4 0 .4 0 .4-.4.4h-3.4c-.4 0-.4 0-.4-.4 0-.6.2-4.4.3-9.2-3.3 3.9-7.6 6.8-12.4 8.7-.4.2-.7.3-.9.3-.3 0-.4-.2-.7-.9-.4-1.1-1-1.8-1.6-2.5 5.1-1.6 9.4-3.9 12.8-7.4h-2.4c-3.7 0-5 .1-5.2.1-.4 0-.4 0-.4-.4 0-.3.1-1.3.1-3.7v-6.5c0-2.5-.1-3.5-.1-3.7 0-.4 0-.5.4-.5.2 0 1.5.1 5.2.1H87v-2.4h-9.6zm9.5 8.3v-2.8h-6.8v2.8h6.8zm0 5.8v-2.8h-6.8v2.8h6.8zm3.9-8.6v2.8h7.6v-2.8h-7.6zm7.6 5.8h-7.6v2.8h7.6v-2.8zm20.3 6.6c.4-.6.9-1.5 1.1-2.2 1 .5 2.3 1.1 3.2 1.7.3.2.4.4.4.7 0 .3-.2.5-.4.7-.3.2-.6.4-1 1.1-1.5 2.1-3.4 4.2-6.1 6.2-.4.3-.7.5-.9.5-.3 0-.4-.2-.8-.8-.5-.9-1.3-1.7-1.9-2.1 2.8-1.8 4.8-3.7 6.4-5.8zm-.5-17.4h-4.7c-.4 0-.4 0-.4-.4v-3.1c0-.4 0-.4.4-.4.2 0 1.3.1 4.7.1h8.9v-.7c0-1.7 0-2.7-.3-3.6 1.4 0 2.7.1 4 .2.3 0 .6.2.6.4 0 .3-.2.6-.3.8-.1.4-.1.8-.1 2.3v.6h9.4c3.4 0 4.5-.1 4.7-.1.4 0 .4 0 .4.4v3.1c0 .4 0 .4-.4.4h-26.9zm16.9 2.8c3.6 0 4.9-.1 5.2-.1.4 0 .4 0 .4.4 0 .2-.1 1.1-.1 3.2v4.3c0 2.1.1 3 .1 3.2 0 .4 0 .4-.4.4-.3 0-1.5-.1-5.2-.1h-3.8v4c0 1.8.1 3.5.1 5 0 1.8-.3 2.7-1.2 3.5-.8.7-1.9.9-5.4.9-1.1 0-1.2.1-1.5-1.2-.2-1.1-.6-2.1-1.2-2.9 1.4.2 2.3.2 3.4.2 1.3 0 1.7-.4 1.7-1.4v-8.2H123c-3.6 0-4.9.1-5.1.1-.4 0-.4 0-.4-.4 0-.3.1-1.1.1-3.2v-4.3c0-2.1-.1-2.9-.1-3.2 0-.4 0-.4.4-.4.2 0 1.5.1 5.1.1h12.1zm1.6 3.6h-15.2V48h15.2v-4.3zm.9 9.1c.4-.3.5-.2.7.1 2 2.9 4.7 5.2 8.1 7-.8.7-1.3 1.4-1.9 2.5-.4.6-.5.9-.8.9-.2 0-.4-.2-.9-.5-3.1-2.2-5.7-4.9-7.7-8-.2-.4-.1-.4.3-.7l2.2-1.3zm25.9-4.9c0 10.1.1 12.1.1 12.3 0 .4 0 .4-.4.4h-2.5c-.4 0-.4 0-.4-.4v-1.6H157v3.1c0 .4 0 .4-.4.4H154c-.4 0-.4 0-.4-.4 0-.3.1-2.4.1-13.1v-7.4c0-7.4-.1-9.6-.1-9.9 0-.4 0-.4.4-.4.3 0 .9.1 3.1.1h3c2.2 0 2.9-.1 3.1-.1.4 0 .4 0 .4.4 0 .2-.1 2.3-.1 8.4v8.2zm-6.6-13.3v8.2h3.3v-8.2h-3.3zm3.4 20.4v-8.7H157V55h3.3zm16.4-14.5v1.9h4.5c3.6 0 4.7-.1 5-.1.4 0 .4 0 .4.5V45c0 .4 0 .4-.4.4-.2 0-1.4-.1-5-.1H170c-3.6 0-4.8.1-5 .1-.4 0-.4 0-.4-.4v-2.3c0-.4 0-.5.4-.5.2 0 1.5.1 5 .1h3.2v-1.9h-1.9c-3.2 0-4.3.1-4.5.1-.4 0-.4 0-.4-.4V38c0-.4 0-.4.4-.4.2 0 1.3.1 4.5.1h1.9v-1.8h-2.5c-3.4 0-4.5.1-4.7.1-.4 0-.4 0-.4-.4v-2.3c0-.4 0-.4.4-.4.2 0 1.4.1 4.7.1h2.5c0-1.4-.1-2.6-.3-3.9 1.4 0 2.4.1 3.6.3.4 0 .6.3.6.4 0 .4-.1.6-.2 1s-.2 1-.2 2.2h3.4c3.4 0 4.5-.1 4.7-.1.4 0 .4 0 .4.4v2.3c0 .4 0 .4-.4.4-.2 0-1.4-.1-4.7-.1h-3.4v1.8h2.4c3.2 0 4.2-.1 4.5-.1.4 0 .4 0 .4.4v2.1c0 .4 0 .4-.4.4-.2 0-1.2-.1-4.4-.1h-2.5zm6.5 14.9V61c0 1.5-.2 2.6-.9 3.2-.7.6-1.5.9-4.2.9-1.2 0-1.2.1-1.5-1.2-.2-.8-.4-1.5-1-2.4.8.1 2 .1 2.7.1 1.2 0 1.4-.4 1.4-1.2v-1.3H170v1.2c0 3.2.1 4.5.1 4.7 0 .4 0 .4-.4.4H167c-.4 0-.4 0-.4-.4 0-.2.1-1.4.1-4.6v-8.7c0-2.8-.1-4-.1-4.3 0-.4 0-.4.4-.4.3 0 1.3.1 4.5.1h7c3.1 0 4.2-.1 4.5-.1.4 0 .4 0 .4.4 0 .2-.1 1.8-.1 4.7v3.3zM170.1 50v2h9.7v-2h-9.7zm9.7 6.5v-2h-9.7v2h9.7zm18.2 7.1c-3.4 0-4.5.1-4.7.1-.4 0-.4 0-.4-.4v-3c0-.4 0-.4.4-.4.2 0 1.4.1 4.7.1h9v-6h-4.7c-3.6 0-4.9.1-5.1.1-.4 0-.4 0-.4-.4v-2.9c0-.4 0-.4.4-.4.2 0 1.5.1 5.1.1h13.9c3.6 0 4.9-.1 5.1-.1.4 0 .4 0 .4.4v2.9c0 .4 0 .4-.4.4-.2 0-1.5-.1-5.1-.1H211v5.9h9.4c3.4 0 4.5-.1 4.7-.1.4 0 .4 0 .4.4v3c0 .4 0 .4-.4.4-.2 0-1.4-.1-4.7-.1H198zm21.6-30.4c3.4 0 4.7-.1 4.9-.1.4 0 .4 0 .4.5 0 .2-.1.9-.1 1.8v1.4c0 3.2.1 3.7.1 3.9 0 .4 0 .5-.4.5h-3.1c-.4 0-.4 0-.4-.5v-4h-23.7v4.7c0 .4 0 .5-.4.5h-3.1c-.4 0-.4 0-.4-.5 0-.2.1-.8.1-4.2v-1.3c0-1.3-.1-2-.1-2.3 0-.4 0-.5.4-.5.3 0 1.5.1 4.9.1h8.1V32c0-.9 0-2-.3-2.8 1.4 0 2.7.1 4 .2.4 0 .6.2.6.4 0 .3-.1.5-.2.8-.2.3-.2.8-.2 1.5v1.2h8.9zm-12.7 5.7c.3.2.6.4.6.7 0 .3-.1.5-.4.8-.2.2-.4.6-.7 1.7-1.4 3.7-4.1 6.2-9 7.6-1 .3-1 .3-1.6-.7-.6-1.1-1.2-1.9-1.9-2.4 5.4-.9 8-2.8 9.1-6.1.3-.9.6-1.8.6-2.7 1.1.2 2.1.6 3.3 1.1zM214 43c0 .8 0 1.2.4 1.4.4.3 1.4.4 2.4.4 1.2 0 2-.2 2.4-.5.4-.4.6-1.3.6-3 .7.5 1.7.9 2.5 1.1 1 .2 1 .3.9 1.3-.2 2.1-.7 3-1.7 3.6-1 .6-2.8.9-5.2.9-2.5 0-4.3-.3-5.2-.9-.7-.5-.9-1.2-.9-2.7v-3c0-1.7 0-2.7-.2-3.8 1.3.1 2.7.2 3.7.4.4.1.6.2.6.5s-.1.5-.2.8c-.1.3-.2.7-.2 1.8V43zm25.8 10.6c1.1-.4 2.3-1 3.4-1.5-.1.7-.1 1.5-.1 2.5 0 1.3 0 1.3-1.1 1.8-2.1 1-4.6 1.9-7 2.8-.6.2-.9.4-1.1.5-.2.2-.4.3-.6.3-.2 0-.3-.2-.4-.5-.3-1.1-.6-2.2-.8-3.6 1.2-.2 2.1-.4 3.3-.7l.9-.3V43.2h-.3c-2.4 0-3.1.1-3.3.1-.4 0-.4 0-.4-.4v-3c0-.4 0-.4.4-.4.2 0 .9.1 3.3.1h.1V36c0-2.8 0-4-.3-6 1.4 0 2.6.1 3.9.3.3 0 .6.2.6.4 0 .3-.1.5-.2.8-.2.5-.3 1.5-.3 4.4v3.8c1.9 0 2.6-.1 2.8-.1.4 0 .4 0 .4.4v3c0 .4 0 .4-.4.4-.2 0-.9 0-2.8-.1v10.3zm12.4-3.2c-2.4 0-3.1.1-3.3.1-.4 0-.4 0-.4-.4v-2.5c-1.4 1-2.8 2-4.4 2.8-.4.2-.7.4-.9.4-.3 0-.4-.3-.8-1.1-.4-.9-.9-1.7-1.4-2.2 3.8-1.5 7.7-4.3 9.5-6.6.6-.8 1.1-1.7 1.3-2.5 1.4.1 2.7.3 3.7.5.3.1.5.3.5.5 0 .3-.2.5-.6.6 2.7 2.9 6.7 5.2 11.4 6.9-.5.8-.9 1.7-1.3 2.6-.3.8-.4 1-.7 1-.2 0-.4-.1-.9-.3-1.6-.8-3.2-1.7-4.7-2.7V50c0 .4 0 .4-.4.4-.2 0-.9-.1-3.3-.1h-3.3zm-4.9-17.3c0-1.5 0-2.7-.2-3.8 1.4 0 2.5.1 3.6.2.3 0 .5.2.5.4s0 .4-.1.6c-.2.3-.2 1-.2 2.3v.3h5.8c0-1.6 0-2.7-.2-3.8 1.4 0 2.4.1 3.6.2.3 0 .5.2.5.4s0 .4-.2.6c-.1.3-.2 1-.2 2.3v.3h.3c3.7 0 4.9-.1 5.2-.1.4 0 .4 0 .4.4V36c0 .4 0 .5-.4.5-.2 0-1.5-.1-5.2-.1h-.3c0 1.9.1 2.8.1 3 0 .4 0 .4-.4.4h-2.8c-.4 0-.4 0-.4-.4 0-.2 0-1.1.1-3H251c0 1.9.1 2.7.1 2.9 0 .4 0 .5-.4.5h-2.8c-.4 0-.4 0-.4-.5 0-.2 0-1.1.1-2.9-3.3 0-4.5.1-4.7.1-.4 0-.4 0-.4-.5v-2.6c0-.4 0-.4.4-.4-.1.1 1.1.1 4.4.1zm-1.8 32.4c-.4 0-.4 0-.4-.4 0-.2.1-1.1.1-5.9v-2.5c0-2.5-.1-3.4-.1-3.7 0-.4 0-.4.4-.4.3 0 1.4.1 4.7.1h7.6c3.3 0 4.4-.1 4.6-.1.4 0 .4 0 .4.4 0 .2-.1 1.2-.1 3.2V59c0 4.8.1 5.7.1 5.9 0 .4 0 .4-.4.4h-3c-.4 0-.4 0-.4-.4v-1.4h-10.3V65c0 .4 0 .4-.4.4h-2.8zm3.3-5.4h10.3v-4h-10.3v4zm6.9-13c1.9 0 2.7 0 3.1-.1-1.9-1.4-3.7-3-5-4.6-1.2 1.6-2.8 3.2-4.6 4.6.3 0 1.1.1 3.1.1h3.4zM303 29.7l3.4 2.6c-.3.6-.7.8-1.8.8h-11.5c-.6 1.7-1.5 3.8-2.2 5.3h8.4l1.2-1.6 3.3 2.5c-.3.3-.9.7-1.6.8v11.4c0 .1-.7.9-2.4.9V51h-6.5v11c0 2-.6 3.4-4.1 3.7 0-2-1.2-2.3-4.5-2.6v-.5h5.3c.6 0 .9-.2.9-.6V51h-6.5v.8s-.3.9-2.4.9V37.1l2.6 1.3h4.7c.3-1.6.6-3.8.7-5.3h-12V42c0 7.1-.3 16.8-5.8 23.6l-.6-.4c3.6-6.9 4-15.4 4-23.1V30.8l2.8 1.3h22.8l1.8-2.4zm-26.6 33.9c3.3-2.5 6.4-6.5 7.8-9.7l3.4 1.7c-.2.3-.4.5-.8.5-.2 0-.3 0-.6-.1-1.9 2.8-5.5 6.2-9.5 8.1l-.3-.5zm23.3-24.2h-15.3v4.7h15.3v-4.7zm0 10.6v-5h-15.3v5h15.3zm-2.9 4.5c6.7 2.3 8.8 5.7 8.8 7.7 0 .9-.5 1.6-1.2 1.6-.3 0-.6-.1-1-.4-1-2.8-4.3-6.5-6.9-8.5l.3-.4zm49.6-17c-.3.6-.7.8-1.8.8h-4.7c-1.9 6.6-4.7 12.3-9.1 16.8 4.3 3.7 9.6 6.3 15.7 7.9l-.1.4c-1.3.1-2.3.8-2.8 2.1-5.8-1.9-10.7-4.8-14.5-8.8-4.3 3.9-9.9 6.8-17 8.8l-.2-.7c6.6-2.2 11.9-5.4 15.9-9.5-3.8-4.4-6.5-10-7.9-17h-7.6l-.2-1H328v-8.5l4.2.4c0 .7-.4.9-1.8 1.1v7H341l1.9-2.6 3.5 2.8zm-25.8.9c1.6 6.3 4.6 11.4 8.6 15.3 3.6-4.3 6.1-9.4 7.6-15.3h-16.2zm65.9-8.1h-9v19.6h-1.6V28.6h10.6v1.7zm33.9 22.2H413c3.5 4.4 9.9 8 15.6 9.5v.4c-1 .2-1.9 1-2.2 2.2-5.7-2.3-11.2-6.6-14.3-12.1h-.1v12.1c0 .2-.3 1-2.5 1V53.8c-3.8 4.7-9.4 8.5-15.9 11l-.4-.7c5.6-2.8 10.7-7.1 13.9-11.6h-5.9v1.4s-.3.9-2.5.9V38.6l2.7 1.3h8v-4.4h-15.7l-.3-.9h16V29l4.1.4c-.1.6-.4.8-1.6.9v4.2h10.5l1.9-2.7 3.7 2.7c-.3.6-.7.9-1.8.9h-14.3v4.4h8.2l1.2-1.6 3.3 2.5c-.3.3-.9.6-1.6.8v12.2c0 .1-.7 1-2.5 1v-2.2zm-11-11.7h-8.3v4.9h8.3v-4.9zm-8.3 10.8h8.3v-5h-8.3v5zm19.3-10.8h-8.5v4.9h8.5v-4.9zm-8.5 10.8h8.5v-5h-8.5v5zM71.7 131.3c3.6-2.5 7.4-6.4 9.3-9.4l3.2 1.9c-.2.3-.4.4-.7.4-.2 0-.4 0-.7-.1-2.3 2.6-6.5 5.9-10.7 7.8l-.4-.6zm31.2-31.5l3.7 2.7c-.3.6-.7.8-1.8.8H72.2l-.3-1h15.9v-6l4.2.4c-.1.6-.5.9-1.8 1.1v4.5H101l1.9-2.5zm-5.2 18.9h-7.4v10.9c0 2.1-.6 3.4-4.3 3.7 0-2.2-1.7-2.3-4.7-2.6v-.6H87c.7 0 .9-.1.9-.6v-10.9h-7.1v1.2c0 .1-.4 1-2.4 1V107l2.7 1.3h16.3l1.2-1.7 3.3 2.6c-.3.3-.9.6-1.6.8v9.9c0 .1-.7.9-2.5.9v-2.1zm-16.9-.9h17v-8.6h-17v8.6zm14 4.3c8 2.8 10.4 6.5 10.4 8.4 0 .8-.4 1.3-1.1 1.3-.3 0-.6-.1-.9-.3-1.5-2.9-5.6-6.8-8.7-9l.3-.4zm17.3 7.4c9-5.6 18.2-17.1 21.1-25.7 0-.2.1-.2.1-.3 0-.2-.1-.2-.4-.2-.5 0-7.4.8-10.7 1.5-.9.2-1.3.4-1.6.6-.3.2-.5.5-1.1.5-1.3 0-3.4-2.1-3.4-3.6 0-1.1.8-1.5.9-1.5.2 2.1 2.3 2.1 3.8 2.1 1.1 0 9-.6 11.7-.9.6-.1.8-.3 1.1-.6.3-.3.7-.7 1-.7.7 0 3.2 2 3.2 2.7 0 .6-.5.8-1 .9-.5.2-.9.7-1 1.1-1.2 2.5-4.1 7.6-6.4 10.6 3.5 2 7.8 5 9.9 7.2 1.6 1.7 3.1 3.7 3.1 4.9 0 1-.6 2-1.5 2s-1.6-1.3-2.9-3.5c-1.6-2.6-6.1-7.4-9.5-9.6-3.4 4.4-9.3 10.1-15.9 13.4l-.5-.9zm48.2-29.9c.3-.7 1.2-1.1 2.3-1.1 1.5 0 4 1.3 4 2.3 0 .4-.2.7-.5 1.1-.2.2-.4.6-.5 1.4-.3 1.5-.7 3.7-1 5.1 3-.2 6.4-.5 8.4-.8.6-.1.8-.3 1.1-.6.3-.3.7-.8 1.1-.8.6 0 3 2 3 2.6 0 .5-.5.6-1 1-.3.2-.4.6-.5 1.7-.3 6.7-1.5 14.4-3.6 17.4-.8 1.2-1.8 2-3 2-.5 0-.9-.5-1.1-1-.6-1.4-.6-1.5-6.4-4.9l.4-.8c1.8.9 4.6 2.1 5.9 2.5.5.2.9.3 1.3.3 2.5 0 4.1-10.6 4.1-17.2 0-.8 0-1-.4-1s-4.5.3-9.6.9c-1.9 7.8-5.6 15.6-14.1 21l-.6-.8c7.7-6.4 11.1-14.2 12.3-20-2.3.3-5.8.7-6.9 1.5-.4.2-.6.4-.9.4-1 0-3-1.7-3-3.4 0-.7.3-1.4.9-1.5.3 1.8 1.4 2.1 3.1 2.1 1 0 1.6 0 7-.5.4-1.9.9-5.7.9-6.7 0-1.7-.8-2.1-2.7-2.1v-.1zm24.7 20.9c14-7.6 25.3-17.8 25.3-20 0-.8-1-1.5-2.1-1.5 0-.4.8-1 1.8-1 1.9 0 4.7 1.8 4.7 3.5 0 .4-.4.5-1 .7-.5.2-.8.5-1.2.9-2.5 2.5-6.7 6-9.2 7.8.7.4 1.4 1.3 1.4 1.9 0 .5-.2.8-.3 1.3-.1 1.1-.1 3.6-.1 5.1v6.4c0 1.4.1 2.5.1 3.4 0 1.8-.6 2.6-1.5 2.6s-1.6-1.9-1.9-4.1c.5-.9.6-1.7.7-3 .1-1.5.2-4.9.2-7.4 0-1.7 0-4.2-.6-4.9-3.4 2.5-9.1 6.1-16.2 9.1l-.1-.8zm39-16.7c3.3 1.7 6.1 5.3 6.1 8.1 0 1-.4 1.9-1.4 1.9-.6 0-1.3-.6-1.4-1.7-.1-2-1.7-5.7-3.7-7.8l.4-.5zm22.1-.7c.3-.6.9-1.1 1.6-1.1 1.6 0 4.5 2 4.5 3.2 0 .5-.4.8-.8 1.1-.2.2-.3.4-.5.8-3.1 9.9-9 18.9-21.1 23.7l-.5-.8c16.8-8.5 19.1-24.3 19.1-25-.1-1.6-2-1.9-2.3-1.9zm-11.7-1.7c3.6 2.8 5 6.1 5 8.2 0 1.7-.5 2.5-1.6 2.5-.7 0-1.3-.8-1.3-2.1-.1-2.4-.9-5.6-2.8-8.2l.7-.4zm26.8.7c.2-.6 1-1.1 1.9-1.1 1.2 0 3.9 1.1 3.9 2.6 0 .3-.2.9-.4 1.4-.2.7-.3 1.6-.3 3.3 0 1.3.1 7.4.1 8.9 0 1.6-.3 3-1.3 3-1.2 0-1.7-1.8-1.7-3.7 0-.5.4-.8.5-3.6V108c0-4.2-.1-5.8-2.7-5.9zm14.5-2.4c.1-.6 1.1-1.3 1.9-1.3 1.5 0 4.4 1.1 4.4 2.3 0 .4-.4.6-.5.9-.1.2-.2.6-.2 1v10c0 10-4.4 16.1-14.8 19.3l-.5-.9c8.7-3.5 12.7-9.2 12.7-18.6v-5.8c0-4.7 0-7-3-6.9zm39.7 13.6c2.5 0 3.9-.3 4.5-.3 1.8 0 4.1.7 4.1 1.7 0 .7-.7 1-2.1 1h-2.2c-1.6-.1-4.5-.1-6.8-.1-4.4 0-14.4 0-16.2.7-.5.2-1 .6-1.6.6-1.3 0-3.9-2.5-3.9-4 0-1 .2-1.5.7-2h.3c.4 2.1 1.9 2.5 5.7 2.5h17.5zm15.9 18.6h9v-19.6h1.6v21.3h-10.6v-1.7zm21.4 1.8c2-1.2 2.9-2.4 2.9-3.8 0-.5-.2-.7-.7-.8-1.6-.4-2.2-1.1-2.2-2.4 0-1.5 1-2.6 2.5-2.6 1.8 0 2.9 1.4 2.9 3.6 0 1.6-.6 3.3-1.6 4.6-.7 1-1.6 1.7-3 2.3l-.8-.9zm75.7-13.7c-.3.6-.7.8-1.8.8h-14c2.7 5.5 8.4 8.5 15.6 9.7v.4c-1.1.2-1.8 1-2.2 2.3-7.1-2.1-11.9-5.7-14.3-12.5h-1.3c-1.9 5.4-6.4 9.9-16.7 12.5l-.3-.8c8.7-2.8 12.8-6.8 14.5-11.7h-14.6l-.2-.9h5.9v-11.5l2.8 1.3h7.3v-5.9l4 .4c-.1.6-.4.8-1.6 1v4.6h7.7l1.3-1.8 3.3 2.5c-.3.4-.7.6-1.7.8v8.8h1.1l1.7-2.5 3.5 2.5zm-25.3-18h-9.4l-.2-1h9.6v-4.5l3.9.3c0 .6-.3.8-1.5.9v3.3h10.4v-4.5l3.9.3c0 .6-.3.8-1.5.9v3.3h4.8l1.7-2.4 3.4 2.6c-.3.6-.7.8-1.8.8h-8.1v3.2c0 .1-.3.9-2.4.9V102h-10.4v3.4c0 .1-.4.8-2.4.8V102zm-1.6 17.8h6.8c.7-2.4.9-5 .9-7.7v-1.6h-7.8v9.3zm10.2-9.3v1.6c0 2.7-.3 5.3-1 7.7h9.2v-9.3h-8.2zM83 169.9l3 2.3c-.3.6-.7.8-1.7.8H71.9l-.2-.9h9.8l1.5-2.2zm1.3-2.8c-.3.6-.7.8-1.7.8h-9.1l-.3-1h6.6l1.5-2.1 3 2.3zm-11.1 10H80l1.4-1.9 2.8 2.1c-.3.6-.7.8-1.7.8h-9l-.3-1zm11 5.2c-.3.6-.7.8-1.7.8h-9l-.3-.9H80l1.4-1.9 2.8 2zm-3.5 5l1.1-1.5 3.1 2.3c-.3.3-.9.6-1.6.8v9.5c0 .1-.7.9-2.3.9V197h-5.4v3c0 .1-.3.9-2.3.9v-14.7l2.5 1.2h4.9zm-5 8.8H81v-7.8h-5.4v7.8zm27.8-15.1l3 2.3c-.3.6-.7.8-1.8.8h-4.4l2.5.8c-.2.4-.6.6-1.4.5-.7 1.1-1.8 2.5-2.9 3.6h3.1l1.5-2.1 3 2.2c-.3.6-.7.8-1.7.8h-7.9v3.9h4.3l1.5-2.1 3.1 2.2c-.3.6-.7.8-1.8.8h-7.1v5.3c0 .2-.8.8-2 .8h-.4v-6.1h-7.7l-.2-1h8V190h-7.9l-.3-1h5c-.2-.1-.3-.3-.5-.5 0-1.3-.4-3.2-1-4.5h-4.4l-.2-.9h9.3v-3.7h-7.6l-.2-.9h7.8v-3.8l4.1.4c0 .6-.4.9-1.7 1.1v2.4h4.4l1.5-2.1 3 2.2c-.3.6-.7.9-1.7.9h-7.1v3.7h5.3l1.5-2.3zm-14.9-7v.8s-.4.8-2.2.8v-10.4l2.4 1.2h13.3l1.1-1.5 3.1 2.3c-.2.3-.9.6-1.6.8v6.4c0 .1-.7.8-2.3.8V174H88.6zm3.1-6.7h-3.1v5.7h3.1v-5.7zm-1.3 16.8c1.9 1.2 2.5 2.5 2.5 3.5 0 .7-.3 1.2-.7 1.5h5.3c.6-1.5 1.2-3.4 1.6-4.9h-8.7zm6.7-16.8h-3.3v5.7h3.3v-5.7zm5.4 0h-3.4v5.7h3.4v-5.7zm6.5 17.2c3.2-4.6 6.5-12.5 8.5-20.3l3.9 1.3c-.1.4-.4.7-1.4.7-1 2.9-2.2 5.8-3.5 8.4l1.3.5c-.1.4-.5.6-1.1.7V200c0 .2-1 .9-2 .9h-.4v-22.2c-1.5 2.5-3.1 4.6-4.7 6.3l-.6-.5zm35.2-12.9c-.3.6-.8.8-1.8.8h-10.5v7.4h5.8l1.6-2.3 3.2 2.4c-.3.6-.8.8-1.8.8h-8.9v7.7h6.1l1.8-2.4 3.3 2.5c-.3.6-.8.8-1.8.8h-9.4V200c0 .2-.8.8-2.1.8h-.4v-28.4h-3.2c-1.9 3.8-4.1 7-6.5 9.4l-.6-.4c2.7-3.8 5.5-10.6 7.3-17.2l4 1.4c-.2.5-.5.7-1.4.6-.7 1.8-1.4 3.6-2.2 5.3h12.4l1.8-2.4 3.3 2.5zm24.3 6.2c-.5 2.1-.9 4.3-1.4 6.6s-.9 4.6-1.3 6.9c-.4 2.3-.8 4.4-1.1 6.3h-3.3c.5-2 1-4.2 1.5-6.5.5-2.4 1-4.7 1.5-7s.9-4.5 1.3-6.6c.4-2.1.7-3.8.9-5.2-1 0-2.2 0-3.6.1s-3 .2-4.8.3c.1-.4.2-.8.3-1 0-.3.1-.6.2-1.1 1.3.1 2.8.1 4.3.1h10.2c1.5 0 2.8-.1 4.1-.1l-.3.9c-.1.3-.1.7-.2 1.2-.4 0-1-.1-1.6-.1-.6 0-1.2-.1-1.8-.1-.6 0-1.3-.1-1.9-.1h-1.7c-.4 1.5-.8 3.3-1.3 5.4zm5.1 8.2c.5-1.4 1.2-2.6 2.1-3.7.9-1.1 2-2 3.3-2.7 1.3-.7 2.7-1 4.3-1 1.5 0 2.7.2 3.7.7 1 .4 1.8 1 2.5 1.7.6.7 1.1 1.5 1.3 2.5.3.9.4 1.9.4 2.9 0 1.5-.2 2.9-.7 4.3-.5 1.4-1.2 2.7-2.1 3.8s-2 2-3.3 2.6c-1.3.6-2.8 1-4.4 1-1.5 0-2.8-.2-3.8-.7-1-.5-1.8-1.1-2.4-1.9-.6-.8-1-1.6-1.2-2.6-.2-.9-.4-1.8-.4-2.7 0-1.5.2-2.9.7-4.2zm3.4 9.2c.7 1.1 2 1.6 3.6 1.6 1.4 0 2.6-.4 3.6-1.2 1-.8 1.8-1.8 2.4-2.9.6-1.2 1.1-2.4 1.3-3.7.3-1.3.4-2.4.4-3.4 0-.8-.1-1.6-.3-2.3-.2-.7-.5-1.3-1-1.8-.4-.5-.9-.9-1.6-1.2-.6-.3-1.3-.4-2.1-.4-1.3 0-2.5.4-3.5 1.1-1 .8-1.7 1.7-2.3 2.8-.6 1.1-1 2.3-1.3 3.6-.3 1.3-.4 2.5-.4 3.6.1 1.8.4 3.1 1.2 4.2zm26-7c.5.8 1 1.7 1.7 2.7s1.4 2.2 2.3 3.4c.8 1.2 1.6 2.3 2.4 3.3h-3.7c-.4-.7-.9-1.5-1.5-2.4-.5-.9-1-1.7-1.5-2.4-.5-.8-.9-1.4-1.2-2-.3-.6-.6-.9-.7-1.1l-.6-1c-.2-.3-.4-.5-.7-.8-.2-.2-.5-.3-.7-.3-.3 0-.4.3-.5.8l-.1.8c-.1.3-.2.9-.3 1.7-.2.8-.3 1.6-.4 2.5-.2.9-.3 1.7-.4 2.5-.1.8-.2 1.3-.3 1.6h-3c.6-2.3 1.1-4.6 1.6-7 .5-2.4 1-4.7 1.5-7 .4-2.3.9-4.5 1.3-6.6.4-2.1.7-4.2 1.1-6.1.1-.5.2-1 .2-1.5.1-.4.1-.9.2-1.4.5.1 1 .2 1.5.2.6 0 1.1-.1 1.5-.2-.2.9-.4 1.6-.5 2.1-.1.6-.2 1.1-.4 1.7-.1.6-.2 1.2-.4 1.8-.1.7-.3 1.5-.5 2.6l-1.7 8.4-.3 1.5v.4c0 .2.1.2.4.2.1 0 .3 0 .4-.1.1-.1.3-.1.4-.2l.6-.5c.7-.6 1.8-1.4 3-2.6 1.3-1.1 3-2.7 5.1-4.7.2.1.4.1.6.1h1.5c.3 0 .5-.1.8-.1-.1.1-.4.3-.8.6s-.9.8-1.5 1.2c-.6.5-1.2 1-1.9 1.5-.7.6-1.4 1.1-2 1.6-.7.5-1.3 1-1.8 1.5s-1 .8-1.3 1.1v.3c-.2.7.1 1.2.6 1.9zm18.2 3c.5-1 1.1-1.9 1.6-2.9.8-1.5 1.4-2.7 1.9-3.7.5-.9.9-1.7 1.2-2.3.3-.6.5-1.1.7-1.4.2-.3.3-.7.4-1l.4-1c.4.1.8.2 1.3.2s.9-.1 1.2-.2c-1.4 2.3-2.8 4.7-4.2 7.1-1.4 2.4-2.8 4.9-4.2 7.4-1.4 2.5-2.7 4.9-4 7.4-1.3 2.4-2.5 4.8-3.5 7.1-.3-.1-.7-.2-1.2-.2s-.9.1-1.2.2c1-1.7 2.1-3.5 3.1-5.3 1-1.8 2-3.5 3-5.1-.7-3.2-1.5-6.4-2.2-9.4-.7-3-1.5-6.1-2.3-9.2.2.1.5.1.7.1h.8c.6 0 1.1-.1 1.5-.2.3 1.8.7 4 1.3 6.6.5 2.6 1.2 5.4 2 8.5h.2c.4-.8.9-1.8 1.5-2.7zm9.3-5.2c.5-1.4 1.2-2.6 2.1-3.7.9-1.1 2-2 3.3-2.7 1.3-.7 2.7-1 4.3-1 1.5 0 2.7.2 3.7.7 1 .4 1.8 1 2.5 1.7.6.7 1.1 1.5 1.3 2.5.3.9.4 1.9.4 2.9 0 1.5-.2 2.9-.7 4.3-.5 1.4-1.2 2.7-2.1 3.8s-2 2-3.3 2.6c-1.3.6-2.8 1-4.4 1-1.5 0-2.8-.2-3.8-.7-1-.5-1.8-1.1-2.4-1.9-.6-.8-1-1.6-1.2-2.6-.2-.9-.4-1.8-.4-2.7-.1-1.5.2-2.9.7-4.2zm3.3 9.2c.7 1.1 2 1.6 3.6 1.6 1.4 0 2.6-.4 3.6-1.2 1-.8 1.8-1.8 2.4-2.9.6-1.2 1.1-2.4 1.3-3.7.3-1.3.4-2.4.4-3.4 0-.8-.1-1.6-.3-2.3-.2-.7-.5-1.3-1-1.8-.4-.5-.9-.9-1.6-1.2-.6-.3-1.3-.4-2.1-.4-1.3 0-2.5.4-3.5 1.1-1 .8-1.7 1.7-2.3 2.8-.6 1.1-1 2.3-1.3 3.6-.3 1.3-.4 2.5-.4 3.6.1 1.8.4 3.1 1.2 4.2zm41.5-22.9c-.7-.5-1.6-.8-2.6-.8-.8 0-1.5.2-2.2.5-.7.3-1.2.7-1.7 1.2s-.9 1.1-1.1 1.8c-.3.7-.4 1.4-.4 2.1 0 .7.1 1.3.3 1.8.2.5.5 1 .9 1.3.4.4.8.8 1.3 1.1.5.3 1.1.7 1.7 1.1.6.4 1.1.7 1.7 1.1.5.4 1 .8 1.4 1.2s.7 1 1 1.6c.2.6.4 1.4.4 2.3 0 1.1-.2 2.1-.7 3.3-.4 1.1-1.1 2.1-2 3-.9.9-1.9 1.6-3.2 2.2-1.3.6-2.7.8-4.4.8-.9 0-1.9-.1-2.8-.3-.9-.2-1.8-.6-2.6-1.1.2-.5.5-1 .7-1.5.2-.5.4-1 .5-1.5h.3c.3.6.6 1 1.1 1.4.4.4.9.7 1.4.9.5.2 1 .4 1.5.5.5.1.9.1 1.3.1 1 0 1.8-.2 2.6-.6.8-.4 1.4-.9 1.9-1.6.5-.6.9-1.3 1.1-2.1.3-.8.4-1.5.4-2.2 0-.7-.1-1.3-.3-1.8-.2-.5-.5-1-.8-1.4-.3-.4-.8-.8-1.3-1.1-.5-.3-1-.7-1.5-1.1-.6-.4-1.1-.7-1.7-1.1-.5-.4-1-.8-1.4-1.3-.4-.5-.7-1.1-1-1.7-.2-.6-.4-1.4-.4-2.3 0-1.1.2-2.2.7-3.2.4-1 1.1-1.8 1.9-2.6s1.8-1.3 2.9-1.7c1.1-.4 2.3-.6 3.6-.6 1.2 0 2.2.1 3 .4.8.3 1.4.5 1.8.7-.3.6-.6 1.1-.7 1.5-.2.4-.3.9-.5 1.5h-.3c-.6-.6-1.1-1.3-1.8-1.8zm13.6 15.9c.5.8 1 1.7 1.7 2.7.7 1.1 1.4 2.2 2.3 3.4.8 1.2 1.6 2.3 2.4 3.3h-3.7c-.4-.7-.9-1.5-1.5-2.4-.5-.9-1-1.7-1.5-2.4s-.9-1.4-1.2-2c-.3-.6-.6-.9-.7-1.1l-.6-1c-.2-.3-.4-.5-.7-.8-.2-.2-.5-.3-.7-.3-.3 0-.4.3-.5.8l-.1.8c-.1.3-.2.9-.3 1.7-.2.8-.3 1.6-.4 2.5-.2.9-.3 1.7-.4 2.5-.1.8-.2 1.3-.3 1.6h-3c.6-2.3 1.1-4.6 1.6-7s1-4.7 1.5-7c.4-2.3.9-4.5 1.3-6.6.4-2.1.7-4.2 1.1-6.1.1-.5.2-1 .2-1.5.1-.4.1-.9.2-1.4.5.1 1 .2 1.5.2.6 0 1.1-.1 1.5-.2-.2.9-.4 1.6-.5 2.1-.1.6-.2 1.1-.4 1.7-.1.6-.2 1.2-.4 1.8-.1.7-.3 1.5-.5 2.6l-1.7 8.4-.3 1.5v.4c0 .2.1.2.4.2.1 0 .3 0 .4-.1.1-.1.3-.1.4-.2l.6-.5c.7-.6 1.8-1.4 3-2.6 1.3-1.1 3-2.7 5.1-4.7.2.1.4.1.6.1h1.5c.3 0 .5-.1.8-.1-.1.1-.4.3-.8.6s-.9.8-1.5 1.2c-.6.5-1.2 1-1.9 1.5-.7.6-1.4 1.1-2 1.6-.7.5-1.3 1-1.8 1.5s-1 .8-1.3 1.1v.3c-.2.7.1 1.2.6 1.9zm18.2 3c.5-1 1.1-1.9 1.6-2.9.8-1.5 1.4-2.7 1.9-3.7.5-.9.9-1.7 1.2-2.3.3-.6.5-1.1.7-1.4.2-.3.3-.7.4-1l.4-1c.4.1.8.2 1.3.2s.9-.1 1.2-.2c-1.4 2.3-2.8 4.7-4.2 7.1-1.4 2.4-2.8 4.9-4.2 7.4-1.4 2.5-2.7 4.9-4 7.4-1.3 2.4-2.5 4.8-3.5 7.1-.3-.1-.7-.2-1.2-.2s-.9.1-1.2.2c1-1.7 2.1-3.5 3.1-5.3 1-1.8 2-3.5 3-5.1-.7-3.2-1.5-6.4-2.2-9.4-.7-3-1.5-6.1-2.3-9.2.2.1.5.1.7.1h.8c.6 0 1.1-.1 1.5-.2.3 1.8.7 4 1.3 6.6.5 2.6 1.2 5.4 2 8.5h.2c.4-.8 1-1.8 1.5-2.7zm16.1-14.5l-.6 2.7c.6 0 1.2 0 1.9-.1.7 0 1.4-.1 2-.1-.1.6-.2 1.1-.2 1.6-.6 0-1.3-.1-2-.1s-1.4-.1-1.9-.1l-1.5 7.4c-.1.4-.2.9-.3 1.4l-.3 1.5s-.2 1-.2 1.4-.1.9-.1 1.2c0 .5.1 1 .3 1.3.2.4.4.7.7.9.3.2.5.4.9.5.3.1.6.2.9.2.4 0 .8-.1 1.3-.2.4-.1.8-.3 1.2-.6l-.1 1c-.5.4-1.1.7-1.8.9-.7.2-1.4.2-2 .2-.5 0-1-.1-1.4-.2-.5-.1-.9-.4-1.3-.7-.4-.3-.7-.7-.9-1.1-.2-.5-.3-1-.3-1.6 0-.5.1-1.1.2-1.7.1-.6.2-1.2.3-1.9.3-1.3.5-2.4.7-3.3.2-.8.3-1.6.5-2.3.1-.7.3-1.3.4-2 .1-.7.3-1.5.5-2.5h-1.2c-.4 0-.9 0-1.3.1.1-.2.1-.4.2-.6 0-.2.1-.5.1-.9.4 0 .8.1 1.2.1.4 0 .8.1 1.1.1l.7-4.2 3.3-1.3c-.6 1.2-.8 2.1-1 3zm14.4 5.1c-.2-.1-.5-.1-.8-.1-.9 0-1.7.4-2.6 1.2s-1.5 2-1.9 3.5c0 .1-.1.4-.2.9s-.2 1.1-.4 1.8c-.1.7-.3 1.5-.5 2.3-.2.8-.3 1.6-.5 2.4-.1.8-.3 1.5-.4 2.2-.1.7-.2 1.2-.2 1.5h-2.8c.2-.4.3-1.1.6-2.1.2-.9.5-2 .7-3.1.2-1.2.5-2.4.8-3.7.3-1.3.5-2.5.7-3.8.2-1.2.4-2.3.6-3.4.2-1 .3-1.9.4-2.6.2.1.4.1.7.1h.8c.5 0 1-.1 1.4-.2-.1.2-.1.4-.2.7-.1.3-.2.7-.3 1.1l-.3 1.2c-.1.4-.2.9-.2 1.3h.2c.4-.5.8-1.1 1.2-1.6.4-.6.8-1 1.3-1.5.5-.4 1-.8 1.6-1.1.6-.3 1.2-.4 1.9-.4-.1.7-.2 1.2-.3 1.7-.1.5-.1 1-.1 1.5l-.3.2c-.5.2-.7.1-.9 0zm12.9 15.8c-1 .3-2.1.4-3.2.4-.8 0-1.6-.1-2.5-.3-.9-.2-1.7-.6-2.4-1.3-.7-.6-1.3-1.4-1.8-2.5-.5-1-.7-2.4-.7-3.9 0-1.6.2-3 .7-4.4.5-1.4 1.1-2.6 2-3.6.8-1 1.9-1.8 3-2.4 1.2-.6 2.5-.9 3.9-.9.9 0 1.7.1 2.5.3.8.2 1.5.6 2.1 1.1.6.5 1.1 1.2 1.5 2 .4.8.5 1.8.5 3 0 .7 0 1.4-.1 1.9s-.2 1-.3 1.3c-.5 0-1-.1-1.4-.1-.4 0-.8 0-1.2-.1h-10.2c0 .3-.1.6-.1.9 0 .4-.1.8-.1 1.3 0 1.3.2 2.3.6 3.1.4.8.8 1.4 1.4 1.9.5.4 1.1.7 1.8.9.6.2 1.2.2 1.7.2.7 0 1.4-.1 2-.2.6-.2 1.1-.3 1.6-.5s.9-.4 1.2-.7.6-.4.8-.6h.1l-.5 1.8c-.9.7-1.9 1.1-2.9 1.4zm-2.7-17.5c-.6.2-1.2.6-1.8 1.1-.6.5-1.1 1.2-1.6 2.1s-.9 2-1.2 3.4c.8.1 1.6.1 2.5.1h5.7c.7 0 1.3-.1 1.8-.1 0-.2.1-.5.2-.9 0-.3.1-.8.1-1.3 0-.9-.1-1.6-.4-2.2-.2-.6-.5-1.1-.9-1.5-.4-.4-.8-.6-1.3-.8-.5-.2-1-.2-1.5-.2-.4 0-1 .1-1.6.3zm21.3 17.5c-1 .3-2.1.4-3.2.4-.8 0-1.6-.1-2.5-.3-.9-.2-1.7-.6-2.4-1.3-.7-.6-1.3-1.4-1.8-2.5-.5-1-.7-2.4-.7-3.9 0-1.6.2-3 .7-4.4.5-1.4 1.1-2.6 2-3.6.8-1 1.9-1.8 3-2.4 1.2-.6 2.5-.9 3.9-.9.9 0 1.7.1 2.5.3.8.2 1.5.6 2.1 1.1.6.5 1.1 1.2 1.5 2 .4.8.5 1.8.5 3 0 .7 0 1.4-.1 1.9s-.2 1-.3 1.3c-.5 0-1-.1-1.4-.1-.4 0-.8 0-1.2-.1h-10.1c0 .3-.1.6-.1.9 0 .4-.1.8-.1 1.3 0 1.3.2 2.3.6 3.1.4.8.8 1.4 1.4 1.9.5.4 1.1.7 1.8.9.6.2 1.2.2 1.7.2.7 0 1.4-.1 2-.2.6-.2 1.1-.3 1.6-.5s.9-.4 1.2-.7c.3-.2.6-.4.8-.6h.1l-.5 1.8c-.9.7-1.9 1.1-3 1.4zm-2.6-17.5c-.6.2-1.2.6-1.8 1.1-.6.5-1.1 1.2-1.6 2.1-.5.9-.9 2-1.2 3.4.8.1 1.6.1 2.5.1h5.7c.7 0 1.3-.1 1.8-.1 0-.2.1-.5.2-.9 0-.3.1-.8.1-1.3 0-.9-.1-1.6-.4-2.2-.2-.6-.5-1.1-.9-1.5-.4-.4-.8-.6-1.3-.8-.5-.2-1-.2-1.5-.2-.4 0-1 .1-1.6.3zm16.3 9.2c3 0 5.4 2.6 5.4 5.7 0 3.2-2.4 5.7-5.4 5.7-3 0-5.4-2.6-5.4-5.7 0-3.2 2.4-5.7 5.4-5.7zm4.2 5.7c0-2.5-1.9-4.5-4.2-4.5-2.4 0-4.3 2-4.3 4.5s1.9 4.5 4.3 4.5 4.2-2.1 4.2-4.5zM81.8 249.7c-.3.3-.8.6-1.8.8v10.8c2.6 3.2 5.5 3.6 12 3.6 4.4 0 10.4 0 14.9-.2v.6c-1.1.2-1.7.9-1.9 2.1H92c-6.8 0-9.9-.9-12.5-5.5-1.6 1.8-4 4.2-5.5 5.5.1.5-.1.8-.4.9l-1.8-3.3c1.5-.7 3.8-1.9 5.9-3.2v-12H72l-.2-1h5.3l1.5-2 3.2 2.9zM73.2 233c5.3 1.7 6.9 4.4 6.9 6.2 0 1-.6 1.7-1.3 1.7-.3 0-.7-.2-1.1-.5-.6-2.4-2.8-5.4-4.8-7.1l.3-.3zm33.4 6c-.3.6-.7.8-1.8.8H82.5l-.2-.9h19.4l1.7-2.3 3.2 2.4zm-2.9-4.6c-.3.6-.7.8-1.8.8H85.6l-.3-1h13.5l1.6-2.2 3.3 2.4zm-3.2 7l3 2.2c-.3.6-.7.9-1.7.9h-16l-.2-1h13.3l1.6-2.1zm-14.7 7.7l-.2-.9h13.3l1.6-2.1 3 2.2c-.3.6-.7.8-1.7.8h-16zm16.8 13.2c0 .2-1.3.8-2.1.8h-.4v-1.9h-12v1.3s-.4.9-2.4.9v-11.7l2.6 1.3h11.4l1.2-1.6 3.3 2.4c-.3.3-.9.7-1.6.8v7.7zm-14.4-2.1h12v-6.4h-12v6.4zm42.7-2.7v7.2c1.9.2 4.1.3 6.5.3h9.6v.6c-.9.2-1.4.9-1.5 1.9h-8.3c-8.6 0-13.4-1.5-16.7-8.2-1.6 3.6-4 6.9-7.7 9.1l-.4-.6c4.3-3.4 6.5-9.5 7.3-14.8l4 1c-.1.5-.5.7-1.5.7-.3 1.3-.7 2.6-1.3 3.9 1.8 3.2 4.1 4.9 7.5 5.7v-13.5h-15.7l-.3-1h29.2l1.8-2.5 3.4 2.6c-.3.6-.7.8-1.8.8h-14.1v5.8h8.2l1.7-2.4 3.3 2.5c-.3.6-.7.8-1.8.8h-11.4zm-9.6-11.7v1.3s-.3.9-2.4.9v-15.1l2.7 1.3h16l1.2-1.6 3.3 2.5c-.3.3-.9.6-1.6.8v10.9c0 .1-.7.9-2.4.9v-1.8h-16.8zm16.7-10.7h-16.7v4.3H138v-4.3zm-16.7 9.7H138v-4.5h-16.7v4.5zm40.1-2.8v5.5c4 1.9 5.2 4.1 5.2 5.5 0 .9-.5 1.5-1.1 1.5-.3 0-.7-.1-1-.5-.5-1.7-1.9-4.2-3.1-5.7v19.3c0 .2-.3 1-2.4 1v-19.3c-1.4 3.7-3.4 7.1-5.8 10l-.6-.6c3-4.7 4.9-10.7 5.9-16.7h-5.4l-.2-1h6.1v-9.3l4 .4c0 .6-.4.9-1.6 1v7.9h1.4l1.5-2.3 3 2.4c-.3.6-.7.8-1.8.8h-4.1zm21.9 12.3h-4.9c2.2 4 6.1 7.5 9.6 9.1v.4c-1 .1-1.8.9-2.1 2.1-3.2-2.4-6.2-6.3-8.1-11.3v12.7c0 .1-.3 1-2.4 1v-12c-2.7 4.1-6.5 7.4-11.3 9.8l-.4-.7c4.4-2.9 8-6.8 10.2-11.2H170v.7c0 .2-.8.8-1.9.8h-.4v-14.4l2.8 1.3h5v-4.4h-9.1l-.2-.9h9.3V232l4 .4c-.1.6-.4.9-1.6 1v4h5.2l1.6-2.3 3.1 2.4c-.3.6-.7.8-1.8.8h-8.1v4.4h5.2l1.1-1.6 3.2 2.5c-.3.3-.9.6-1.6.8v10.4c0 .1-.7.8-2.4.8v-1.3zm-7.9-10.8H170v4.5h5.4v-4.5zm-5.4 9.8h5.4V249H170v4.3zm13.3-9.8h-5.5v4.5h5.5v-4.5zm-5.5 9.8h5.5V249h-5.5v4.3zm46.8-18.2l3.4 2.6c-.3.6-.7.8-1.8.8h-27v8.9c0 6.4-.3 15.1-5.4 21.1l-.6-.4c3.3-6.1 3.6-13.6 3.6-20.7v-11.2l2.8 1.3h10.7v-5.8l4.2.4c0 .6-.4.9-1.8 1.1v4.3h10.1l1.8-2.4zm-1.8 30.9l1.7-2.3 3.2 2.4c-.3.6-.7.8-1.8.8H198l-.3-.9h13.7v-7.7h-10.2l-.3-1h10.5v-17.2l4.1.4c0 .6-.5.9-1.7 1.1v15.7h6.7l1.6-2.2 3.1 2.3c-.3.6-.7.8-1.8.8h-9.6v7.7h9zm-23.1-10.4c2.2-2.9 4-8.3 4.8-14.2l3.6.9c-.2.5-.4.7-1.3.8-.4 1.7-.9 3.4-1.5 4.9 3.7 1.8 4.8 4 4.8 5.4 0 .9-.5 1.6-1.2 1.6-.3 0-.7-.2-1-.5-.3-1.8-1.6-4.1-2.9-5.7-1.3 3.1-2.9 5.6-4.9 7.3l-.4-.5zm14.4-.8c2.4-2.7 4.3-7.8 5.3-13.3l3.6 1c-.1.5-.4.7-1.3.7-.4 1.7-1 3.2-1.7 4.7 4.9 1.8 6.5 4.4 6.5 5.9 0 .9-.5 1.5-1.1 1.5-.3 0-.6-.1-.9-.4-.7-2.1-2.8-4.7-4.7-6.4-1.3 2.9-3.1 5.2-5 6.8l-.7-.5zm19.7-7.7c4.2.4 5.6 2.3 5.6 3.7 0 .8-.5 1.5-1.2 1.5-.3 0-.6-.1-.9-.4-.4-1.7-2.1-3.5-3.7-4.4l.2-.4zm9.9-9.9h-9.6l-.2-1h9.9v-4.5l3.9.3c-.1.6-.3.8-1.5 1v3.2h9.8v-4.5l3.9.3c0 .6-.3.8-1.5.9v3.2h5.1l1.7-2.4 3.3 2.6c-.3.6-.7.8-1.8.8h-8.3v3.1c0 .1-.3.9-2.4.9v-4h-9.8v3.3c0 .1-.3.8-2.4.8v-4zm-7.2 21.7c.4 0 .6 0 1-.7.7-1.2.7-1.2 8.2-14.7l.7.2c-1.7 4-5.6 12.1-6.2 13.6-.4 1.1-.7 2.2-.7 3.1 0 1.4.9 2.8.9 5.2 0 .6 0 2.8-2 2.8-.6 0-1-.6-1.1-1.7.1-1.2.2-2.3.2-3.2 0-2.8-.5-3.6-2.6-3.8v-.9c1.2.1 1.6 0 1.6.1zm-.1-18.6c4.1.6 5.5 2.4 5.5 3.8 0 .8-.5 1.5-1.2 1.5-.3 0-.6-.1-.9-.4-.5-1.5-2.2-3.5-3.6-4.5l.2-.4zm25.9 1.4l2.7 2.6c-.3.3-.7.5-1.6.5-1.5 2.6-3.5 5-5.9 7.2 3.2 2.1 7 3.6 11 4.5v.4c-1 .2-1.8.9-2.1 2.1-.5-.2-1-.3-1.5-.5l-.9.3v8.7c0 .1-.7.9-2.4.9V266h-11.3v1.6c0 .2-.8.8-1.9.8h-.4v-10.5c-1.7.8-3.5 1.4-5.3 2l-.2-.7c4.6-1.8 8.7-4.3 12.1-7.4-1.6-1.7-3-3.7-4.1-6-1.6 1.9-3.5 3.5-5.5 4.7l-.4-.5c3.1-2.6 6-7.2 7.4-11.3l3.6.9c-.1.4-.4.6-1.4.6-.5.9-1 1.9-1.7 2.8h8.1l1.7-1.3zm-.9 15.5l.2-.3c-2.1-1-4-2.3-5.6-3.7-1.7 1.4-3.7 2.6-5.8 3.7l.7.3h10.5zm-11.1 7.9h11.3v-6.9h-11.3v6.9zm.8-19.9c1.2 2.1 2.8 3.9 4.7 5.5 1.9-2 3.6-4.2 4.7-6.5h-8.7l-.7 1zm35.6.3l3 2.5c-.3.4-.7.5-1.5.6-.2 11.4-.7 17.1-2.1 18.6-.9.9-1.9 1.3-3.7 1.3 0-1.4-.3-1.9-3.4-2.3v-.7c1.2 0 3.3.1 4.1.1.7 0 .9 0 1.2-.4 1-1 1.3-6.6 1.5-17h-5.2c-.7 7.7-2.3 15.6-5.9 20.4l-.5-.6c3.3-6.3 4.4-17.7 4.3-27.3h-3.9l-.3-.9h7V232l4 .4c0 .6-.4.8-1.5 1v6.4h2.5l1.7-2.4 3.3 2.5c-.3.6-.7.8-1.8.8h-7.1c-.3.2-.7.3-1.3.3 0 2-.2 4.1-.3 6.2h4.7l1.2-1.7zm2.5 3.9c3.7-4 7-11.5 8-17.6l4 .9c-.1.4-.4.6-1.2.7 2 5.6 5.6 10.7 9.6 13.7v.5c-.9.3-1.5 1.1-1.7 2.1-3.7-3.9-6.8-9.5-8.4-15.9-1.8 6.4-5.4 12.4-9.8 16.1l-.5-.5zm2.9 9c9.9 2.3 13 6.5 13 8.7 0 .8-.4 1.3-1.1 1.3-.3 0-.6-.1-.9-.2-1.9-3.4-7.2-7.3-11.2-9.2l.2-.6zm2.8-10.6c5.9 1.1 7.9 4 7.9 5.8 0 .9-.5 1.5-1.2 1.5-.3 0-.6-.1-.9-.3-.8-2.4-3.6-5.1-6-6.5l.2-.5zm46-13.4l3.3 2.6c-.3.3-.9.7-1.6.8v28.8c0 .1-.7 1-2.5 1v-3.3h-18.3v2.8c0 .1-.1 1.1-2.4 1.1v-33.4l2.7 1.3h17.7l1.1-1.7zm-.8 2.6h-18.3v12.4h18.3V237zm-18.4 26.3H340v-12.9h-18.3v12.9zm65.7-21.9c-.3.6-.7.9-1.8.9h-13.3c3.4 7.1 9.8 13.5 15.8 16.4l-.1.4c-1.1.1-2.1.9-2.5 2.2-5.7-3.8-11-10.6-14-18.9v16.4h3.4l1.8-2.5 3.3 2.6c-.3.6-.7.9-1.8.9h-6.7v7.7c0 .1-.3 1-2.5 1v-8.7h-8.1l-.3-.9h8.3v-14.4c-3.4 7-8.8 13-15.9 17.1l-.4-.6c6.3-4.7 11.5-11.7 14.2-18.7h-13.5l-.3-1h16v-9.6l4.1.4c-.1.6-.4.9-1.6 1v8.2H382l1.9-2.6 3.5 2.7zm33 14H413c3.5 4.4 9.9 8 15.6 9.5v.4c-1 .2-1.9 1-2.2 2.2-5.7-2.3-11.2-6.6-14.3-12.1h-.1v12.1c0 .2-.3 1-2.5 1v-11.8c-3.8 4.7-9.4 8.5-15.9 11l-.4-.7c5.6-2.8 10.7-7.1 13.9-11.6h-5.9v1.4s-.3.9-2.5.9v-16.3l2.7 1.3h8v-4.4h-15.7l-.3-.9h16v-5.6l4.1.4c-.1.6-.4.8-1.6.9v4.2h10.5l1.9-2.7 3.7 2.7c-.3.6-.7.9-1.8.9h-14.3v4.4h8.2l1.2-1.6 3.3 2.5c-.3.3-.9.6-1.6.8v12.2c0 .1-.7 1-2.5 1v-2.1zm-11-11.8h-8.3v4.9h8.3v-4.9zm-8.3 10.9h8.3v-5h-8.3v5zm19.3-10.9h-8.5v4.9h8.5v-4.9zm-8.5 10.9h8.5v-5h-8.5v5zM71.7 334.1c3.6-2.5 7.4-6.4 9.3-9.4l3.2 1.9c-.2.3-.4.4-.7.4-.2 0-.4 0-.7-.1-2.3 2.6-6.5 5.9-10.7 7.8l-.4-.6zm31.2-31.4l3.7 2.7c-.3.6-.7.8-1.8.8H72.2l-.3-1h15.9v-6l4.2.4c-.1.6-.5.9-1.8 1.1v4.5H101l1.9-2.5zm-5.2 18.9h-7.4v10.9c0 2.1-.6 3.4-4.3 3.7 0-2.2-1.7-2.3-4.7-2.6v-.6H87c.7 0 .9-.1.9-.6v-10.9h-7.1v1.2c0 .1-.4 1-2.4 1v-13.9l2.7 1.3h16.3l1.2-1.7 3.3 2.6c-.3.3-.9.6-1.6.8v9.9c0 .1-.7.9-2.5.9v-2zm-16.9-1h17V312h-17v8.6zm14 4.3c8 2.8 10.4 6.5 10.4 8.4 0 .8-.4 1.3-1.1 1.3-.3 0-.6-.1-.9-.3-1.5-2.9-5.6-6.8-8.7-9l.3-.4zm27.9-21.6l2.8 2.1c.8-1.5 1.5-3 2.1-4.4l3.4 1.6c-.2.3-.4.5-.9.5-.2 0-.4 0-.6-.1-1.6 3.2-3.9 6.8-6.7 10.2h2.9l1.6-2.3 3.2 2.4c-.3.6-.7.8-1.8.8h-6.8c-1.6 1.9-3.4 3.8-5.4 5.5h7.2l1.1-1.5 3.2 2.4c-.2.3-.9.6-1.6.8v12.9c0 .1-.7.8-2.3.8v-2.3h-7.9v2.5c0 .2-.7.8-1.9.8h-.4v-14.3c-1.4 1-2.8 2-4.4 2.9l-.4-.6c1.6-1.1 3.3-2.5 4.7-3.8v-1.7l1.2.6c1.6-1.5 3-3.2 4.4-4.9h-9.9l-.3-1h7.6v-6.8h-5.5l-.2-1h5.7v-6.1l4.1.4c0 .7-.4.9-1.8 1.1v4.6h1.7l1.9-2.1zm1.5 17.3h-7.9v5.1h7.9v-5.1zm-7.9 11.2h7.9v-5.2h-7.9v5.2zm3.2-18.5h.9c1.7-2.3 3.3-4.6 4.6-6.9-.2.1-.5.1-.9.1h-4.6v6.8zm22.4-12.4l2.8 3.1c-.3.3-.8.4-1.7.4-1.3 2.6-3.9 7.4-5.4 10 5.4 3.9 6.7 7.3 6.7 10.1 0 3.8-1.5 5.9-5.7 6.3 0-1.7-.6-2-3-2.3v-.7h3.9c1.8 0 2.3-1.5 2.3-3.6 0-3.2-1.5-6.4-5-9.7 1-2.6 2.7-7.7 3.8-11h-6.8v31.9c0 .2-.8.9-2 .9h-.4v-35.1l2.8 1.3h6.2l1.5-1.6zm36.8 30.5l3.4 2.6c-.3.6-.7.8-1.8.8h-32.6l-.3-.9h16.1v-5.1H152l-.3-1h11.9V324l4 .4c0 .6-.4.8-1.6 1v2.4h7.6l1.8-2.4 3.3 2.5c-.3.6-.7.9-1.8.9H166v5.1h10.8l1.9-2.5zm-30.8-13.1h15.7V315h-12l-.2-1h12.3v-3h-8.9v.7c0 .2-.8.9-2 .9h-.4v-12.2l2.9 1.3h19.5l1.1-1.6 3.3 2.5c-.3.3-.9.6-1.6.8v8c0 .2-.9.6-1.6.8l2.9 2.1c-.3.6-.7.8-1.8.8h-11v3.3h10.8l1.7-2.3 3.2 2.4c-.3.6-.7.8-1.8.8h-31.7l-.4-1zm5.3 2c.1.5.1 1 .1 1.5 0 3.1-1.9 5.2-4 5.2-.9 0-1.3-.5-1.3-1.1 0-.6.5-1.1 1.1-1.4 1.5-.6 3.2-2.2 3.4-4.2h.7zm10.4-17.7h-8.9v3.2h8.9v-3.2zm-8.9 7.4h8.9v-3.3h-8.9v3.3zm4.7 10.3c1.8 1.4 2.5 2.8 2.5 3.9 0 1.2-.8 2-1.6 2-.4 0-.9-.2-1.2-.8.1-.6.2-1.3.2-1.9 0-1.1-.2-2.2-.4-3l.5-.2zm15.6-17.7h-9v3.2h9v-3.2zm0 7.4v-3.3h-9v3.3h9zm-9 1v3.1h8.2l1.5-1.9h-.7V311h-9zm1.2 9.1c3.2 1.2 4.3 2.9 4.3 4.2 0 1-.6 1.7-1.3 1.7-.3 0-.7-.2-1-.5-.1-1.7-1.1-3.8-2.3-5.1l.3-.3zm7.7-.1c4.9 1.1 6.4 3.4 6.4 5 0 .9-.5 1.6-1.2 1.6-.3 0-.6-.1-.9-.4-.6-2.1-2.7-4.5-4.5-5.9l.2-.3zm40.6-17.2l3.3 2.5c-.3.3-.9.6-1.6.8V334c0 .1-.7 1-2.4 1v-3h-24.2v2.2s-.2 1-2.4 1v-32.1l2.7 1.3h23.5l1.1-1.6zm-14.2 2.6h-10.7v12.2h10.7v-12.2zm-10.8 13.2v12.5h10.7v-12.5h-10.7zm24.2-13.2h-11v12.2h11v-12.2zm-11 25.7h11v-12.5h-11v12.5zm50.6-1.4l3.5 2.6c-.3.6-.7.8-1.8.8h-28v2c0 .2-.8.9-2 .9h-.4v-34.5l2.8 1.3h22.7l1.8-2.3 3.4 2.5c-.3.6-.7.8-1.8.8H228v28.4h24.4l1.9-2.5zm-13.7-1c0 .2-1.2.8-1.9.8h-.3V328h-5.2v1.4s-.3.8-2.2.8V318l2.4 1.1h4.7l1-1.3 2.8 2.1c-.2.3-.7.6-1.3.6v8.2zm-7.4-1.7h5.2v-7h-5.2v7zm16.1-11.1c0 .1-.7.8-2.4.8v-1.5h-9.5v.9s-.4.9-2.4.9v-10.7l2.5 1.2h8.9l1.1-1.5 3.1 2.3c-.2.3-.8.6-1.4.7v6.9zm-11.8-1.7h9.5v-5.9h-9.5v5.9zm16.1 14.5c0 .2-1.2.8-1.9.8h-.3v-1.6h-5.5v.9s-.3.8-2.2.8v-11.7l2.4 1.1h5l1-1.4 3 2.2c-.2.3-.7.6-1.4.7v8.2zm-7.7-1.7h5.5v-7h-5.5v7zm27.5-21.9l3.2 2.5c-.3.3-.9.6-1.6.8v22.3c0 .1-.7.9-2.3.9v-3h-7.8v3.6s-.2.9-2.3.9v-27.7l2.5 1.3h1.5c.5-1.9 1.1-4.9 1.5-7l4 .8c-.1.6-.5.8-1.4.8-.7 1.6-1.9 3.8-2.8 5.4h4.5l1-1.6zm-.8 2.6h-7.8v9.1h7.8v-9.1zm-7.8 20h7.8v-9.9h-7.8v9.9zm27.9-22.7l3.1 2.7c-.3.4-.8.6-1.6.7-.3 14.8-.8 24.2-2.6 26.1-1.1 1.1-2.1 1.7-4.4 1.7 0-1.7-.4-2.1-4.4-2.7v-.7c1.7.1 4.2.2 5.4.2.8 0 1-.1 1.5-.5 1.4-1.5 1.8-10.8 2.1-24.7h-10.1c-1.5 3.9-3.4 7.4-5.5 9.9l-.6-.4c2.3-4 4.5-11.1 5.7-17.9l3.9 1.1c-.1.5-.4.7-1.3.8-.5 1.9-1.1 3.8-1.8 5.6h9.3l1.3-1.9zm-12.4 10.3c5.3 2.4 7 5.3 7 7.2 0 1.1-.6 1.8-1.3 1.8-.3 0-.7-.2-1.1-.5-.5-2.7-2.8-6.2-5-8.2l.4-.3zm50.9-10.3l2.8 2.8c-.3.3-.7.4-1.4.4-.7 1.1-2.1 2.7-3.1 3.6l-.6-.3c.3-.9.7-2.6 1-3.9h-12.8v9.5c0 .2-.8.8-2 .8h-.4v-10.2H303c.1 2.4-1 4.5-2.9 4.5-.9 0-1.4-.5-1.4-1.2 0-.6.5-1.2 1.1-1.5 1.2-.6 2.2-2.3 2-4.2h.7c.2.5.3 1 .4 1.5h11.9V303h-12.3l-.3-.9h22.9l1.7-2.3 3.3 2.4c-.3.6-.7.9-1.8.9H317v3.6h12.5l1.7-1.7zm-20.6 8.3l2.5 1.7c-.3.6-.7.8-1.6.8H303l-.3-.9h6.7l1.2-1.6zm-.2-4l2.4 1.7c-.3.6-.7.8-1.6.8h-7.6l-.2-1h5.9l1.1-1.5zm21.7 19.7v3.6c1.1.5 1.3.6 1.3 1 0 1-1 1.6-4.5 1.6H319c-3.6 0-4.3-.5-4.3-3.6v-2.4h-9v1.5c0 .1-.4.9-2.4.9V318l2.6 1.2h20l1.1-1.5 3.1 2.3c-.2.3-.8.6-1.5.8v9.2c0 .1-.7.9-2.4.9v-1.6H317v2.6c0 1.3.2 1.4 1.9 1.4h9.9c1.7 0 1.8 0 2.7-4.1h.6zm-17.4-9h-9v3.5h9V320zm-8.9 8.1h9v-3.7h-9v3.7zm20.6-8.1h-9.2v3.5h9.2V320zm-9.3 8.1h9.2v-3.7h-9.2v3.7zm2-12.3l-.2-.9h6.9l1.3-1.6 2.6 1.7c-.3.6-.7.8-1.7.8h-8.9zm7.1-6.5l2.5 1.7c-.3.6-.7.8-1.6.8h-8l-.2-1h6.1l1.2-1.5zm10.5.7c4.3.6 5.6 2.5 5.6 3.8 0 .8-.5 1.5-1.2 1.5-.3 0-.6-.1-1-.4-.5-1.6-2.1-3.6-3.6-4.6l.2-.3zm2 14.9c.4 0 .6 0 .9-.8.1-.3.6-1.4 7-17.4l.7.2c-1.6 5-4.6 14.2-5.2 16.2-.3 1.2-.5 2.5-.5 3.4 0 1.7.9 3.5.9 6.4 0 .8 0 3.4-2 3.4-.7 0-1.1-.8-1.2-2 .2-1.5.3-2.8.3-4 0-4-.8-4.2-2.7-4.4v-.9c1.4-.1 1.8-.2 1.8-.1zm-.5-25.1c4.6.8 6.1 2.8 6.1 4.2 0 .9-.6 1.5-1.3 1.5-.3 0-.6-.1-1-.4-.6-1.7-2.4-3.8-4-4.9l.2-.4zm27.9 14.5l2.8 2.7c-.3.3-.7.5-1.5.5-1.3 4.3-3.2 8-6.1 11.1 2.7 2.3 6.1 3.8 10.1 4.9l-.1.4c-1.1.2-2 1-2.4 2.3-3.9-1.4-6.9-3.3-9.3-5.9-2.9 2.5-6.7 4.5-11.4 5.9l-.3-.7c4.4-1.6 7.8-3.8 10.5-6.6-2.4-3.1-4-7-4.9-11.9H351c-.2 6.2-1.3 13.8-6.4 19.3l-.6-.4c4.1-6.6 4.6-14.5 4.6-21.7v-9l2.8 1.3h5.8v-6.8l4.2.4c0 .7-.5.9-1.8 1.1v5.3h6.6l1.6-1.7 3 3c-.3.3-.7.4-1.4.4-.9 1-2.5 2.7-3.4 3.6l-.5-.2c.3-.9.7-2.7 1-4.1h-6.8v8.6h4.8l1.6-1.8zm-15-7v8.6h6.3v-8.6h-6.3zm3 9.6c1.1 4.3 3 7.7 5.6 10.3 2.3-2.9 3.9-6.4 5-10.3h-10.6zm27.2 8.3l5.7-1.5.2.6c-2.4 1.2-5.8 3-10.5 5.2-.1.5-.4.9-.8 1l-1.6-3.4c1-.2 2.7-.6 4.6-1.1v-14.1h-4.3l-.2-1h4.5v-10.3l4.1.4c0 .6-.5.9-1.8 1.1v8.9h1.2l1.5-2.3 2.9 2.5c-.3.6-.7.8-1.7.8h-3.9v13.2zm2.2-3.8c4.6-3.1 9.5-8.7 10.9-13.1l4.2.8c-.1.4-.5.6-1.3.7 2.8 3.8 7.7 7.2 12.3 9.1v.6c-1 .3-1.8 1.2-2.1 2.2-4.4-2.5-8.7-6.8-10.8-11.4-2.3 4.5-7.6 9.1-12.8 11.8l-.4-.7zm1.4-15.8l-.2-1h5.8v-5.3l3.6.3c-.1.5-.3.7-1.2.8v4.2h7.1v-5.3l3.6.3c-.1.5-.3.7-1.2.8v4.2h2.4l1.6-2.3 3 2.4c-.3.6-.7.9-1.8.9h-5.3v3.2c0 .1-.4.9-2.3.9v-4.2h-7.1v3.3c0 .1-.4 1-2.3 1v-4.3h-5.7zm16.7 18.2l1.1-1.6 3.3 2.5c-.3.3-.9.6-1.6.8v9.5c0 .1-.7 1-2.4 1v-2.2h-11.2v1.6c0 .2-.8.9-2 .9h-.4v-13.6l2.8 1.3h10.4zm-2.7-7l3.2 2.2c-.3.6-.7.8-1.7.8h-10.1l-.3-.9h7.1l1.8-2.1zm-8.1 15.9H402v-8h-11.2v8zm22.4 3.8c1.2-.7 2.1-1.9 2.5-3.8h-.5c-1.2 0-2.4-1-2.4-2.6 0-1.5 1.2-2.7 2.5-2.7 1.6 0 2.8 1.3 2.8 3.2 0 2.7-1.8 5.7-4.2 6.7l-.7-.8zm-309.5 37.2l2.9 3c-.3.3-.7.4-1.4.4-.9 1.2-2.6 2.8-3.9 3.8l-.5-.3c.4-1 1-2.8 1.4-4.2H77c.1 3.1-1.7 5.1-3.6 5.1-.8 0-1.5-.4-1.5-1.2 0-.7.5-1.3 1.2-1.6 1.5-.7 3-2.6 2.8-4.9h.7c.2.6.3 1.2.3 1.7h11V367l4.2.4c0 .6-.4.9-1.7 1v7.1H94c1.5-2.3 3.3-5.5 4.4-7.9l3.8 1.9c-.2.3-.4.4-.7.4-.2 0-.4 0-.7-.1-1.4 1.7-3.6 4-5.6 5.7h7l1.5-1.8zm-4.4 16.4l1.1-1.5 3.3 2.4c-.3.3-.9.6-1.6.8v10.7c0 .1-.7.9-2.4.9v-1.8H78.9v1.2s-.4.9-2.4.9v-14.8l2.7 1.2h20.1zm-21.7-22.5c4.3 1.4 5.7 3.7 5.7 5.3 0 1-.6 1.7-1.3 1.7-.3 0-.7-.2-1-.5-.2-2.1-2-4.7-3.7-6.2l.3-.3zM88 391h-9.2v4.3H88V391zm-9.1 5.3v4.4H88v-4.4h-9.1zm20.1-9.4c0 .2-1.3.8-2 .8h-.4v-1.2H81.8v.6c0 .1-.4.8-2.4.8v-9.5l2.6 1.2h14.2l1.1-1.5 3.1 2.3c-.2.3-.8.6-1.4.8v5.7zm-17.2-1.3h14.7v-4.9H81.8v4.9zm17.8 5.4h-9.2v4.3h9.2V391zm-9.2 9.6h9.2v-4.4h-9.2v4.4zm50.6-27.9l3.5 2.6c-.3.6-.7.8-1.8.8H110l-.3-.9h20.7c1.4-2.4 3-5.7 4-8.1l3.8 1.7c-.1.3-.4.4-.8.4-.2 0-.4 0-.6-.1-1.3 1.8-3.4 4.2-5.4 6h7.8l1.8-2.4zm-18.9 8l1.2-1.6 3.2 2.5c-.2.3-.9.6-1.6.8v17.9c0 1.9-.3 3.1-3.4 3.5 0-1.9-1.2-2.2-3-2.4v-.6h3.3c.4 0 .6-.1.6-.6v-6.3h-7.2v8.9s-.3 1-2.4 1v-24.3l2.5 1.3h6.8zm.4.9h-7.2v5.1h7.2v-5.1zm-7.2 11.3h7.2v-5.3h-7.2v5.3zm1.4-25.8c4.4 1.6 5.8 4 5.8 5.7 0 1.1-.6 1.8-1.3 1.8-.3 0-.7-.2-1.1-.5-.3-2.2-2-5.1-3.7-6.6l.3-.4zm13.3 13.3l3.9.3c0 .6-.4.9-1.6 1V397s-.3.8-2.3.8v-17.4zm7.7 20.3c.7 0 .9-.2.9-.8v-20.7l4 .3c-.1.6-.3.8-1.6 1v19.4c0 2-.5 3.5-3.9 3.8 0-1.9-1.2-2.2-4.1-2.4v-.6h4.7zm41.1-13l2.9 2.4c-.3.3-.7.5-1.5.6-.7 6.3-1.9 10.8-3.6 12-1 .8-2.1 1.1-3.9 1.1 0-1.4-.3-1.9-3.8-2.3v-.7c1.3.1 3.9.2 4.8.2.7 0 1 0 1.4-.3 1.1-.9 2.1-4.8 2.7-10.4h-22.4c-2.4 2.4-5 4.6-7.9 6.5l-.4-.6c6.5-5.1 11.9-12.2 15.6-19.4h-14l-.3-.9h14.8c1.5-3 2.7-5.9 3.6-8.7l3.7 1.5c-.2.5-.6.7-1.6.6-.9 2.1-1.9 4.4-3.1 6.7h6.5l1.2-1.3 2.4 2.2c-.3.3-.6.4-1.2.4l-.7 5.3h1.2l1.1-1.3 2.4 2.2c-.3.3-.6.4-1.2.4l-.7 5.5h.7l1.3-1.7zm-24.2 6c.2.9.3 1.7.3 2.4 0 3.8-2.3 6.1-4.3 6.1-1.2 0-1.3-1-1.3-1.1 0-.6.5-1.1 1.1-1.5 1.7-.8 3.4-3.1 3.5-5.9h.7zm-1.4-26.6c4 1.9 5.2 4.2 5.2 5.8 0 1.1-.6 1.9-1.3 1.9-.4 0-.7-.2-1.1-.6-.2-2.2-1.7-5.1-3.2-6.8l.4-.3zm22.3 16.3h-14.3c-1.5 2-3.1 4-4.8 5.9h18.3l.8-5.9zm-16.8 10c2 2 2.7 3.9 2.7 5.4 0 1.5-.8 2.6-1.6 2.6-.4 0-.8-.2-1.1-.8.2-.7.2-1.5.2-2.3 0-1.7-.2-3.4-.6-4.7l.4-.2zm13.9-16.7h-7.3c-1 1.9-2.2 3.8-3.5 5.7h10l.8-5.7zm-9.1 16.2c3.2 1.5 4.2 3.4 4.2 4.8 0 1.1-.6 1.8-1.3 1.8-.3 0-.7-.2-1-.5 0-1.9-1.1-4.4-2.3-5.8l.4-.3zm5.3-.8c3.9.8 5.1 2.6 5.1 3.8 0 .8-.5 1.4-1.1 1.4-.3 0-.6-.1-.9-.4-.5-1.5-2-3.4-3.4-4.5l.3-.3zm50.1-23.7h-9V388h-1.6v-21.3h10.6v1.7zm32.4 23.9c0 .4-1 1-2 1h-.4v-3h-7.5v2.8c0 .1-.3.9-2.4.9v-15.4h-7.3v20.6h19.9l1.9-2.6 3.6 2.7c-.3.6-.7.9-1.8.9h-23.6v2.5c0 .1-.3 1-2.4 1v-25.1h-5.8l-.2-.9h6V368l4 .4c-.1.6-.4.9-1.6 1v8.3h7.3v-10.4l4 .4c-.1.6-.4.9-1.6 1v9.1h7.5v-9.9l4 .4c-.1.6-.4.9-1.6 1v8.5h1.9l1.8-2.5 3.3 2.6c-.3.6-.7.8-1.8.8h-5.2v13.6zm-10-2.9h7.5v-10.8h-7.5v10.8zm47.6-5.8h-6.8c3 3.7 8.7 6.3 13.9 7.5v.4c-1 .2-1.8 1-2 2.3-3-1.1-5.9-2.8-8.3-4.8v13.8s-.4.9-2.4.9v-15.9l1.2.1c-1.3-1.3-2.4-2.7-3.2-4.3h-5.1c-1 1.5-2.3 3-3.7 4.3l2.3.2c-.1.5-.3.8-1.3.9v3.3c-.1 4.4-1.7 9.1-10.8 11.5l-.4-.6c7.3-2.6 8.8-6.9 8.8-11v-3.1c-2.8 2.1-6.2 3.8-9.9 5.1l-.4-.8c5.2-2.3 9.6-5.8 12.3-9.9h-5v.7s-.3.9-2.4.9v-17.2l2.7 1.3h20.4l1.2-1.6 3.3 2.5c-.3.3-.9.6-1.6.8V384c0 .1-.7.8-2.4.8v-1.2zm-11.8-13.3h-9.2v5.6h9.2v-5.6zm0 12.4v-5.8h-9.2v5.8h9.2zm11.8-12.4h-9.5v5.6h9.5v-5.6zm-9.4 12.4h9.5v-5.8h-9.5v5.8zm49.1 8.2l1.2-1.5 2.9 2.4c-.2.3-.7.5-1.4.6-.4 4.7-1.1 7.6-2.5 8.6-.9.6-2 .9-3.5.9 0-1.6-.4-1.8-3.4-2.3v-.6c1.1 0 3.4.1 4.2.1.6 0 .9 0 1.2-.2.7-.6 1.2-3 1.6-6.9h-11.6v11.1c0 .2-.8.8-2 .8h-.4V393c-3.9 4.3-9.6 7.7-16 9.9l-.4-.7c5.5-2.5 10.6-6.4 13.9-10.4h-8c-.2.8-.4 1.5-.6 2.2-.3.2-.7.3-1.1.3-.4 0-.8-.1-1.4-.3 1-3.4 2.2-8.2 2.8-10.9l2.7 1.3h8.2v-5.7h-13l-.3-.9h25.2l1.1-1.5 3.1 2.3c-.2.3-.8.6-1.4.7v7c0 .1-.7.8-2.4.8v-1.8h-9.9v5.5h11.2zm-21.2-18.6c1.9 1.1 2.5 2.3 2.5 3.2 0 .9-.6 1.5-1.2 1.5-.3 0-.7-.2-1-.5-.2-1.3-.9-3-1.7-4.2h-2c-1.4 2.3-3 4.2-4.7 5.5l-.6-.4c1.8-2.3 3.7-6.3 4.9-10.4l3.4 1.3c-.2.4-.5.6-1.3.6l-1.2 2.4h7l1.5-2.1 2.9 2.2c-.3.6-.7.8-1.7.8h-6.8zm-1.5 13.1c-.3 1.5-.8 3.5-1.3 5.5h10.3v-5.5h-9zm24.3-16.3l3.1 2.4c-.3.6-.7.8-1.8.8h-8.4c2.1 1 2.8 2.3 2.8 3.3 0 .9-.6 1.5-1.3 1.5-.3 0-.7-.2-1-.5-.3-1.4-1.3-3.2-2.4-4.4h-3c-1.6 2.1-3.4 3.7-5.2 4.8l-.5-.5c2.1-2 4.4-5.7 5.9-9.7l3.4 1.6c-.2.4-.4.5-.9.5h-.5c-.4.8-.9 1.5-1.5 2.3h9.5l1.8-2.1zm-12.9 9.7v5.7h9.9v-5.7h-9.9zm19.4 18.8h28.5l2.1-2.9 4 3c-.3.6-.7.9-1.9.9h-32.5l-.2-1zm3.4-23.9h21.6l2.1-2.8 3.9 2.9c-.3.6-.7.9-1.8.9h-25.5l-.3-1zm65.3-4.2l3.6 2.6c-.3.6-.7.8-1.8.8h-32.5l-.3-.9h16v-5l4.2.4c-.1.6-.5.9-1.8 1.1v3.6h10.7l1.9-2.6zm-2.5 17.3l1.2-1.6 3.2 2.5c-.2.3-.9.7-1.6.8v11.8c0 1.9-.3 3.1-3.8 3.5 0-1.9-1.2-2.2-3.6-2.4v-.6h4.3c.6 0 .7-.1.7-.6v-12.4h-23.4v15.1s-.3.9-2.4.9v-18.2l2.7 1.3h22.7zm-2.9-2.5c0 .2-1.3.8-2.1.8h-.4v-1.6h-12v.9s-.4.9-2.4.9v-10.2l2.6 1.2h11.4l1.2-1.5 3.3 2.4c-.3.3-.9.6-1.6.8v6.3zm-3.4 5.2l3 2.3c-.2.3-.8.6-1.4.7v6.6c0 .1-.7.9-2.4.9v-1.6h-8.6v1.8s-.4.8-2.3.8v-11.2l2.5 1.1h8.1l1.1-1.4zm-11.1-7h12v-5.3h-12v5.3zm1.7 14.9h8.6v-5.5h-8.6v5.5zm26.1 5h9v-19.6h1.6v21.3h-10.6v-1.7zm-328.9 38l3.2 2.5c-.3.3-.9.6-1.6.8V466c0 .1-.7.9-2.3.9v-3h-7.8v3.6s-.2.9-2.3.9v-27.7L76 442h1.5c.5-1.9 1.1-4.9 1.5-7l4 .8c-.1.6-.5.8-1.4.8-.7 1.6-1.9 3.8-2.8 5.4h4.5l1.1-1.6zm-.8 2.6h-7.8v9.1h7.8V443zm-7.8 19.9h7.8V453h-7.8v9.9zm27.9-22.6l3.1 2.7c-.3.4-.8.6-1.6.7-.3 14.8-.8 24.2-2.6 26.1-1.1 1.1-2.1 1.7-4.4 1.7 0-1.7-.4-2.1-4.4-2.7v-.7c1.7.1 4.2.2 5.4.2.8 0 1-.1 1.5-.5 1.4-1.5 1.8-10.8 2.1-24.7H92.6c-1.5 3.9-3.4 7.4-5.5 9.9l-.6-.4c2.3-4 4.5-11.1 5.7-17.9l3.9 1.1c-.1.5-.4.7-1.3.8-.5 1.9-1.1 3.8-1.8 5.6h9.3l1.4-1.9zm-12.4 10.2c5.3 2.4 7 5.3 7 7.2 0 1.1-.6 1.8-1.3 1.8-.3 0-.7-.2-1.1-.5-.5-2.7-2.8-6.2-5-8.2l.4-.3zm18 20.2c15.1-9.9 14.9-22.9 15-34.9l4.2.4c-.1.5-.3.8-1.6.9.9 12 4.5 23.9 17.1 31.8l-.1.4c-1.3.1-2.2.6-2.7 2.1-9.8-7.3-13.2-17.8-14.5-28.4-.6 10-3 20.6-16.9 28.3l-.5-.6zm68.5-6.4l3.6 2.7c-.3.6-.7.8-1.8.8H147l-.3-1h16v-25.4h-13.1l-.3-.9h24.1l1.9-2.6 3.6 2.7c-.3.6-.7.8-1.8.8h-12v25.4h10.8l1.9-2.5zm14.1-19.2v5.5c3.8 1.8 5 3.9 5 5.3 0 .9-.5 1.5-1.1 1.5-.3 0-.6-.2-1-.5-.4-1.7-1.7-4-2.9-5.5v19.1c0 .2-.4.9-2.4.9v-18.6c-1.3 3.5-3.1 6.7-5.4 9.5l-.6-.6c2.8-4.7 4.6-10.6 5.5-16.6h-4.9l-.3-.9h5.6v-9.4l4 .4c0 .6-.4.9-1.6 1v8h1.2l1.6-2.3 3 2.4c-.3.6-.7.8-1.7.8h-4zm24.9 15.2l2.5 2.2c-.3.6-.7.8-1.7.8h-2.2v4.4c0 2-.5 3.4-3.7 3.7 0-2-1-2.3-3.8-2.5v-.6h4.5c.6 0 .7-.1.7-.6v-4.4h-12.9v7.2s-.3.9-2.3.9v-8.1h-3.4l-.2-1h3.6v-11l2.5 1.2h5V449h-9.7l-.3-.9h6v-3.6H198l-.3-.9h3.7v-3.5h-4.8l-.2-1h5v-4.5l4 .4c0 .6-.4.9-1.7 1.1v3h5.7v-4.5l4 .4c0 .6-.5.9-1.7 1.1v3h1.9l1.5-2.1 3 2.2c-.3.6-.7.8-1.7.8h-4.6v3.5h1.2l1.4-2 2.8 2.1c-.3.6-.7.8-1.7.8h-3.7v3.6h2.8l1.5-2.1 2.9 2.2c-.3.6-.7.8-1.7.8h-9.5v3.5h5.1l1.1-1.5 3.1 2.4c-.2.3-.8.6-1.6.8v8.1h.2l1.1-1.9zm-11.4-6.7h-5.2v3.8h5.2v-3.8zm-5.2 4.7v4.1h5.2v-4.1h-5.2zm3.5-18.2v3.5h5.7v-3.5h-5.7zm0 8.1h5.7v-3.6h-5.7v3.6zm9.4 5.4h-5.5v3.8h5.5v-3.8zm-5.5 8.7h5.5v-4.1h-5.5v4.1zm23.7-9.7c-.3.3-.8.6-1.8.8v10.8c2.6 3.2 5.5 3.6 12 3.6 4.4 0 10.4 0 14.9-.2v.6c-1.1.2-1.7.9-1.9 2.1h-13c-6.8 0-9.9-.9-12.5-5.5-1.6 1.8-4 4.2-5.5 5.5.1.5-.1.8-.4.9l-1.8-3.3c1.5-.7 3.8-1.9 5.9-3.2v-12h-5.6l-.2-1h5.3l1.5-2 3.1 2.9zm-8.6-16.7c5.3 1.7 6.9 4.4 6.9 6.2 0 1-.6 1.7-1.3 1.7-.3 0-.7-.2-1.1-.5-.6-2.4-2.8-5.4-4.8-7.1l.3-.3zm19.8 12.8v-6.8h-5.2c-1.1 2.3-2.4 4.3-3.8 5.7l-.6-.4c1.6-2.7 3-7.3 3.7-11.9l3.8 1.1c-.1.4-.4.7-1.3.7-.4 1.3-.9 2.6-1.4 3.8h4.7v-6.3l4.2.4c-.1.6-.5.9-1.8 1.1v4.8h4.6l1.7-2.4 3.3 2.5c-.3.6-.7.8-1.8.8h-7.9v6.8h6.2l1.7-2.4 3.3 2.5c-.3.6-.7.8-1.8.8h-23l-.2-.9h11.6zm9.9 16.1c0 .3-1.2.9-2.1.9h-.3v-2.1h-12.3v1.4c0 .1-.4.9-2.4.9v-13.6l2.6 1.2h11.8l1.1-1.5 3.1 2.4c-.2.3-.8.6-1.5.8v9.6zm-14.7-2.1H250v-8.2h-12.3v8.2zm29.9-8.2c1.9-.4 3.9-.9 6-1.3l.1.6c-1.7.7-3.7 1.5-6.1 2.5v14c0 .1-.3 1-2.4 1v-14.2c-1.4.6-2.9 1.1-4.5 1.7-.1.5-.5.9-.9.9l-1.3-3.5c1.4-.2 3.8-.6 6.7-1.2v-9.9h-3.5c-.6 2.5-1.3 4.9-2.2 6.6l-.7-.3c1-3.5 1.6-9.4 1.8-14.6l3.6.6c-.1.5-.3.8-1.2.8-.3 1.9-.6 4-1 5.9h3.3v-9.5l4 .4c-.1.6-.4.9-1.6 1v8.2h1.2l1.6-2.4 3.1 2.5c-.3.6-.8.8-1.8.8h-4.1v9.4zm23-13.1l3 2.6c-.3.3-.8.6-1.6.6-.3 14.2-1.1 23.2-2.9 25.1-1.1 1.1-2.1 1.6-4.3 1.6 0-1.5-.1-2-4.3-2.5v-.7c1.6.1 4.1.2 5.2.2.8 0 1-.1 1.5-.5 1.5-1.5 2.1-10.4 2.5-23.7h-2.2c-1.7 10-5.2 19.8-12.6 26.5l-.4-.6c5.8-6.6 9-16.3 10.3-25.8h-2.7c-1.8 7.1-5.2 14.3-10.8 19.1l-.3-.6c4.3-4.8 7.3-11.8 8.6-18.5h-2.8c-1.5 3.5-3.2 6.5-5.3 8.6l-.6-.4c2.5-3.8 4.7-10.7 5.7-17.7l3.9 1c-.1.5-.4.7-1.3.8-.6 2.3-1.2 4.6-2.1 6.7h12.2l1.3-1.8zm11 18.4c3 0 5.4 2.6 5.4 5.7s-2.4 5.7-5.4 5.7c-3 0-5.4-2.6-5.4-5.7 0-3.2 2.5-5.7 5.4-5.7zm4.2 5.7c0-2.5-1.9-4.5-4.2-4.5-2.4 0-4.3 2-4.3 4.5s1.9 4.5 4.3 4.5 4.2-2.1 4.2-4.5z"/><g fill="#828282"><ellipse cx="351.5" cy="415.6" rx="4.3" ry="4.4"/><ellipse cx="314.7" cy="415.6" rx="4.3" ry="4.4"/><ellipse cx="278" cy="415.6" rx="4.3" ry="4.4"/><ellipse cx="241.2" cy="415.6" rx="4.3" ry="4.4"/></g><path d="M392 140h36m-36 135h36m-109 0h68M73 343h68m6 0h110" fill="none" stroke="#2D2D2D" stroke-width="2" stroke-miterlimit="10"/><path d="M136.6 35.5c.1-.1.2-.1.3-.1.1 0 .2-.1.2-.1s.1 0 .1-.1c.4-.3.8-.5 1.3-.7.4-.2.8-.5 1.2-.6.1 0 .1-.1.2-.1.1-.1.3-.2.5-.3H131v-.6c0-1.4.1-1.9.1-2.3.1-.3.3-.6.3-.8 0-.2-.2-.4-.6-.4-1.4-.1-2.7-.2-4-.2.2 1 .3 2 .3 3.6v.7h-8.9c-3.4 0-4.5-.1-4.7-.1-.4 0-.4 0-.4.4v3.1c0 .4 0 .4.4.4h19.9l.6-.3c.5-.4 1.1-.8 1.8-1 .2-.2.5-.4.8-.5zm2.8 430.4c-.4-.2-.8-.4-1.1-.6h-.1c-.4-.1-.7-.3-.9-.4l-.2-.2c-.4-.2-.7-.4-1-.6-.4-.1-.7-.3-1-.5-.8-.2-1.4-.6-1.9-1.1 2.1 3.3 4.7 6.3 8.2 8.9.4-1.5 1.3-2 2.7-2.1l.1-.4c-1.1-.7-2.1-1.4-3.1-2.2-.7-.2-1.3-.4-1.7-.8zm-17.6-10.1c-2 5.3-5.7 10.4-12.5 14.8l.5.7c7.5-4.1 11.6-9.1 14-14.3-.4-.2-.8-.4-1.1-.7-.4-.1-.7-.3-.9-.5zm-24.7 3.7c.7 0 1.3-.7 1.3-1.8 0-1.9-1.6-4.8-7-7.2l-.3.4c2.1 2 4.5 5.5 5 8.2.2.3.6.4 1 .4zm7.1-16.2c-.3-.1-.5-.3-.8-.5-.4-.2-.8-.5-1.1-.9H93c.7-1.8 1.3-3.7 1.8-5.6.2 0 .4 0 .6-.1l-.6-.3c-.6-.4-1-.7-1.3-1.1l-1.1-.3c-1.2 6.8-3.4 13.8-5.7 17.9l.6.4c2.1-2.5 4-6 5.5-9.9h10.1c-.3 13.9-.7 23.2-2.1 24.7-.4.4-.7.5-1.5.5-1.2 0-3.7-.1-5.4-.2v.7c4 .6 4.4 1 4.4 2.7 2.3 0 3.3-.6 4.4-1.7 1.8-1.9 2.3-11 2.6-25.5-.5-.1-.8-.4-1.1-.8zm-19.8-2.9l-1.2 1.6h-4.5c.9-1.6 2.1-3.8 2.8-5.4.9 0 1.3-.2 1.4-.8l-4-.8c-.4 2.1-1 5.1-1.5 7H76l-2.5-1.3v27.7c2.1 0 2.3-.9 2.3-.9v-3.6h7.8v3c1.6 0 2.3-.8 2.3-.9v-22.3c.7-.2 1.4-.5 1.6-.8l-3.1-2.5zm-.8 22.5h-7.8V453h7.8v9.9zm0-10.9h-7.8v-9h7.8v9zM375.9 28.6V43c.6.2 1.2.5 1.6 1V30.3h9v-1.7h-10.6zM413 52.5h7.4v2.1c1.8 0 2.5-.9 2.5-1V41.5c.7-.2 1.3-.5 1.6-.8l-3.3-2.5-1.2 1.6h-8.2v-4.4h14.3c1.1 0 1.5-.3 1.8-.9l-3.7-2.7-1.9 2.7h-10.5v-4.2c1.2-.1 1.5-.4 1.6-.9l-4.1-.4v5.6h-16l.3.9h15.7v4.4h-8l-2.7-1.3v16.3c2.1 0 2.5-.9 2.5-.9v-1.4h5.9c-1.8 2.6-4.3 5-7.1 7.2.5.3.9.7 1.2 1.2 3.2-2 6-4.5 8.2-7.2v11.8c2.1 0 2.5-.8 2.5-1V52.5h.1c3.1 5.6 8.6 9.9 14.3 12.1.3-1.2 1.2-2.1 2.2-2.2V62c-5.5-1.5-12-5-15.4-9.5zm-3.6-.9h-8.3v-5h8.3v5zm0-6h-8.3v-4.9h8.3v4.9zm2.5-4.8h8.5v4.9h-8.5v-4.9zm0 10.8v-5h8.5v5h-8.5zm-294.2-4.5c.6-.5 1.2-.9 2-1.2-.7.3.6-.4.7-.4.4-.2.8-.5 1.1-.8h.1v-1h1.2c.2-.2.4-.4.6-.5 1.6-1.3 3.3-2.3 5.1-3.1h-5.4c-3.6 0-4.9-.1-5.1-.1-.4 0-.4 0-.4.4 0 .3.1 1.1.1 3.2v3.5zM99.3 60.6c.5-.7 1.2-1.3 2-1.7-2.9-1.3-5.6-2.9-7.8-5h3.1c3.7 0 5 .1 5.2.1.4 0 .4 0 .4-.4 0-.2-.1-1.3-.1-3.7v-6.5c0-2.5.1-3.5.1-3.7 0-.4 0-.5-.4-.5-.2 0-1.5.1-5.2.1h-5.8v-2.4H101c3.3 0 4.4.1 4.6.1.3 0 .4 0 .4-.4v-2.8c0-.4 0-.4-.4-.4-.2 0-1.3.1-4.6.1H90.8c0-1.4 0-2.1.2-2.6.1-.3.2-.5.2-.9 0-.2-.2-.4-.6-.4-1.3-.2-2.7-.2-4-.3.2 1.4.3 2.4.3 4.1h-9.5c-3.3 0-4.4-.1-4.6-.1-.4 0-.4 0-.4.4v2.8c0 .4 0 .4.4.4.2 0 1.3-.1 4.6-.1h9.5v2.4h-5.1c-3.7 0-5-.1-5.2-.1-.4 0-.4 0-.4.5 0 .2.1 1.3.1 3.7v6.5c0 2.5-.1 3.4-.1 3.7 0 .4 0 .4.4.4.2 0 1.5-.1 5.2-.1h2.4c-3.4 3.5-7.7 5.8-12.8 7.4.6.7 1.1 1.4 1.6 2.5.3.7.4.9.7.9.2 0 .5-.1.9-.3 4.8-1.9 9.1-4.8 12.4-8.7 0 4.8-.3 8.6-.3 9.2 0 .4 0 .4.4.4h3.4c.4 0 .4 0 .4-.4 0-.6-.2-4.5-.3-9.4 2.1 2.5 4.7 4.4 7.4 6.1.4-.3.8-.6 1.3-.9zm-12.4-9.7h-6.8v-2.8h6.8v2.8zm0-5.8h-6.8v-2.8h6.8v2.8zm3.9-2.8h7.6v2.8h-7.6v-2.8zm0 8.6v-2.8h7.6v2.8h-7.6z" fill="#E0E0E0" stroke="#fff" stroke-width=".25" stroke-miterlimit="10"/><g opacity=".9"><path d="M391.6 283.8c0 .1 0 .3.1.2v-.3l-.1.1zm.7.5c.1-.2.2-.5 0-.8-.1.3-.1.2-.2.6-.1.1-.2-.1-.2-.2 0 .1-.1-.1-.2.2.1.2.3.2.4 0 .2.1.2.2.2.2zm7.9-4.7c-.1.1-.1.1 0 0zm1.7-5.7c0 .1 0 .1 0 0zm.3-1.1c0 .1 0 .1 0 0 0 .1 0 .1 0 0zm-2 6.8l.2-.1c-.1 0-.2.1-.2.1zm-6.8 3.7s0 .1-.1.1l.1-.1zm5.4-1.4v.2-.2zm-1.6 1.4s-.1-.3-.2-.4v.2l.2.2zm-3.1 1zm5.7-3.5s0 .1 0 0c0 .1 0 0 0 0zm-10.2 2.3zm2.1 1.4v.2zm10.5-13.7c0 .1 0 0 0 0zm-14.7-7.8c.3.2-.2.4.2.6-.1-.2.1-.6-.2-.6zm5.9 20.3s.1 0 0 0zm-5.7-19.8zm12.2 3.3s0 .1-.1.1c.1 0 .1-.1.1-.1zm1.3 3.1c0-.1 0 0 0 0zm-2.8-4.1c0-.1 0-.1 0 0-.1-.1-.1-.1 0 0 0-.1 0-.1 0 0zm-1.4-1.1zm-11.5 16.9c0 .1-.1.2-.1.2.1-.2.3-.1.1-.2zm7.9 1.9v-.1.1zm3.5-16.1l-.1-.2s0 .1.1.2zm-15 4.8zm14.3-5.4v-.2h-.1l.1.2zm-10.8 15zm1.7.2c-.2-.1-.3.3-.4.4-.3 0 0-.3 0-.5-.2 0-.5.2-.6.2 0-.1 0-.1.1-.1-.3.2-.4-.3-.8-.1v-.1c-.1.2-.2.3-.3.4-.1-.1-.3.1-.2-.2 0 0 .1 0 .2-.1h-.2c.1-.3.2 0 .3-.2-.2 0-.6 0-.7-.1.2-.3.4.1.4-.2l.1.3c.2-.5.1.1.3-.4-.2-.3-.4-.1-.6-.4-.2.1-.2.2-.3.3-.6-.1.3-.9-.2-.8-.2.1-.6.4-.6 0l.3-.2c-.2-.3-.5.2-.6-.2.2-.1.3.1.3 0 .1-.4-.3 0-.4-.1l.2-.2c-.2-.2-.7-.4-.9-.7.1 0 .2 0 .3-.2-.2-.2-.3-.4-.4-.6 0-.2-.1-.5-.1-.7h-.3s.1-.1.2-.1c0-.2-.2.1-.3 0-.1-.1.1-.2.2-.2-.3-.2-.8-.7-.6-1.1h.1c.1-.3-.7-.2-.4-.4h.1c0-.6-.3-1.2.1-1.6-.4-.1.2-.5-.4-.6.3-.3.4-.2.6-.6 0-.1-.3-.2-.4-.4h.3l-.3-.2h.4l-.1-.1-.2.1c-.1-.2.3-.5.5-.4l-.1-.5c.1 0 .1.1.2.2-.2-.3.3 0 .1-.3-.1 0-.2-.1-.2-.1.2-.1.3-.3.3-.5l.2.1c.2-.3.2-.7.4-1.1-.2.1-.5-.1-.4-.2l.3.1c-.1-.2-.2.1-.3-.2.1-.1.4.1.4.2v-.2c.1 0 .1.1.2.2-.1-.2.4-.1.2-.4h.1c.2-.3.3-.5.4-.8-.2-.2-.1-.2-.2-.5.2-.1.6-.2.8-.4 0-.3-.1-.2-.2-.4.2.2.4 0 .4.2.3-.3.3-.4.5-.8-.1-.1-.2-.1-.2-.1 0-.1.2 0 .3.1.2-.7 1.4 0 1.5-.7l.3-.4c.2 0 0 .2.2.3.2-.6.7-.2.9-.6.2.3.5.3.7.1.2-.1.5-.2.7 0v-.2c.1-.2.1.1.2.1 0-.1-.1-.1-.1-.2.8-.3 1.8.2 2.6.5.3.1.3-.9.7-.4l-.2.3c.3-.1.7 0 1 .1.3.1.6.3 1 .2-.1.1-.1.1-.2.1 0 .3.4.2.5.1.1.1-.1.2-.1.3 0 .2.4-.1.4.1 0 0-.1 0-.1.1.1-.1.3.2.4 0 .1.2.5.1.5.4.3-.2.2.4.5 0-.3.3.1.5.3.5-.1.1 0 .2-.2.3.1.1.3.2.4 0-.1.6.8.2.4.8.5.2.9.5 1.3.9-.4.2-.3-.4-.7-.1.4.2.8.3 1 .7 0 .1-.2 0-.3 0 .4.3.3.8.7 1h-.1c0 .1 0 .2.2.1l-.1-.1c.2-.2.7.1.8.1-.6.1 0 .4-.8.5.1 0 .2.1.3 0 0 .1-.1.1-.3.1.2.2.4.1.4.3h-.3c.2.1.4.2.4.4h-.1c.1.3.6.5.5 1-.4-.1-.1.2-.5.2l.1.2.2-.1c0 .2.3.4.2.5l-.2-.1.1.4.1-.2c.2.2.5 0 .4.2 0-.1 0 .2-.2.3.1.1.2.2.1.4-.1 0-.4-.1-.5 0 .3.1.1.5.4.6-.1-.1-.3-.1-.3-.1l.2.1c-.1.1-.1.1-.3.1-.1.3.5 0 .2.3 0 0-.1 0-.1-.1-.2.3.1.7-.2.9-.4 0 0-.3-.4-.3 0 .4.2 1-.1 1.4l.1-.1c.5.2-.4.2-.2.5 0-.1-.2-.2-.2-.1-.2.2-.1.6-.2 1.1l-.1-.1c-.2.1-.3.3-.4.5.1.1 0 .2.2.3-.5 0-.6.3-.6.6-.1.3-.1.6-.5.5v-.1l-.2.4c.2.1.1.1.3.1.1.1.1.3 0 .4 0-.3-.3-.3-.4-.3.1 0 .1.1.1.2-.5-.1.3.4-.1.4l-.1-.1c0 .1 0 .3-.1.4-.2-.2 0-.2-.1-.4-.1.1.1.6-.2.5 0-.1.1-.2.1-.3-.3-.1-.3-.1-.4 0l-.3.1h.1c.2.7-.3.4-.3.9 0-.5-.1-.2-.2-.5-.1 0-.3-.1-.3-.1 0 .3-.3-.1-.3.4-.1-.1-.1.1-.2-.2-.1.2.1.1.2.2-.1.4-.7-.1-.9.5-.2.3-.2.6-.5.9-.2-.1 0-.4 0-.4-.2-.1-.3 0-.5.1 0-.1 0-.2-.1-.2-.1.1 0 .4-.2.3v-.4c-.1.1-.2.3-.4.5-.1-.2 0-.3.1-.4-.2.1-.4.3-.4.5l.1.1c-.1 0-.1-.2 0-.3.1-.2.2 0 .3.1l-.1.1c.2.5.4-.2.7-.2v.4l.1-.4c.1.1.2.3.1.4.2.1.1-.2.3 0v.1l.1-.2c0 .1.1.3 0 .2.4.1.4-.5.6-.2.4-.3-.1-.3.1-.8l.5.6-.1-.3s.1 0 .2.1c.1-.3-.1-.1-.1-.3.3.2.5-.4.7 0 0-.2-.3-.1-.1-.3.3.4.2-.2.5-.1.1.3-.1.2.2.3-.1-.4.4-.1.5-.3-.2-.3.2-.3.4-.6.1.1.5-.2.8-.3v.1c-.2-.3 0-.4.1-.6.2.2.2.2.2.4l.1-.1c-.1-.1-.1-.2 0-.3l.2.2c.2-.2.1-.6.5-.7-.2-.2-.7-.3-.6-.6.1.1.3.2.3.3 0 0 0-.2.1-.2l.1.3c.2-.1-.1-.2 0-.3.2.1.2 0 .3.1 0 0-.1 0-.1.1.1-.1.3-.1.5-.1-.1-.1-.2-.2-.2-.3.1-.2.2.1.4 0-.1-.1.1-.2-.1-.4 0-.1.2 0 .2 0 0-.2.3-.5-.1-.6 0-.5.6-.7.6-1.1h.1c0-.3.1-.5 0-.8 0-.1.2-.1.3 0 0-.2-.1-.3.1-.5.1.2.2 0 .1.2.1-.2.3-.2.1-.6.2.2.4-.1.3-.2l-.2.1c0-.1.1-.2.1-.4l.3.1c.5-.5-.5-1 .2-1.3-.2-.2-.2.3-.4.1.1-.2.6-.4.6-.5.2-.3-.5-.3-.3-.7-.1 0-.4.1-.6-.2 0-.2.5-.3.6-.1 0 .1 0 .1-.1.1 0 .1.1.2.2.1h-.1c.1-.1.1-.5.3-.4-.1-.2-.2-.1-.3.1.2-.3 0-.5.1-.8-.1.1-.2.1-.2.1.1-.5-.2-.2-.3-.5.2-.2.4 0 .2-.3.1-.2.3-.1.4 0-.3-.3 0-.6 0-.8l.1.1c-.1-.1-.1-.2-.1-.2l-.2.1c0-.1 0-.2.1-.2-.2-.1-.4.2-.6 0 .1-.1-.2-.3.1-.4 0 .4.3-.1.4.2-.1-.1-.1-.1 0-.2h.1c.2-.4-.4-.1-.5-.4.2 0 .3-.2.2-.2 0 .2-.3.2-.4.1.1-.3-.2-.2-.2-.3v.2c-.2 0-.2-.1-.3-.2.1-.1.1.1.2 0-.4 0 .1-.5-.2-.7.1-.2.3-.2.3-.3-.3-.2.1-.4-.3-.6-.2.2-.1.2-.4.1l.4.4-.5-.1c.1.1.3.2.3.3-.2-.1-.2-.1-.3.1.2-.3-.4-.2-.3-.6l.5-.3c0-.5-.6-.4-.7-.9v.2c-.2.1-.2-.2-.4-.3.2-.1.2-.2.2-.4-.1.1-.2-.3-.5-.1l.1-.3c-.2-.4-.7 0-.9-.2.2-.1.2-.3.5-.2-.1-.1-.1-.2-.2-.1 0-.1-.4 0-.4-.2-.1 0-.2.2-.3.1l.1-.1c-.1.1-.2 0-.3.2.1-.7-.8-.6-.8-1.2-.3-.1-.6-.2-.8-.3 0 0 .1-.1.1 0-.2-.3-.4.4-.7.1 0-.4.3-.1.2-.2.2-.6-.4-.1-.5-.6h.1c-.1-.3-.5.1-.8-.1v-.1c-.3.2-.7.2-1 .2.2-.2.2-.1.2-.4-.1 0-.1.4-.3.4 0-.2-.2-.3-.2-.6l.2.1c0-.4-.3-.1-.4-.2v-.1c-.4 0-.5.4-.9.3v.1c-.3.4-.2-.2-.4 0v-.4c-.2.1-.5.3-.8.4.2-.3.5-.4.7-.6-.2 0-.5 0-.6.2.1 0 .1-.1.2-.1-.2.3-.4.5-.7.5 0-.8-.8-.2-1-.7-.3.2-.5.2-.8.2-.3 0-.6 0-.9.1.4.5-.2.1 0 .6-.1.1-.2.1-.2.1l-.5-.2c-.2-.1.1-.2 0-.3-.3.1-.2-.2-.5-.3.1.2 0 .3-.2.3l.4.2c-.3.4-.6-.3-.9.2l.1-.2c-.2.2-.8.4-.8.9-.1 0-.2-.2-.1-.2-.6.2-.8 1.1-1.3 1.1l-.1-.1c-.1.1 0 .3-.2.3 0-.1-.1-.1-.1-.1 0 .1 0 .4-.2.4v-.2c-.6.2-.3.9-.6 1.3-.3-.3-.7-.1-.9 0-.5.5-.4 1.1-.5 1.7-.6.1-.8 1-1.2 1.4.1-.1.3.1.3.3-.1.1.2.5-.2.3-.4 0-.4.3-.5.5l.5.2c-.4.2-.5.6-.5.9 0 .4.1.7-.3.8.1.2.1.3.2.5h-.3c-.1.4-.2.6-.1 1.1l-.2-.1c0 .3.8.3.8.6l-.4.1c0 .5-.3 1 .2 1.4-.1 0-.2 0-.2-.1 0 .2-.1.9.4.7-.4.1.1.5.3.7h-.3c.4.1.5.1.7.3 0 .1-.2.1-.2 0-.1.3.3.1.3.4h-.2c.1.2.1.2.4.2.2.1.1.4-.1.6.2 0 .4 0 .4.1-.1.1-.2 0-.2 0 0 .5.6.4.4.7l-.1.1c-.2-.3-.3-.5-.2-.5-.2.1-.1.4-.6.4.3.1.8.2.8.5l-.1.1c0 .1.1.1.1.1 0 .1 0 .1.1.2-.2.1.1.3.1.4.2-.2.3 0 .4-.3l-.1-.1h-.1c-.1-.1-.1-.2-.2-.2.2 0 .3 0 .3.2.2 0 .4-.1.5-.1-.2.4-.2.8-.3 1 .4.2.7.7 1.2.4.1 0 0 .2 0 .3-.1 0-.1-.1-.2 0 .3.1.5.4.8.2.1.3-.3.2 0 .4l-.1.1c.1.5.5.5.9.5s.7 0 .9.5v-.2c.7.8 1.8.6 2.5 1.3.2.2.3 0 .5-.2v.3l.3-.3c.4-.2.5.9 1.1.4v-.2c.2.1.6-.1.5.2 0 0 .1-.2.1-.1v.2s.1-.1.2-.1c.1-.1.2-.1.2-.1.3.1-.1.6.5.6.2-.1.5-.5.4-.6-.1 0-.2-.1-.2-.3l.2-.1c0-.5.1-.9-.3-1.3l-.2.3-.1-.2h.2c-.1-.2-.2 0-.3.1 0-.1-.1-.2-.1-.2l-.2.5c0-.2.1-.4 0-.5-.1.2.1.4-.1.5-.1-.2-.1-.4-.2-.2 0-.1 0-.2.1-.2-.1.1-.3 0-.4.3-.1-.3-.4 0-.3-.4 0 .1-.3.3-.4.3.3-.5-.4-.1-.2-.6-.2.4-.6.1-.9.3l.1-.1c-.1-.1-.1-.2-.2-.3-.1.4-.4.4-.6.5 0-.4.3-.4.3-.8-.1.3-.4.2-.4.5 0-.3-.1-.1 0-.5-.2.4-.2 0-.4.3-.1-.3.2-.4-.1-.4 0-1.1.3-1.2.3-1.2zm-4.4-2.8s.1 0 0 0c.1 0 0 0 0 0zm-.2-.4c0 .1.1.1.1.2-.1.1-.2.1-.2.1 0-.1 0-.2.1-.3zm-1.1 1.9c-.1 0-.1-.1 0-.1l.1.1h-.1zm.4-.1zm18.3-.9zm-18.2-7h-.1.1zm15.8 8.5c-.1 0-.1 0 0 0-.1 0-.1 0 0 0zm-.9.7h-.2.2zm-.8.4s0 .1.1.1l-.1-.1zm3.5-11.7c-.1 0 0 0 0 0zm1.3 3.8l-.1-.1c0 .1-.1.1.1.1zm-3.9-7zm3.8 6.7c-.1.1 0 .1 0 .2v-.2zm-8.1 9.4zm0 0zm-.1.1c0-.1 0-.1 0 0zm1.2-.3v-.1.1zm.3-.1c-.1 0-.3-.1-.3 0v.1c0-.2.3.1.3-.1zm1.9.5l-.3.1c.1.1.2.2.1.3.5.1-.2-.2.2-.4zm1-.3c-.1.1.1.1.1.2 0-.2 0-.2-.1-.2zm4.3-5.6l.2.1c.1-.2 0-.1-.2-.1zm-.9-1.7l-.1.1.2.1zm2-.4l-.1-.2zm-4.9-11.1l-.1.3c.1 0 .3-.2.1-.3zm-5.1-1.6c0-.2-.2-.3-.3-.1.2 0 .3.1.3.1zm-12.6 7.9l-.1-.1.1.2z" fill="#2A9ED9"/><path d="M352.7 105.1c0 .1 0 .3.1.2v-.3l-.1.1zm.7.6c.1-.2.2-.5 0-.8-.1.3-.1.2-.2.6-.1.1-.2-.1-.2-.2 0 .1-.1-.1-.2.2.1.2.3.2.4 0 .2 0 .2.1.2.2zm7.9-4.7c-.1 0 0 0 0 0zm1.7-5.7s0-.1 0 0zm.3-1.1zm-2 6.8l.2-.1c-.1-.1-.2 0-.2.1zm-6.8 3.6s0 .1-.1.1c0 0 .1 0 .1-.1zm5.4-1.3v.2-.2zm-1.6 1.3s-.1-.3-.2-.4v.2c.1.1.1.2.2.2zm-3.1 1c0 .1 0 0 0 0zm5.7-3.4zm-10.2 2.2s0 .1 0 0c0 .1.1 0 0 0zm2.1 1.5v.2zm10.5-13.7zm-14.7-7.9c.3.2-.2.4.2.6-.1-.1.1-.5-.2-.6zm5.9 20.4s.1 0 0 0c.1 0 0 0 0 0zm-5.7-19.8zm12.2 3.2s0 .1-.1.1c.1 0 .1 0 .1-.1zm1.4 3.1c-.1 0-.1 0 0 0zm-2.9-4.1s0-.1 0 0c-.1-.1-.1-.1 0 0 0-.1 0-.1 0 0zm-1.4-1.1zm-11.5 16.9c0 .1-.1.2-.1.2.1-.1.3-.1.1-.2zm7.9 1.9v-.1.1zm3.5-16.1l-.1-.2c0 .1 0 .1.1.2zm-15 4.8c0 .1 0 .1 0 0zm14.3-5.4v-.2h-.1l.1.2zm-10.8 15zm1.7.3c-.2-.1-.3.3-.4.4-.3 0 0-.3 0-.5-.2 0-.5.2-.6.2 0-.1 0-.1.1-.1-.3.2-.4-.3-.8-.1v-.1c-.1.2-.2.3-.3.4-.1-.1-.3.1-.2-.2 0 0 .1 0 .2-.1h-.2c.1-.3.2 0 .3-.2-.2 0-.6 0-.7-.1.2-.3.4.1.4-.2l.1.3c.2-.5.1.1.3-.4-.2-.3-.4-.1-.6-.4-.2.1-.2.2-.3.3-.6-.1.3-.9-.2-.8-.2.1-.6.4-.6 0l.3-.2c-.2-.3-.5.2-.6-.2.2-.1.3.1.3 0 .1-.4-.3 0-.4-.1l.2-.2c-.2-.2-.7-.4-.9-.7.1 0 .2 0 .3-.2-.2-.2-.3-.4-.4-.6 0-.2-.1-.5-.1-.7h-.3s.1-.1.2-.1c0-.2-.2.1-.3 0-.1-.1.1-.2.2-.2-.3-.2-.8-.7-.6-1.1h.1c.1-.3-.7-.2-.4-.4h.1c0-.6-.3-1.2.1-1.6-.4-.1.2-.5-.4-.6.3-.3.4-.2.6-.6 0-.1-.3-.2-.4-.4h.3l-.3-.2h.4l-.1-.1-.2.1c-.1-.2.3-.5.5-.4l-.1-.5c.1 0 .1.1.2.2-.2-.3.3 0 .1-.3-.1 0-.2-.1-.2-.1.2-.1.3-.3.3-.5l.2.1c.2-.3.2-.7.4-1.1-.2.1-.5-.1-.4-.2l.3.1c-.1-.2-.2.1-.3-.2.1-.1.4.1.4.2v-.2c.1 0 .1.1.2.2-.1-.2.4-.1.2-.4h.1c.2-.3.3-.5.4-.8-.2-.2-.1-.2-.2-.5.2-.1.6-.2.8-.4 0-.3-.1-.2-.2-.4.2.2.4 0 .4.2.3-.3.3-.4.5-.8-.1-.1-.2-.1-.2-.1 0-.1.2 0 .3.1.2-.7 1.4 0 1.5-.7l.3-.4c.2 0 0 .2.2.3.2-.6.7-.2.9-.6.2.3.5.3.7.1.2-.1.5-.2.7 0v-.2c.1-.2.1.1.2.1 0-.1-.1-.1-.1-.2.8-.3 1.8.2 2.6.5.3.1.3-.9.7-.4l-.2.3c.3-.1.7 0 1 .1.3.1.6.3 1 .2-.1.1-.1.1-.2.1 0 .3.4.2.5.1.1.1-.1.2-.1.3 0 .2.4-.1.4.1 0 0-.1 0-.1.1.1-.1.3.2.4 0 .1.2.5.1.5.4.3-.2.2.4.5 0-.3.3.1.5.3.5-.1.1 0 .2-.2.3.1.1.3.2.4 0-.1.6.8.2.4.8.5.2.9.5 1.3.9-.4.2-.3-.4-.7-.1.4.2.8.3 1 .7 0 .1-.2 0-.3 0 .4.3.3.8.7 1h-.1c0 .1 0 .2.2.1l-.1-.1c.2-.2.7.1.8.1-.6.1 0 .4-.8.5.1 0 .2.1.3 0 0 .1-.1.1-.3.1.2.2.4.1.4.3h-.3c.2.1.4.2.4.4h-.1c.1.3.6.5.5 1-.4-.1-.1.2-.5.2l.1.2.2-.1c0 .2.3.4.2.5l-.2-.1.1.4.1-.2c.2.2.5 0 .4.2 0-.1 0 .2-.2.3.1.1.2.2.1.4-.1 0-.4-.1-.5 0 .3.1.1.5.4.6-.1-.1-.3-.1-.3-.1l.2.1c-.1.1-.1.1-.3.1-.1.3.5 0 .2.3 0 0-.1 0-.1-.1-.2.3.1.7-.2.9-.4 0 0-.3-.4-.3 0 .4.2 1-.1 1.4l.1-.1c.5.2-.4.2-.2.5 0-.1-.2-.2-.2-.1-.2.2-.1.6-.2 1.1l-.1-.1c-.2.1-.3.3-.4.5.1.1 0 .2.2.3-.5 0-.6.3-.6.6-.1.3-.1.6-.5.5v-.1l-.2.4c.2.1.1.1.3.1.1.1.1.3 0 .4 0-.3-.3-.3-.4-.3.1 0 .1.1.1.2-.5-.1.3.4-.1.4l-.1-.1c0 .1 0 .3-.1.4-.2-.2 0-.2-.1-.4-.1.1.1.6-.2.5 0-.1.1-.2.1-.3-.3-.1-.3-.1-.4 0l-.3.1h.1c.2.7-.3.4-.3.9 0-.5-.1-.2-.2-.5-.1 0-.3-.1-.3-.1 0 .3-.3-.1-.3.4-.1-.1-.1.1-.2-.2-.1.2.1.1.2.2-.1.4-.7-.1-.9.5-.2.3-.2.6-.5.9-.2-.1 0-.4 0-.4-.2-.1-.3 0-.5.1 0-.1 0-.2-.1-.2-.1.1 0 .4-.2.3v-.4c-.1.1-.2.3-.4.5-.1-.2 0-.3.1-.4-.2.1-.4.3-.4.5l.1.1c-.1 0-.1-.2 0-.3.1-.2.2 0 .3.1l-.1.1c.2.5.4-.2.7-.2v.4l.1-.4c.1.1.2.3.1.4.2.1.1-.2.3 0v.1l.1-.2c0 .1.1.3 0 .2.4.1.4-.5.6-.2.4-.3-.1-.3.1-.8l.5.6-.1-.3s.1 0 .2.1c.1-.3-.1-.1-.1-.3.3.2.5-.4.7 0 0-.2-.3-.1-.1-.3.3.4.2-.2.5-.1.1.3-.1.2.2.3-.1-.4.4-.1.5-.3-.2-.3.2-.3.4-.6.1.1.5-.2.8-.3v.1c-.2-.3 0-.4.1-.6.2.2.2.2.2.4l.1-.1c-.1-.1-.1-.2 0-.3l.2.2c.2-.2.1-.6.5-.7-.2-.2-.7-.3-.6-.6.1.1.3.2.3.3 0 0 0-.2.1-.2l.1.3c.2-.1-.1-.2 0-.3.2.1.2 0 .3.1 0 0-.1 0-.1.1.1-.1.3-.1.5-.1-.1-.1-.2-.2-.2-.3.1-.2.2.1.4 0-.1-.1.1-.2-.1-.4 0-.1.2 0 .2 0 0-.2.3-.5-.1-.6 0-.5.6-.7.6-1.1h.1c0-.3.1-.5 0-.8 0-.1.2-.1.3 0 0-.2-.1-.3.1-.5.1.2.2 0 .1.2.1-.2.3-.2.1-.6.2.2.4-.1.3-.2l-.2.1c0-.1.1-.2.1-.4l.3.1c.5-.5-.5-1 .2-1.3-.2-.2-.2.3-.4.1.1-.2.6-.4.6-.5.2-.3-.5-.3-.3-.7-.1 0-.4.1-.6-.2 0-.2.5-.3.6-.1 0 .1 0 .1-.1.1 0 .1.1.2.2.1h-.1c.1-.1.1-.5.3-.4-.1-.2-.2-.1-.3.1.2-.3 0-.5.1-.8-.1.1-.2.1-.2.1.1-.5-.2-.2-.3-.5.2-.2.4 0 .2-.3.1-.2.3-.1.4 0-.3-.3 0-.6 0-.8l.1.1c-.1-.1-.1-.2-.1-.2l-.2.1c0-.1 0-.2.1-.2-.2-.1-.4.2-.6 0 .1-.1-.2-.3.1-.4 0 .4.3-.1.4.2-.1-.1-.1-.1 0-.2h.1c.2-.4-.4-.1-.5-.4.2 0 .3-.2.2-.2 0 .2-.3.2-.4.1.1-.3-.2-.2-.2-.3v.2c-.2 0-.2-.1-.3-.2.1-.1.1.1.2 0-.4 0 .1-.5-.2-.7.1-.2.3-.2.3-.3-.3-.2.1-.4-.3-.6-.2.2-.1.2-.4.1l.4.4-.5-.1c.1.1.3.2.3.3-.2-.1-.2-.1-.3.1.2-.3-.4-.2-.3-.6l.5-.3c0-.5-.6-.4-.7-.9v.2c-.2.1-.2-.2-.4-.3.2-.1.2-.2.2-.4-.1.1-.2-.3-.5-.1l.1-.3c-.2-.4-.7 0-.9-.2.2-.1.2-.3.5-.2-.1-.1-.1-.2-.2-.1 0-.1-.4 0-.4-.2-.1 0-.2.2-.3.1l.1-.1c-.1.1-.2 0-.3.2.1-.7-.8-.6-.8-1.2-.3-.1-.6-.2-.8-.3 0 0 .1-.1.1 0-.2-.3-.4.4-.7.1 0-.4.3-.1.2-.2.2-.6-.4-.1-.5-.6h.1c-.1-.3-.5.1-.8-.1v-.1c-.3.2-.7.2-1 .2.2-.2.2-.1.2-.4-.1 0-.1.4-.3.4 0-.2-.2-.3-.2-.6l.2.1c0-.4-.3-.1-.4-.2v-.1c-.4 0-.5.4-.9.3v.1c-.3.4-.2-.2-.4 0v-.4c-.2.1-.5.3-.8.4.2-.3.5-.4.7-.6-.2 0-.5 0-.6.2.1 0 .1-.1.2-.1-.2.3-.4.5-.7.5 0-.8-.8-.2-1-.7-.3.2-.5.2-.8.2-.3 0-.6 0-.9.1.4.5-.2.1 0 .6-.1.1-.2.1-.2.1l-.5-.2c-.2-.1.1-.2 0-.3-.3.1-.2-.2-.5-.3.1.2 0 .3-.2.3l.4.2c-.3.4-.6-.3-.9.2l.1-.2c-.2.2-.8.4-.8.9-.1 0-.2-.2-.1-.2-.6.2-.8 1.1-1.3 1.1l-.1-.1c-.1.1 0 .3-.2.3 0-.1-.1-.1-.1-.1 0 .1 0 .4-.2.4v-.2c-.6.2-.3.9-.6 1.3-.3-.3-.7-.1-.9 0-.5.5-.4 1.1-.5 1.7-.6.1-.8 1-1.2 1.4.1-.1.3.1.3.3-.1.1.2.5-.2.3-.4 0-.4.3-.5.5l.5.2c-.4.2-.5.6-.5.9 0 .4.1.7-.3.8.1.2.1.3.2.5h-.3c-.1.4-.2.6-.1 1.1l-.2-.1c0 .3.8.3.8.6l-.4.1c0 .5-.3 1 .2 1.4-.1 0-.2 0-.2-.1 0 .2-.1.9.4.7-.4.1.1.5.3.7h-.3c.4.1.5.1.7.3 0 .1-.2.1-.2 0-.1.3.3.1.3.4h-.2c.1.2.1.2.4.2.2.1.1.4-.1.6.2 0 .4 0 .4.1-.1.1-.2 0-.2 0 0 .5.6.4.4.7l-.1.1c-.2-.3-.3-.5-.2-.5-.2.1-.1.4-.6.4.3.1.8.2.8.5l-.1.1c0 .1.1.1.1.1 0 .1 0 .1.1.2-.2.1.1.3.1.4.2-.2.3 0 .4-.3l-.1-.1h-.1c-.1-.1-.1-.2-.2-.2.2 0 .3 0 .3.2.2 0 .4-.1.5-.1-.2.4-.2.8-.3 1 .4.2.7.7 1.2.4.1 0 0 .2 0 .3-.1 0-.1-.1-.2 0 .3.1.5.4.8.2.1.3-.3.2 0 .4l-.1.1c.1.5.5.5.9.5s.7 0 .9.5v-.2c.7.8 1.8.6 2.5 1.3.2.2.3 0 .5-.2v.3l.3-.3c.4-.2.5.9 1.1.4v-.2c.2.1.6-.1.5.2 0 0 .1-.2.1-.1v.2s.1-.1.2-.1c.1-.1.2-.1.2-.1.3.1-.1.6.5.6.2-.1.5-.5.4-.6-.1 0-.2-.1-.2-.3l.2-.1c0-.5.1-.9-.3-1.3l-.2.3-.1-.2h.2c-.1-.2-.2 0-.3.1 0-.1-.1-.2-.1-.2l-.2.5c0-.2.1-.4 0-.5-.1.2.1.4-.1.5-.1-.2-.1-.4-.2-.2 0-.1 0-.2.1-.2-.1.1-.3 0-.4.3-.1-.3-.4 0-.3-.4 0 .1-.3.3-.4.3.3-.5-.4-.1-.2-.6-.2.4-.6.1-.9.3l.1-.1c-.1-.1-.1-.2-.2-.3-.1.4-.4.4-.6.5 0-.4.3-.4.3-.8-.1.3-.4.2-.4.4 0-.3-.1-.1 0-.5-.2.4-.2 0-.4.3-.1-.3.2-.4-.1-.4 0-1.1.3-1.1.3-1.1zm-4.4-2.9c.1 0 .1.1 0 0 .1.1.1 0 0 0zm-.2-.4c0 .1.1.1.1.2-.1.1-.2.1-.2.1.1-.1 0-.2.1-.3zm-1.1 1.9c-.1 0-.1-.1 0-.1l.1.1h-.1zm.4-.1zm18.3-.9zM343 94h-.1l.1.1zm15.8 8.5s-.1 0 0 0c-.1 0-.1 0 0 0zm-.9.7h-.2.2zm-.8.4s0 .1.1.1l-.1-.1zm3.5-11.6c-.1-.1 0-.1 0 0zm1.3 3.8l-.1-.1s-.1.1.1.1zm-3.9-7.1zm3.8 6.7c-.1.1 0 .1 0 .2v-.2zm-8.1 9.4zm0 0c0 .1 0 .1 0 0zm-.1.2c0-.1 0-.1 0 0zm1.2-.4v-.1.1zm.3-.1c-.1 0-.3-.1-.3 0v.1c0-.2.3.1.3-.1zm1.9.6l-.3.1c.1.1.2.2.1.3.5 0-.2-.3.2-.4zm1-.4c-.1.1.1.1.1.2 0-.2 0-.2-.1-.2zm4.3-5.6l.2.1c.1-.2 0 0-.2-.1zm-.9-1.6l-.1.1.2.1zm2-.5v.1l-.1-.3zm-4.9-11l-.1.3c.1 0 .3-.3.1-.3zm-5.1-1.7c0-.2-.2-.3-.3-.1.2 0 .3.1.3.1zm-12.6 7.9l-.1-.1.1.2z" fill="#D44028"/><path d="M150.8 209.8c0 .1 0 .3.1.2v-.3l-.1.1zm.7.5c.1-.2.2-.5 0-.8-.1.3-.1.2-.2.6-.1.1-.2-.1-.2-.2 0 .1-.1-.1-.2.2.1.2.3.2.4 0 .2.1.2.2.2.2zm7.8-4.7c0 .1 0 .1 0 0zm1.7-5.7c0 .1.1.1 0 0 .1.1 0 0 0 0zm.3-1zm-2 6.7l.2-.1c-.1 0-.1.1-.2.1zm-6.8 3.7s0 .1-.1.1c.1 0 .1 0 .1-.1zm5.4-1.4v.2-.2zm-1.6 1.4s-.1-.3-.2-.4v.2c.1.1.2.1.2.2zm-3.1 1zm5.7-3.5c0 .1.1.1 0 0 .1.1 0 0 0 0zm-10.1 2.3zm2.1 1.5h-.1v.1zm10.4-13.8c0 .1 0 .1 0 0zm-14.6-7.8c.3.2-.2.4.2.6-.1-.2.1-.6-.2-.6zm5.9 20.3zm-5.8-19.8c.1.1.1 0 0 0zm12.3 3.3s0 .1-.1.1l.1-.1zm1.3 3.1zm-2.8-4.1c-.1-.1 0-.1 0 0-.1-.1-.1-.1 0 0-.1-.1 0-.1 0 0zm-1.4-1.1zm-11.5 16.9c0 .1-.1.2-.1.2.1-.2.3-.1.1-.2zm7.8 1.9v-.1.1zm3.5-16.1l-.1-.2c0 .1.1.1.1.2zm-15 4.8c0 .1 0 0 0 0zm14.3-5.4v-.2h-.1l.1.2zm-10.7 15zm1.6.2c-.2-.1-.3.3-.4.4-.3 0 0-.3 0-.5-.2 0-.5.2-.6.2 0-.1 0-.1.1-.1-.3.2-.4-.3-.8-.1v-.1c-.1.2-.2.3-.3.4-.1-.1-.3.1-.2-.2 0 0 .1 0 .2-.1h-.2c.1-.3.2 0 .3-.2-.2 0-.6 0-.7-.1.2-.3.4.1.4-.2l.1.3c.2-.5.1.1.3-.4-.2-.3-.4-.1-.6-.4-.2.1-.2.2-.3.3-.6-.1.3-.9-.2-.8-.2.1-.6.4-.6 0l.3-.2c-.2-.3-.5.2-.6-.2.2-.1.3.1.3 0 .1-.4-.3 0-.4-.1l.2-.2c-.2-.2-.7-.4-.9-.7.1 0 .2 0 .3-.2-.2-.2-.3-.4-.4-.6 0-.2-.1-.5-.1-.7h-.3s.1-.1.2-.1c0-.2-.2.1-.3 0-.1-.1.1-.2.2-.2-.3-.2-.8-.7-.6-1.1h.1c.1-.3-.7-.2-.4-.4h.1c0-.6-.3-1.2.1-1.6-.4-.1.2-.5-.4-.6.3-.3.4-.2.6-.6 0-.1-.3-.2-.4-.4h.3l-.3-.2h.4l-.1-.1-.2.1c-.1-.2.3-.5.5-.4l-.1-.5c.1 0 .1.1.2.2-.2-.3.3 0 .1-.3-.1 0-.2-.1-.2-.1.2-.1.3-.3.3-.5l.2.1c.2-.3.2-.7.4-1.1-.2.1-.5-.1-.4-.2l.3.1c-.1-.2-.2.1-.3-.2.1-.1.4.1.4.2v-.2c.1 0 .1.1.2.2-.1-.2.4-.1.2-.4h.1c.2-.3.3-.5.4-.8-.2-.2-.1-.2-.2-.5.2-.1.6-.2.8-.4 0-.3-.1-.2-.2-.4.2.2.4 0 .4.2.3-.3.3-.4.5-.8-.1-.1-.2-.1-.2-.1 0-.1.2 0 .3.1.2-.7 1.4 0 1.5-.7l.3-.4c.2 0 0 .2.2.3.2-.6.7-.2.9-.6.2.3.5.3.7.1.2-.1.5-.2.7 0v-.2c.1-.2.1.1.2.1 0-.1-.1-.1-.1-.2.8-.3 1.8.2 2.6.5.3.1.3-.9.7-.4l-.2.3c.3-.1.7 0 1 .1.3.1.6.3 1 .2-.1.1-.1.1-.2.1 0 .3.4.2.5.1.1.1-.1.2-.1.3 0 .2.4-.1.4.1 0 0-.1 0-.1.1.1-.1.3.2.4 0 .1.2.5.1.5.4.3-.2.2.4.5 0-.3.3.1.5.3.5-.1.1 0 .2-.2.3.1.1.3.2.4 0-.1.6.8.2.4.8.5.2.9.5 1.3.9-.4.2-.3-.4-.7-.1.4.2.8.3 1 .7 0 .1-.2 0-.3 0 .4.3.3.8.7 1h-.1c0 .1 0 .2.2.1l-.1-.1c.2-.2.7.1.8.1-.6.1 0 .4-.8.5.1 0 .2.1.3 0 0 .1-.1.1-.3.1.2.2.4.1.4.3h-.3c.2.1.4.2.4.4h-.1c.1.3.6.5.5 1-.4-.1-.1.2-.5.2l.1.2.2-.1c0 .2.3.4.2.5l-.2-.1.1.4.1-.2c.2.2.5 0 .4.2 0-.1 0 .2-.2.3.1.1.2.2.1.4-.1 0-.4-.1-.5 0 .3.1.1.5.4.6-.1-.1-.3-.1-.3-.1l.2.1c-.1.1-.1.1-.3.1-.1.3.5 0 .2.3 0 0-.1 0-.1-.1-.2.3.1.7-.2.9-.4 0 0-.3-.4-.3 0 .4.2 1-.1 1.4l.1-.1c.5.2-.4.2-.2.5 0-.1-.2-.2-.2-.1-.2.2-.1.6-.2 1.1l-.1-.1c-.2.1-.3.3-.4.5.1.1 0 .2.2.3-.5 0-.6.3-.6.6-.1.3-.1.6-.5.5v-.1l-.2.4c.2.1.1.1.3.1.1.1.1.3 0 .4 0-.3-.3-.3-.4-.3.1 0 .1.1.1.2-.5-.1.3.4-.1.4l-.1-.1c0 .1 0 .3-.1.4-.2-.2 0-.2-.1-.4-.1.1.1.6-.2.5 0-.1.1-.2.1-.3-.3-.1-.3-.1-.4 0l-.3.1h.1c.2.7-.3.4-.3.9 0-.5-.1-.2-.2-.5-.1 0-.3-.1-.3-.1 0 .3-.3-.1-.3.4-.1-.1-.1.1-.2-.2-.1.2.1.1.2.2-.1.4-.7-.1-.9.5-.2.3-.2.6-.5.9-.2-.1 0-.4 0-.4-.2-.1-.3 0-.5.1 0-.1 0-.2-.1-.2-.1.1 0 .4-.2.3v-.4c-.1.1-.2.3-.4.5-.1-.2 0-.3.1-.4-.2.1-.4.3-.4.5l.1.1c-.1 0-.1-.2 0-.3.1-.2.2 0 .3.1l.3-.4c.2.5.4-.2.7-.2v.4l.1-.4c.1.1.2.3.1.4.2.1.1-.2.3 0v.1l.1-.2c0 .1.1.3 0 .2.4.1.4-.5.6-.2.4-.3-.1-.3.1-.8l.5.6-.1-.3s.1 0 .2.1c.1-.3-.1-.1-.1-.3.3.2.5-.4.7 0 0-.2-.3-.1-.1-.3.3.4.2-.2.5-.1.1.3-.1.2.2.3-.1-.4.4-.1.5-.3-.2-.3.2-.3.4-.6.1.1.5-.2.8-.3v.1c-.2-.3 0-.4.1-.6.2.2.2.2.2.4l.1-.1c-.1-.1-.1-.2 0-.3l.2.2c.2-.2.1-.6.5-.7-.2-.2-.7-.3-.6-.6.1.1.3.2.3.3 0 0 0-.2.1-.2l.1.3c.2-.1-.1-.2 0-.3.2.1.2 0 .3.1 0 0-.1 0-.1.1.1-.1.3-.1.5-.1-.1-.1-.2-.2-.2-.3.1-.2.2.1.4 0-.1-.1.1-.2-.1-.4 0-.1.2 0 .2 0 0-.2.3-.5-.1-.6 0-.5.6-.7.6-1.1h.1c0-.3.1-.5 0-.8 0-.1.2-.1.3 0 0-.2-.1-.3.1-.5.1.2.2 0 .1.2.1-.2.3-.2.1-.6.2.2.4-.1.3-.2l-.2.1c0-.1.1-.2.1-.4l.3.1c.5-.5-.5-1 .2-1.3-.2-.2-.2.3-.4.1.1-.2.6-.4.6-.5.2-.3-.5-.3-.3-.7-.1 0-.4.1-.6-.2 0-.2.5-.3.6-.1 0 .1 0 .1-.1.1 0 .1.1.2.2.1h-.1c.1-.1.1-.5.3-.4-.1-.2-.2-.1-.3.1.2-.3 0-.5.1-.8-.1.1-.2.1-.2.1.1-.5-.2-.2-.3-.5.2-.2.4 0 .2-.3.1-.2.3-.1.4 0-.3-.3 0-.6 0-.8l.1.1c-.1-.1-.1-.2-.1-.2l-.2.1c0-.1 0-.2.1-.2-.2-.1-.4.2-.6 0 .1-.1-.2-.3.1-.4 0 .4.3-.1.4.2-.1-.1-.1-.1 0-.2h.1c.2-.4-.4-.1-.5-.4.2 0 .3-.2.2-.2 0 .2-.3.2-.4.1.1-.3-.2-.2-.2-.3v.2c-.2 0-.2-.1-.3-.2.1-.1.1.1.2 0-.4 0 .1-.5-.2-.7.1-.2.3-.2.3-.3-.3-.2.1-.4-.3-.6-.2.2-.1.2-.4.1l.4.4-.5-.1c.1.1.3.2.3.3-.2-.1-.2-.1-.3.1.2-.3-.4-.2-.3-.6l.5-.3c0-.5-.6-.4-.7-.9v.2c-.2.1-.2-.2-.4-.3.2-.1.2-.2.2-.4-.1.1-.2-.3-.5-.1l.1-.3c-.2-.4-.7 0-.9-.2.2-.1.2-.3.5-.2-.1-.1-.1-.2-.2-.1 0-.1-.4 0-.4-.2-.1 0-.2.2-.3.1l.1-.1c-.1.1-.2 0-.3.2.1-.7-.8-.6-.8-1.2-.3-.1-.6-.2-.8-.3 0 0 .1-.1.1 0-.2-.3-.4.4-.7.1 0-.4.3-.1.2-.2.2-.6-.4-.1-.5-.6h.1c-.1-.3-.5.1-.8-.1v-.1c-.3.2-.7.2-1 .2.2-.2.2-.1.2-.4-.1 0-.1.4-.3.4 0-.2-.2-.3-.2-.6l.2.1c0-.4-.3-.1-.4-.2v-.1c-.4 0-.5.4-.9.3v.1c-.3.4-.2-.2-.4 0v-.4c-.2.1-.5.3-.8.4.2-.3.5-.4.7-.6-.2 0-.5 0-.6.2.1 0 .1-.1.2-.1-.2.3-.4.5-.7.5 0-.8-.8-.2-1-.7-.3.2-.5.2-.8.2-.3 0-.6 0-.9.1.4.5-.2.1 0 .6-.1.1-.2.1-.2.1l-.5-.2c-.2-.1.1-.2 0-.3-.3.1-.2-.2-.5-.3.1.2 0 .3-.2.3l.4.2c-.3.4-.6-.3-.9.2l.1-.2c-.2.2-.8.4-.8.9-.1 0-.2-.2-.1-.2-.6.2-.8 1.1-1.3 1.1l-.1-.1c-.1.1 0 .3-.2.3 0-.1-.1-.1-.1-.1 0 .1 0 .4-.2.4v-.2c-.6.2-.3.9-.6 1.3-.3-.3-.7-.1-.9 0-.5.5-.4 1.1-.5 1.7-.6.1-.8 1-1.2 1.4.1-.1.3.1.3.3-.1.1.2.5-.2.3-.4 0-.4.3-.5.5l.5.2c-.4.2-.5.6-.5.9 0 .4.1.7-.3.8.1.2.1.3.2.5h-.3c-.1.4-.2.6-.1 1.1l-.2-.1c0 .3.8.3.8.6l-.4.1c0 .5-.3 1 .2 1.4-.1 0-.2 0-.2-.1 0 .2-.1.9.4.7-.4.1.1.5.3.7h-.3c.4.1.5.1.7.3 0 .1-.2.1-.2 0-.1.3.3.1.3.4h-.2c.1.2.1.2.4.2.2.1.1.4-.1.6.2 0 .4 0 .4.1-.1.1-.2 0-.2 0 0 .5.6.4.4.7l-.1.1c-.2-.3-.3-.5-.2-.5-.2.1-.1.4-.6.4.3.1.8.2.8.5l-.1.1c0 .1.1.1.1.1 0 .1 0 .1.1.2-.2.1.1.3.1.4.2-.2.3 0 .4-.3l-.1-.1h-.1c-.1-.1-.1-.2-.2-.2.2 0 .3 0 .3.2.2 0 .4-.1.5-.1-.2.4-.2.8-.3 1 .4.2.7.7 1.2.4.1 0 0 .2 0 .3-.1 0-.1-.1-.2 0 .3.1.5.4.8.2.1.3-.3.2 0 .4l-.1.1c.1.5.5.5.9.5s.7 0 .9.5v-.2c.7.8 1.8.6 2.5 1.3.2.2.3 0 .5-.2v.3l.3-.3c.4-.2.5.9 1.1.4v-.2c.2.1.6-.1.5.2 0 0 .1-.2.1-.1v.2s.1-.1.2-.1c.1-.1.2-.1.2-.1.3.1-.1.6.5.6.2-.1.5-.5.4-.6-.1 0-.2-.1-.2-.3l.2-.1c0-.5.1-.9-.3-1.3l-.2.3-.1-.2h.2c-.1-.2-.2 0-.3.1 0-.1-.1-.2-.1-.2l-.2.5c0-.2.1-.4 0-.5-.1.2.1.4-.1.5-.1-.2-.1-.4-.2-.2 0-.1 0-.2.1-.2-.1.1-.3 0-.4.3-.1-.3-.4 0-.3-.4 0 .1-.3.3-.4.3.3-.5-.4-.1-.2-.6-.2.4-.6.1-.9.3l.1-.1c-.1-.1-.1-.2-.2-.3-.1.4-.4.4-.6.5 0-.4.3-.4.3-.8-.1.3-.4.2-.4.4 0-.3-.1-.1 0-.5-.2.4-.2 0-.4.3-.1-.3.2-.4-.1-.4-.3-.5-.1-.6-.1-.6zm-4.3-2.8zm-.3-.4c0 .1.1.1.1.2-.1.1-.2.1-.2.1.1-.1.1-.2.1-.3zm-1.1 1.9c-.1 0-.1-.1 0-.1l.1.1h-.1zm.4-.1s.1 0 0 0c.1 0 .1 0 0 0zm18.3-.9zm-18.1-7h-.1v.1zm15.7 8.5zm-.9.7h-.2.2zm-.7.4s0 .1.1.1l-.1-.1zm3.5-11.7c-.1 0-.1 0 0 0zm1.2 3.8l-.1-.1c0 .1 0 .1.1.1zm-3.9-7zm3.8 6.7c-.1.1 0 .1 0 .2 0-.1.1-.1 0-.2zm-8 9.4c-.1 0-.1 0 0 0zm-.1 0zm-.1.1c.1 0 0 0 0 0zm1.3-.3v-.1.1zm.3-.1c-.1 0-.3-.1-.3 0v.1c0-.2.3.1.3-.1zm1.9.5l-.3.1c.1.1.2.2.1.3.5.1-.2-.2.2-.4zm.9-.3c-.1.1.1.1.1.2.1-.2.1-.2-.1-.2zm4.4-5.6l.2.1c0-.2-.1-.1-.2-.1zm-.9-1.7l-.2.1.2.1zm1.9-.4v.1-.3zm-4.8-11l-.1.3c0-.1.2-.3.1-.3zm-5.1-1.7c0-.2-.2-.3-.3-.1.1 0 .2.1.3.1zm-12.6 7.9l-.1-.1v.2z" fill="#5DCB64"/></g><ellipse opacity=".15" fill="#BABABA" cx="250" cy="250" rx="235.1" ry="237.1"/><ellipse opacity=".8" fill="none" stroke="#BFBFBF" stroke-width="12" stroke-miterlimit="10" cx="250" cy="250" rx="235.1" ry="237.1"/></svg>