<svg xmlns="http://www.w3.org/2000/svg" viewBox="0 0 500 500" enable-background="new 0 0 500 500"><g><path fill="#424242" d="M199.8 320.1c-14.1 0-18.9.3-19.8.3-1.4 0-1.6-.2-1.6-1.8v-10.1c0-1.6.2-1.8 1.6-1.8 1 0 5.8.3 19.8.3h20.8c-1.6-3.8-3.2-7.2-5.1-10.4-8.2.2-11.7.3-12.5.3-1.6 0-1.8-.2-1.8-1.8 0-1 .3-3 .3-8.3v-8c0-5.6-.3-7.4-.3-8.3 0-1.6.2-1.8 1.8-1.8 1.1 0 6.6.3 21.8.3h50.4c15.4 0 20.8-.3 21.9-.3 1.6 0 1.8.2 1.8 1.8 0 1-.3 2.7-.3 8.3v8c0 5.3.3 7.4.3 8.3 0 1.6-.2 1.8-1.8 1.8-.8 0-4.2-.2-11.7-.3l-.5 1c-1.6 3-3.5 6.4-5.4 9.4h21.4c14.1 0 18.7-.3 19.7-.3 1.4 0 1.6.2 1.6 1.8v10.1c0 1.6-.2 1.8-1.6 1.8-1 0-5.6-.3-19.7-.3H199.8zm2.8-57.3c-14.6 0-19.4.3-20.3.3-1.8 0-1.9-.2-1.9-1.8v-9.9c0-1.6.2-1.8 1.9-1.8 1 0 5.8.3 20.3.3H298c14.6 0 19.4-.3 20.3-.3 1.6 0 1.8.2 1.8 1.8v9.9c0 1.6-.2 1.8-1.8 1.8-1 0-5.8-.3-20.3-.3h-95.4zm2.1-73.4c0-1.6.2-1.8 1.9-1.8.8 0 2.9.3 9.6.3-.2-3.2-.3-5.9-.8-9.6 4.6.3 7.4.5 11.5 1 1.4.2 2.4.6 2.4 1.6s-.5 1.4-.8 2.4c-.5 1-.8 2.2-1 4.6 6.9 0 9-.3 9.9-.3 1.6 0 1.8.2 1.8 1.8v6.1c0 1.6-.2 1.8-1.8 1.8-1 0-3-.3-9.9-.3v5.8c6.9 0 9-.3 9.9-.3 1.6 0 1.8.2 1.8 1.8v6.1c0 1.6-.2 1.8-1.8 1.8-1 0-3-.3-9.9-.3v5.9c6.9 0 9-.3 9.9-.3 1.6 0 1.8.2 1.8 1.8v6.1c0 1.6-.2 1.8-1.8 1.8-1 0-3-.3-9.9-.3v6.1h15.2v-39.8c0-6.2 0-10.1-.8-14.7 5.6.3 9.6.5 13.8 1 1.6.2 2.2.6 2.2 1.6s-.3 1.4-.8 2.4c-.5 1.1-1 3-1 9.6v40h15.5V227c-7.2 0-9.1.3-10.1.3-1.8 0-1.9-.2-1.9-1.8V219c0-1.6.2-1.8 1.9-1.8 1 0 2.9.3 10.1.3v-5.9c-7.2 0-9.1.3-10.1.3-1.8 0-1.9-.2-1.9-1.8V204c0-1.6.2-1.8 1.9-1.8 1 0 2.9.3 10.1.3v-5.8c-7.2 0-9.1.3-10.1.3-1.8 0-1.9-.2-1.9-1.8v-6.1c0-1.6.2-1.8 1.9-1.8 1 0 2.9.3 10.1.3-.2-3.2-.3-5.9-.8-9.6 4.5.3 7.2.5 11.5 1 1.4.2 2.4.6 2.4 1.6s-.5 1.4-.8 2.4c-.5 1-.8 2.2-1 4.6 6.9 0 9.1-.3 10.1-.3 1.6 0 1.8.2 1.8 1.8v6.1c0 1.6-.2 1.8-1.8 1.8-1 0-3.2-.3-10.1-.3v5.8c6.9 0 9.1-.3 10.1-.3 1.6 0 1.8.2 1.8 1.8v6.1c0 1.6-.2 1.8-1.8 1.8-1 0-3.2-.3-10.1-.3v5.9c6.9 0 9.1-.3 10.1-.3 1.6 0 1.8.2 1.8 1.8v6.1c0 1.6-.2 1.8-1.8 1.8-1 0-3.2-.3-10.1-.3v6.1h15.5v-33c0-8.8-.3-14.1-1.3-20 5.9.2 9.6.5 14.4 1.1 1.6.2 2.6.8 2.6 1.8 0 1.3-.5 2.1-1 3-.8 1.6-1 4.5-1 14.1v24.8c0 11 .3 16.5.3 17.3 0 1.8-.2 1.9-1.9 1.9-1 0-6.2-.3-21.6-.3h-78.6c-15.5 0-20.8.3-21.8.3-1.8 0-1.9-.2-1.9-1.9 0-.8.3-6.2.3-17.3V200c0-9.4-.2-13.8-1.3-20.2 5.1.2 8.8.5 14.4 1.1 1.6.2 2.6 1 2.6 1.8 0 1.4-.5 2.2-1 3.4-.8 1.9-1 5-1 13.9v32.6h15.2v-6.1c-6.7 0-8.8.3-9.6.3-1.8 0-1.9-.2-1.9-1.8v-6c0-1.6.2-1.8 1.9-1.8.8 0 2.9.3 9.6.3v-5.9c-6.7 0-8.8.3-9.6.3-1.8 0-1.9-.2-1.9-1.8V204c0-1.6.2-1.8 1.9-1.8.8 0 2.9.3 9.6.3v-5.8c-6.7 0-8.8.3-9.6.3-1.8 0-1.9-.2-1.9-1.8v-5.8zm77.5 90.2h-64.3v7h64.3v-7zm-49.3 17.2c1.8 3.2 3.4 6.7 5 10.4h24.5c2.1-3.5 4.2-6.9 5.8-10.4h-35.3z"/><path fill="#1D7ECE" d="M262.9 409.7c0 7.2-5.9 13.1-13.1 13.1s-13.1-5.9-13.1-13.1 5.9-13.1 13.1-13.1 13.1 5.9 13.1 13.1z"/><path fill="#2D2D2D" d="M350.6 432.3c2.2.8 2.2 1 2.2 2.7-.5 12.8-2.1 25.4-5.6 36-.6 1.8-1.6 1.8-2.9 1l-5.6-3.7c-1.9-1-1.9-1.4-1.3-3 3.2-9.6 5-20.5 5.8-33.4.2-1.9.5-1.8 2.6-1.1l4.8 1.5zm12.5-8c-10.9 0-15 .3-16.8.3-1.6 0-1.8-.2-1.8-1.9 0-1 .3-6.9.3-19.5v-39.8c0-12.6-.3-18.6-.3-19.7 0-1.6.2-1.8 1.8-1.8 1.8 0 5.9.3 16.8.3h25.8c10.4 0 14.9-.3 15.8-.3 1.6 0 1.8.2 1.8 1.8v10.2c0 1.6-.2 1.8-1.8 1.8-1 0-5.4-.3-15.8-.3h-3v11c10.1 0 13.8-.3 14.7-.3 1.6 0 1.8.2 1.8 1.8v8.8c0 1.6-.2 1.8-1.8 1.8-1 0-4.6-.2-14.7-.3v10.7c9.9 0 13.8-.2 14.7-.2 1.6 0 1.8 0 1.8 1.6v9c0 1.6-.2 1.8-1.8 1.8-1 0-4.6-.2-14.7-.3V412h2.9c10.1 0 13.1-.3 14.1-.3 1.4 0 1.9.3 1.8 2.1l-.5 10.6c-.6 22.9-1.9 34.7-4.2 42.2 6.9-10.7 10.9-23.4 12.8-38.2 1.8-13 2.1-29.1 2.1-56.8 0-16.5-.3-24-.3-25 0-1.6.2-1.8 1.9-1.8 1 0 5.1.3 17.9.3h23.4c12.6 0 17-.3 17.9-.3 1.8 0 1.9.2 1.9 1.8 0 1-.3 5.6-.3 16v30.1c0 10.6.3 14.7.3 15.8 0 1.6-.2 1.8-1.9 1.8h-12.2c-1.6 0-1.8-.3-1.8-1.9v-3H456c2.2 26.6 11 47.2 29.6 64-2.9 2.1-6.4 5.8-9.4 9.4-1.4 2.1-2.2 3-3 3s-1.6-.8-3.2-2.6c-18.4-19.4-25.8-43.5-28.5-73.9H430c-.3 11.2-1.1 20.2-2.2 29.1-2.1 15.4-7 31.4-15.2 44.8-1.3 1.9-1.9 2.9-2.7 2.9s-1.8-1-3.4-2.6c-2.9-3.2-5.9-5.8-8.6-7.5-3.2 5.9-8.8 8.8-15.5 8.8-2.1 0-4.8 0-6.9-.2-2.6-.3-2.6-.3-3.5-5.3-.6-4.5-1.8-7.7-3.2-10.7 4.8.6 8.5 1 11.8 1 3.4 0 5.1-1.3 6.6-4.2 1.8-4 3.2-13.4 3.5-37.1h-27.6zm-2 7.7c1.9-.3 2.2-.3 2.4 1.3 1.1 9 2.2 18.4 2.6 28.3 0 1.6-.2 1.8-1.9 2.4l-5 1.8c-1.9.6-2.2.6-2.2-1.1 0-10.9-.6-20.3-1.8-29.4-.3-1.8 0-1.9 1.9-2.4l4-.9zm10.9-65.6v-11h-13.1v11H372zm0 22.4v-10.7h-13.1v10.7H372zm0 23.2v-11.4h-13.1V412H372zm-.5 18.7c1.6-.6 1.9-.5 2.2 1.1 1.6 7 2.7 14.4 3.7 22.9.2 1.4 0 1.9-1.9 2.7l-3.4 1.4c-1.8.8-2.1.8-2.2-1-.6-8.5-1.8-17-3.4-23.8-.3-1.6-.2-1.6 1.6-2.2l3.4-1.1zm9.5-1.8c1.4-.5 1.6-.3 2.1 1 1.8 4.8 3.2 10.2 4.3 16.8.2 1.3.2 1.6-1.3 2.4l-3.4 1.8c-1.6.8-1.9.5-2.1-.8-1.1-7.2-2.2-13-4-18.1-.5-1.4-.3-1.6 1.3-2.1l3.1-1zm49.4-68.8v14.1c0 6.1 0 11.4-.2 16.3h31.4v-30.4h-31.2z"/><path fill="#4FC14C" d="M238.2 113.8c7.2-5 15.4-13 15.4-23.5-1.8 1-3.4 1.6-5.3 1.6-7 0-11.5-5.1-11.5-10.6 0-6.2 3.8-11.5 11.5-11.5 6.2 0 13.8 4 13.8 16 0 12.8-9 22.9-21.4 31.4l-2.5-3.4z"/><path fill="#331D08" d="M70 156.9c-2.6-.5-3.7-2.6-4.5-7.7-1.1-7.2-2.1-10.4-4.8-14.4-.5-.6-.2-1.3.6-1.1 12.6 3.8 18.6 8.8 18.6 15.4 0 4-2.7 7-6.6 7.8h25.3c1.8-4.3 3.4-9 4.5-13.4 1-3.5 1.6-7 2.1-10.1 13.9 4.3 17.4 5.9 17.4 8.3 0 1.9-1.8 2.9-5.9 3.4-5.1 5.3-8 8-13 11.8h31c8.6-10.1 10.6-11.4 11.7-11.4 1.4 0 3.2 1.3 11.5 7.8 3.8 3.2 5.1 4.5 5.1 5.6 0 1.1-.5 1.6-2.1 1.6H33.8c-4.5 0-8.8.3-14.7 1l-1.8-5.9c6.7 1 11.7 1.3 16.8 1.3H70zm66.1-63.8c7.2-8.6 9.1-9.9 10.2-9.9 1.4 0 3.2 1.3 10.4 6.9 3.2 2.7 4.5 4 4.5 5.1s-.5 1.6-2.1 1.6H32.7c-3.5 0-7 .3-11.7 1l-1.8-5.9c5.3 1 9.1 1.3 13.1 1.3h103.8zM65.7 33.8c0-5.9 0-9.9-.6-15 16.8 1.6 18.2 3.2 18.2 4.8 0 1.4-1.4 2.9-4.3 4.3v8.2h18.7v-2.2c0-5.9-.2-9.9-.6-15 16.8 1.6 18.2 3.2 18.2 4.8 0 1.4-1.4 2.9-4.3 4.3v8.2h17.9c5.4-6.2 6.7-7.2 8-7.2 1.6 0 3 1 8.8 5.6 2.7 2.2 3.7 3.4 3.7 4.6 0 1.4-.8 2.4-4.3 4.6v5.9c0 15.4.6 25.9.6 29.4 0 4-3 5.9-9 5.9-3.8 0-5.8-1.4-5.9-4.2H47.6c0 4.2-2.6 5.8-8.3 5.8-4.5 0-6.4-1.3-6.4-5.1 0-4.8.5-9.6.5-29.1 0-8.2-.2-16.3-.8-24.5 7.8 3.4 9 3.8 16.3 8.2h16.8v-2.3zm-10.3 99.1v.3c0 4.5-2.6 5.9-9 5.9-4.6 0-5.9-1-5.9-5.4 0-3.2.3-6.4.3-19.2 0-4.6-.2-9.3-.5-13.9 8 2.9 9.3 3.5 16.8 7.7h65c5.1-5.3 6.4-6.2 7.7-6.2 1.6 0 2.9 1 8.2 5.4 2.4 2.2 3.4 3.4 3.4 4.6 0 1.4-.5 1.9-3.7 4.2v2.7c0 6.9.3 11.7.3 13.1 0 4.5-2.4 5.9-9 5.9-4.3 0-5.8-1.3-5.8-4.8v-.3H55.4zm-7.8-93.1V56h18.1V39.8H47.6zm18.1 19.8H47.6v17.6h18.1V59.6zm57.6 52.3H55.4v17.3h67.8v-17.3zM79 39.8V56h18.7V39.8H79zm18.7 37.4V59.6H79v17.6h18.7zM111 55.9h19.8V39.8H111v16.1zm19.8 21.3V59.6H111v17.6h19.8z"/><path fill="#EA2D7A" d="M218.3 143.9c0 11-8.8 20-19.8 20s-20-9-20-20 9-19.8 20-19.8 19.8 8.8 19.8 19.8zm-34.5 0c0 8.3 6.4 14.7 14.7 14.7 8.2 0 14.6-6.4 14.6-14.7 0-8.2-6.4-14.6-14.6-14.6-8.3.1-14.7 6.5-14.7 14.6z"/><path d="M418.6 99.2c15.6-1.9 25.7-3.3 30.2-4.2 4.6-.9 9.2-1.3 13.8-1.3 4.6 0 8.2 1.1 10.7 3.2 2.6 2.1 3.8 4 3.8 5.5s-1.9 2.3-5.6 2.3c-1.6 0-4.4-.3-8.4-1-4-.6-9.2-1-15.5-1-6.3 0-16 .5-29 1.6 0 12.4-.1 21.3-.3 26.8-.2 5.5-.7 10.9-1.5 16.3s-1.6 8.9-2.3 10.5c-.7 1.6-1.4 2.4-1.9 2.4-2 0-3-7.4-3-22.1 0-4.8.2-10.7.5-17.7s.5-12.1.5-15.4c-12.9 1.3-27.2 3.7-42.9 7.4-3.1.6-5.8 1-8.2 1-2.4 0-4.8-.9-7.2-2.6-2.4-1.8-3.6-3-3.6-3.8 0-.7.8-1.1 2.4-1.1l4.3.2c5.5 0 23.9-2 55.2-5.9.1-3.4.2-8.6.2-15.5-8 1.4-13.6 2.1-16.7 2.1-3.1 0-5.6-.4-7.4-1.1-1.8-.7-2.6-1.4-2.6-1.9s1.1-.9 3.4-1c2.2-.2 10-1.6 23.4-4.4v-15c-7.7 1.3-14.2 1.9-19.5 1.9-5.3 0-9.1-.6-11.3-1.8-2.2-1.2-3.3-2.1-3.3-2.8 0-.7 1.7-1.1 5.1-1.2 7.8-.4 17.4-1.6 28.8-3.5-.2-8.9-.6-15.2-1.2-19-.6-3.8-1.5-6.6-2.7-8.6-1.2-1.9-1.8-3.5-1.8-4.6 0-1.2.9-1.8 2.6-1.8 1.7 0 4.6.9 8.6 2.6 4.1 1.7 6.1 3.7 6.1 6.1 0 .7-.2 1.7-.6 2.9-1.7 3.8-2.6 10.9-2.7 21.1 7.6-1.5 13-2.7 16.4-3.8 3.4-1 6.3-1.5 8.9-1.5 2.6 0 4.8.5 6.7 1.6 1.9 1.1 2.9 2 2.9 2.9 0 1.6-2.9 2.8-8.6 3.5-5.7.7-14.5 2.2-26.5 4.5v14.7l10.9-2.4c1.9-.5 3.8-.8 5.7-.8 1.9 0 3.8.5 5.9 1.4 2.1.9 3.1 1.8 3.1 2.6 0 1.4-2.2 2.4-6.7 3l-18.9 2.9-.2 15.8zM30.9 425.9c.2 3.1.3 6 .3 8.6 0 7.4-.8 12.7-2.4 15.9-1.6 3.3-2.8 4.9-3.5 4.9-.3 0-.6-.4-.8-1.1l-2.2-7.8c3.9-2.9 6.1-9.7 6.6-20.5h2zm86.1 18.7c17.1-1.1 28-2.6 32.8-4.5l5 4.8c.5.5.8 1 .8 1.3 0 .3-.5.5-1.6.6l-37 2.1v13.8c0 13.2-.5 19.8-1.4 19.8-.3 0-.7-.5-1.3-1.4l-5.8-10.7c1.3-2.1 2.1-4.3 2.6-6.5.4-2.2.6-5.5.6-9.8v-4.6c-10.9.6-19.8 1.8-26.9 3.5l-6.1-5.8 33-2.1v-11.5c-9.2.9-16.5 1.9-21.9 3.2l-6.1-4.8 20.2-1.8-6.2-18.4c-5 .4-9.5 1.2-13.4 2.4-2.8-2.6-4.2-3.8-4.3-3.8-1.7.9-2.8 3.6-3.4 8.3-3.2 26.1-6.5 42.3-9.8 48.5-3.4 6.2-5.5 9.3-6.3 9.3-.3 0-.7-.4-1.1-1.3-3-6-7.3-13.1-12.8-21.4l1.6-1.3 12 12.6c6.5-9.4 10.2-26.9 11.2-52.6l-31.8 3c-.3 4.4-.7 6.6-1.2 6.6s-1-.4-1.5-1.1l-4.5-6.9c1.5-1.7 2.2-6.9 2.2-15.5v-37.1c0-9.2-.3-15.9-1-20.2l2.1-.3 4.6 12.8c18.1-2.2 28.9-4.5 32.3-6.7l5.8 4.5c.5.4.8.8.8 1.1s-.5.5-1.6.6L59 355.6V370c5.8-.9 9.7-1.9 11.8-3.2l4.3 3.7c.4.4.6.8.6 1 0 .3-.5.5-1.4.6L59 374v15.4c5.5-1 9.5-2.1 11.8-3.5l4.5 4c.4.3.6.6.6 1s-.4.5-1.1.6L59 393.4v16l12-1.3 3.7-5.3 5.9 5.9 31.8-2.6v-11c-9.3 1.1-15.9 2.1-19.8 3l-5.3-5 25.1-2.4c0-6.5-.3-11.7-.8-15.5l-19.8 2.1c.1 2.3.1 4.4-.1 6.2-.2 1.8-.4 2.6-.8 2.6-.4-.1-.8-.5-1.4-1.2l-4.2-5.9c1.2-1.7 1.7-4.4 1.6-8l-.5-15.2c-.1-6-.7-11-1.9-15.2l1.9-.6 3.8 9.6 48.5-4.6 4.5-5.6 5.1 6.4c.5.6.8 1.2.8 1.6 0 .4-.4 1-1.3 1.6-1.9 1.5-3.2 3.7-3.8 6.7l-2.2 10.7 3.7 3.7c.6.6 1 1.1 1 1.4 0 .3-.6.5-1.9.6l-29.9 3 3.8 5.1c.3.4.5.8.5 1.2 0 .4-.2 1.1-.6 2.2-.4 1.1-.7 3.4-1 7 10.5-1.1 17.5-2.5 21.1-4.3l4.5 4.5c.4.4.6.8.6 1.1s-.6.5-1.8.6l-24.5 2.2v11.2c17.1-1.5 28.6-3.6 34.7-6.2l5.1 4.5c.9.6 1.3 1.1 1.3 1.5 0 .4-.6.6-1.9.7l-27 2.4 2.7 4.6c.3.6.5 1.2.5 1.6 0 .4-.3.9-1 1.4-1.9 1.4-4.7 5.4-8.3 12 7.7-.7 13.5-2 17.6-3.7l5 4.2c.6.5 1 .9 1 1.2 0 .3-.6.5-1.8.6l-28.3 2.4v11.5zm-72.7-5.3c-.7 2.3-1.6 4.2-2.6 5.7-1 1.4-1.7 2.2-2.1 2.2-.4 0-.7-.3-.8-.8l-3-19.5 1.6-.5 6.9 12.9zm9.6-83L39.5 358v14.7l14.4-2.1v-14.3zm-14.4 35.8l14.4-1.9v-15.7c-4.7.6-8.4 1.4-11 2.4l-3.4-2.6v17.8zm0 19.4l14.4-1.6V394c-3.9.5-7.7 1.3-11.2 2.4l-3.2-2.6v17.7zm14.6 24.8c-.3 1.6-.9 3.4-1.7 5.5-.8 2.1-1.4 3.1-1.8 3.1-.4 0-.7-.4-1-1.1l-5-18.4 1.6-.8 7.9 11.7zm10.9-3.6c-.3 2.5-.9 4.5-1.7 6.1-.8 1.6-1.4 2.4-1.8 2.4-.4 0-.7-.4-1-1.1l-6.1-16.8 1.3-1 9.3 10.4zm39.2-80.4l-13 1.1.6 20 12.3-1.3v-19.8zm16.1 76.4c3-6.9 5.1-13.5 6.2-19.7l-26.4 2.4 7.8 10.7c-.4 2.7-1.3 5.3-2.6 7.8l15-1.2zm.2-77.9l-11.5 1v19.8l9.4-1.1 2.1-19.7zm16.5 17.8l2.7-19.5-14.2 1.3-2.2 19.7 13.7-1.5z"/></g><g><g fill="#8C8C8C"><path d="M73.5 300.3c0 3.9 1.1 5.5 3.8 6.5l-2.1 6.2c-4.9-.7-8-3-9.5-7.2-3.6 4.8-8.7 7.2-15.3 7.2-10.3 0-16.7-6.2-16.7-15.9 0-10.6 8.6-16.6 24.2-16.6h6.6v-4c0-7.1-3.4-10-11.1-10-4 0-8.5.9-13.5 2.6l-2.3-6.6c6-2.2 11.7-3.3 17.2-3.3 12.5 0 18.8 5.6 18.8 16.8v24.3zm-9-1.1v-12.7h-6.2c-9.9 0-14.8 3.4-14.8 10.3 0 6.3 3.1 9.6 9.3 9.6 4.6-.1 8.5-2.4 11.7-7.2zm-5.6-45.6l-6.8.3-.5-21 9.9-.2-2.6 20.9zM92.7 289.2c.8 11 5.4 16.5 13.9 16.5 4.7 0 9-1.6 12.9-4.8l4.1 6c-5.2 4.1-10.8 6.2-17.2 6.2-14.9 0-23.2-10.4-23.2-26.9 0-7.9 2-14.5 5.9-19.4s9.2-7.5 15.9-7.5c13.3 0 20.8 9.5 20.8 25.4 0 1.5-.1 3-.2 4.6H92.7zm0-6.6h24.1c-.2-10.8-4.2-16.2-11.9-16.2-7.5 0-11.5 5.4-12.2 16.2zm15-29l-6.8.3-.5-21 9.9-.2-2.6 20.9zM143.9 311.9h-9v-51.5h9v51.5zm-1.4-60.3l-6.8.3-.5-21 9.9-.2-2.6 20.9z"/></g><g fill="#7C7C7C"><path d="M344.3 211c1.1.6 1.6 1 1.6 1.4 0 .3-.4 1.1-1.2 2.4-2.8 4.5-4.2 7.2-4.2 8.2 0 .4.2.6.6.6.2 0 3.7-.6 10.3-1.7 6.7-1 10.4-1.7 11-2.2.6-.3 1.1-.5 1.5-.5.4 0 1.3.7 2.5 1.9 1.3 1.3 2 2.2 2 2.8 0 .1-.2.5-.7 1.1-.5.9-1.2 3.1-2 6.5-1.7 6.4-3.7 11.3-6.1 14.6-2.1 3.1-4 4.6-5.9 4.6-.7 0-1.2-.5-1.7-1.5-.8-1.4-2.1-2.8-3.8-4.3-.2-.1-.3-.3-.3-.3 0-.1 0-.2.2-.2 0 0 .8.3 2.2.8 1.5.7 2.5 1 3.1 1 1.7 0 3.8-2.5 6.2-7.6 2.5-5.6 3.8-10.5 3.8-14.7 0-.9-.4-1.4-1.1-1.4-1.2 0-4.8.5-10.6 1.6-5.8 1-9.9 1.9-12.2 2.7-1.2.5-1.9.8-2.2.8-.4 0-.9-.4-1.7-1.2-.7-.8-1-1.4-1-1.7 0-.5.5-1.4 1.5-2.6 3.8-6 5.5-9.8 5.3-11.3 0-.5.2-.8.6-.8.5.2 1.2.5 2.3 1zM398.2 238.7c2.5-5.6 3.8-10.5 3.8-14.7 0-.9-.4-1.4-1.1-1.4-1.2 0-4.8.5-10.6 1.6-5.8 1-9.9 1.9-12.2 2.7-1.2.5-1.9.8-2.2.8-.4 0-.9-.4-1.7-1.2-.7-.8-1-1.4-1-1.7 0-.5.5-1.4 1.5-2.6 3.8-6 5.5-9.8 5.3-11.3 0-.5.2-.8.6-.8.5 0 1.3.3 2.4.8 1.1.6 1.6 1 1.6 1.4 0 .3-.4 1.1-1.2 2.4-2.8 4.5-4.2 7.2-4.2 8.2 0 .4.2.6.6.6.2 0 3.7-.6 10.3-1.7 6.7-1 10.4-1.7 11-2.2.6-.3 1.1-.5 1.5-.5.4 0 1.3.7 2.5 1.9 1.3 1.3 2 2.2 2 2.8 0 .1-.2.5-.7 1.1-.5.9-1.2 3.1-2 6.5-1.7 6.4-3.7 11.3-6.1 14.6-2.1 3.1-4 4.6-5.9 4.6-.7 0-1.3-.4-1.8-1.3-.2-.4-.4-.8-.7-1.3-.8-.3-1.4-.8-1.9-1.3-1.2-1.1-1.7-2.5-1.7-4.1 0-2.1 1.1-4.2 3-5.1.9-.5 1.8-.8 2.9-.8 2.2 0 3.9 1 5.1 2.9l.3.5.6-1.4zm-6.3 7.6c.9 0 1.9-.7 3-2 0-.3.1-.6.1-.8 0-1.2-.5-2.1-1.5-2.6-.6-.2-1.1-.4-1.5-.4-1.2 0-2.1.5-2.6 1.5-.3.5-.4 1-.4 1.5 0 .9.3 1.6.9 2.1l.3.2c.7.4 1.3.5 1.7.5zM426.6 213c.9 1.1 1.4 2.2 1.4 3.2 0 .4-.3.8-.8 1.1-.8.6-1.7 1.7-2.5 3.5-1.1 2.1-2.9 4.7-5.4 7.9-.9 1.3-1.3 2.3-1.3 3 0 .7.5 1.6 1.4 2.5l5.9 6.5c2.7 3.3 2.5 6.2 1.5 7.8-.2.5-.7.8-1.3.8-.5 0-.9-.1-1.3-.4-.7-.7-1.3-1.8-1.9-3.4-1.7-3.7-3.3-6.7-4.7-9.2-1.5-2.4-2.3-4-2.3-4.7 0-1 .5-2.4 1.5-4.2 1-1.6 2.1-3.7 3.4-6.3 1.8-4.1 2.9-6.9 3-8.5.1-1 .4-1.5.8-1.5.8.2 1.7.8 2.6 1.9zm14.2 0c.9 1.1 1.4 2.2 1.4 3.2 0 .4-.3.8-.8 1.1-.8.5-1.7 1.7-2.5 3.5-1 2-2.9 4.6-5.5 7.9-.9 1.3-1.4 2.3-1.4 3 0 .7.5 1.6 1.4 2.5l5.9 6.5c2.7 3.3 2.5 6.2 1.5 7.8-.3.5-.7.8-1.3.8-.5 0-.9-.1-1.1-.4-.7-.7-1.3-1.8-1.9-3.4-1.7-3.7-3.3-6.7-4.7-9.2-1.7-2.4-2.5-4-2.5-4.7 0-1 .5-2.4 1.5-4.2 1-1.7 2.2-3.7 3.5-6.3 1.9-4.1 2.9-6.9 3.1-8.5.1-1 .4-1.5.8-1.5.8.2 1.6.8 2.6 1.9zM461.9 213c.9 1.1 1.4 2.2 1.4 3.2 0 .4-.3.8-.8 1.1-.8.6-1.7 1.7-2.5 3.5-1.1 2.1-2.9 4.7-5.4 7.9-.9 1.3-1.3 2.3-1.3 3 0 .7.5 1.6 1.4 2.5l5.9 6.5c2.7 3.3 2.5 6.2 1.5 7.8-.2.5-.7.8-1.3.8-.5 0-.9-.1-1.3-.4-.7-.7-1.3-1.8-1.9-3.4-1.7-3.7-3.3-6.7-4.7-9.2-1.5-2.4-2.3-4-2.3-4.7 0-1 .5-2.4 1.5-4.2 1-1.6 2.1-3.7 3.4-6.3 1.8-4.1 2.9-6.9 3-8.5.1-1 .4-1.5.8-1.5.8.2 1.7.8 2.6 1.9zm12.9 36.3c-.5 0-.9-.1-1.1-.4-.7-.7-1.3-1.8-1.9-3.4-1.6-3.3-3.2-6.4-4.7-9.2-1.7-2.4-2.5-4-2.5-4.7 0-1 .5-2.4 1.5-4.2 1-1.7 2.2-3.7 3.5-6.3 1.9-4.1 2.9-6.9 3.1-8.5.1-1 .4-1.5.8-1.5.8 0 1.6.6 2.5 1.7s1.4 2.2 1.4 3.2c0 .4-.3.8-.8 1.1-.8.5-1.7 1.7-2.5 3.5-1 2-2.9 4.6-5.5 7.9-.9 1.3-1.4 2.3-1.4 3 0 .7.5 1.6 1.4 2.5l4.2 4.6.3-.7c1.1-1.9 3.1-3 5.1-3 1.9 0 4 1.1 5.1 2.9.5 1 .8 2 .8 3 0 1.6-.6 3-1.7 4.1-1.2 1.1-2.5 1.7-4.2 1.7-.6 0-1.1-.1-1.7-.2 0 2.1-.6 2.9-1.7 2.9zm1.6-5.8c.4.3.9.5 1.6.5 1.7 0 3-1.3 3-3 0-1.2-.5-2-1.5-2.6-.6-.2-1.1-.4-1.5-.4-1.2 0-2.1.5-2.6 1.5-.2.6-.4 1.1-.4 1.5v.3c.6.7 1.1 1.5 1.4 2.2zM344.3 265.8c1.4.7 2.1 1.3 2.1 2 0 .2-.1.6-.4 1.1-.1.5-.2 1.3-.2 2.2v13.4c0 1.4.3 2.1.9 2.1.4 0 1.3-.3 2.6-.8 3.8-1.6 7.1-3.1 9.9-4.7v-3.5c0-8.5-.3-13.8-1-15.9l-.5-1.5c0-.2.2-.3.8-.3.8 0 1.7.3 2.9 1 1.2.8 1.8 1.6 1.8 2.3 0 .2-.2.6-.5 1.2-.1.6-.2 1.5-.2 2.7v13.4c0 10.4-.1 16.6-.4 18.4-.1.6-.3 1.1-.6 1.5-.2.4-.5.7-.8.7-.5 0-1.1-.5-1.7-1.5s-.9-1.7-.9-2.4c0-.3.1-1.2.4-2.5.4-2.5.7-6.2.8-11.2-3.9 2.5-7.2 4.3-9.8 5.5-1.1.5-2 .9-2.5 1.4-.3.2-.7.4-1 .4-.6 0-1.4-.4-2.5-1.2-1-.8-1.5-1.6-1.5-2.2 0-.3 0-.8.2-1.3.3-.9.4-2.1.4-3.4 0-5.6-.3-9.7-.8-12.3-.2-1.7-.8-3.3-1.9-5.1 0-.5.2-.8.8-.8.7 0 1.9.4 3.6 1.3zM388.1 284.7c-1.2.5-2.1 1-2.5 1.3-.3.3-.7.4-1 .4-.6 0-1.4-.4-2.4-1.2-1-.8-1.6-1.6-1.6-2.1 0-.3 0-.8.2-1.3.2-1 .4-2.2.4-3.5 0-3.3-.2-6.3-.8-8.7-.2-1.7-.8-3.4-1.9-5.1 0-.5.2-.7.8-.7.9 0 2.1.4 3.6 1.2 1.5.8 2.3 1.4 2.3 2 0 .2-.1.7-.4 1.2-.1.5-.2 1.3-.2 2.2v9.8c0 1.4.3 2.1.9 2.1.5 0 1.4-.2 2.6-.8 3.6-1.5 6.9-3 9.8-4.6v-.5c0-7.7-.3-12.6-1-14.7l-.5-1.5c0-.2.2-.3.8-.3.8 0 1.7.3 2.9 1 1.2.8 1.8 1.6 1.8 2.3 0 .2-.2.6-.5 1.2-.1.6-.2 1.5-.2 2.7v13.4c0 10.4-.1 16.6-.4 18.4-.1.6-.3 1.1-.6 1.5-.2.4-.6.7-.9.7 0 0-.1 0-.1-.1v.1-.1s-.1 0-.3-.1c-.5-.1-1-.3-1.6-.4-1.3 0-2.3-.1-3.2-.1-1.7 0-3-.6-4.2-1.7-1.1-1.1-1.7-2.5-1.7-4 0-2.1 1.1-4.2 3-5.1.9-.5 1.9-.8 2.9-.8.9 0 1.9.2 2.9.7.3.2.5.3.6.4.2-2.4.3-4.5.3-6.4v-4.3c-4.1 2.5-7.3 4.3-9.8 5.5zm3.1 8.4c-.3.5-.4 1-.4 1.6 0 1.6 1.4 2.9 3.1 2.9 1.7 0 3-1.4 3-2.9 0-1.2-.5-2.1-1.5-2.7-.6-.2-1.1-.4-1.5-.4-1.2-.1-2.1.5-2.7 1.5zM443 263c1.5 1.1 2.2 1.9 2.2 2.5 0 0-.2.4-.7 1-.7.9-1.4 3.2-2 6.9-.9 4.7-2.2 8.2-3.9 10.3-.9 1.1-1.9 1.7-2.9 1.7-.6 0-1.5-.6-2.9-1.7-1.4-1.2-2-1.9-2-2.3 0-.1 0-.2.2-.2s.7.1 1.4.3c.7.2 1.3.3 2 .3 1 0 1.9-.4 2.5-1.1.4-.4.9-2.2 1.6-5.3.9-3.9 1.4-6.8 1.4-8.8 0-1.1-.5-1.7-1.5-1.7-.8 0-4.6.6-11.1 1.7l-1.5.3v13.2c0 6.2 0 9.9.2 11.1.1 1.5.1 2.6.1 3.4 0 1.3-.2 2.5-.6 3.5-.4 1-.8 1.5-1.1 1.5-.5 0-1.1-.6-1.8-1.7s-1-2-1-2.7c0-.4 0-.8.2-1.3.1-.6.3-1.5.5-2.7.3-3.2.5-7 .5-11.5 0-3.9-.1-7.9-.3-12l-1.9.3c-1.7.5-2.9.7-3.3.7-.8 0-1.8-.4-3.1-1.1-1.2-.8-1.8-1.4-1.8-1.8 0-.3.2-.4.8-.4 1.3.3 2.4.4 3.4.4 1.7 0 5.1-.5 10.5-1.5 5.3-1 9-1.8 10.9-2.4.8-.5 1.4-.8 1.8-.8.7.2 1.8.8 3.2 1.9zM461.4 279.8c0-3.9-.1-7.9-.3-12l-1.9.3c-1.7.5-2.9.7-3.3.7-.8 0-1.8-.4-3.1-1.1-1.2-.8-1.8-1.4-1.8-1.8 0-.3.2-.4.8-.4 1.3.3 2.4.4 3.4.4 1.7 0 5.1-.5 10.5-1.5 5.3-1 9-1.8 10.9-2.4.8-.5 1.4-.8 1.8-.8.8 0 1.9.6 3.3 1.7 1.5 1.1 2.2 1.9 2.2 2.5 0 0-.2.4-.7 1-.7.9-1.4 3.2-2 6.9-.9 4.7-2.2 8.2-3.9 10.3-.9 1.1-1.9 1.7-2.9 1.7-.6 0-1.5-.6-2.9-1.7-1.4-1.2-2-1.9-2-2.3 0-.1 0-.2.2-.2s.7.1 1.4.3c.7.2 1.3.3 2 .3 1 0 1.9-.4 2.5-1.1.4-.4.9-2.2 1.6-5.3.9-3.9 1.4-6.8 1.4-8.8 0-1.1-.5-1.7-1.5-1.7-.8 0-4.6.6-11.1 1.7l-1.5.3V280c0 6.2 0 9.9.2 11.1.1 1.5.1 2.6.1 3.4 0 1.3-.2 2.5-.6 3.5-.3.9-.7 1.4-1 1.5v.1c-.7 0-1.4-.2-2.3-.5h-3.3c-1.6 0-3-.6-4.2-1.7-1.2-1.1-1.7-2.5-1.7-4.1 0-2.1 1.1-4.2 3-5.1.9-.5 1.8-.8 2.9-.8 1 0 2 .3 2.9.8.2.1.5.2.6.3.2-2.8.3-5.8.3-8.7zm-.9 14.2c0-.1.1-.6.2-.8-.2-1.2-.7-2-1.5-2.5-.5-.2-1-.4-1.6-.4-1.2 0-2 .5-2.5 1.5-.3.5-.4 1-.4 1.5 0 1.7 1.4 3 3 3 .9 0 1.6-.3 2.2-.8.2-.2.4-.4.6-.8v-.7z"/></g></g><g><g opacity=".47" fill="none" stroke="#9B9B9B" stroke-miterlimit="10"><path d="M490 330H10M490 171H10M170.5 490.5v-480M329.5 490.5v-480"/></g><path fill="none" stroke="#777" stroke-width="3" stroke-miterlimit="10" d="M10 10h480v480H10z"/></g></svg>