<svg xmlns="http://www.w3.org/2000/svg" viewBox="0 0 500 500" enable-background="new 0 0 500 500"><path fill="none" stroke="#D3D3CD" stroke-miterlimit="10" d="M0 402.4c167-.4 333-.4 500.3 0"/><path d="M133.9 502h3.7l-2.3-1.6zm-90.5-47.1v44h1.3c3.8 0 6.3-2 6.3-2.7v-3.5h84.9c3.9 0 5.5-.8 6.6-3l-11.3-7.7-5.9 7.3H90.7v-12h35.4c3.8 0 5.5-.9 6.6-3.1l-10.8-6.9-5.3 6.5H90.7v-11.6h35.4c3.6 0 5.3-.9 6.4-3l-10.6-7-5.3 6.6H90.7v-11.6h43c3.9 0 5.5-.9 6.7-3l-11.5-7.7-6 7.3H84.6c3.4-3.9 6.9-8.5 9.1-12.1 3.1.1 4.6-.4 5-1.8l-13.2-3.8c-1.1 5.3-2.9 12.4-4.8 17.7H52.9c2.7-3.6 5.3-7.6 7.7-11.5.8.1 1.5.3 2.2.3 1.7 0 2.7-.7 3.2-1.8l-11.5-5.4C45.4 444 32.1 461 20.3 470.3l2 1.8c7.2-4.2 14.4-10.2 21.1-17.2zm7.6-7.7h32v11.6H51v-11.6zm0 15h32v11.6H51v-11.6zm0 15.1h32v12H51v-12zm150.2 6.5c-1.8 6.3-4.2 12.4-7.2 18.2h8.1c3-5.4 5.4-11 7.3-16.7 3.2-.1 4.5-.5 5.6-1.6l-9-7.8-5.2 4.6h-38.5l1.1 3.4h37.8zm22.9-24.7V502h7.7v-31.6c3.1 12.4 7.3 22.8 12.3 31.6h6.3c-.8-1-1.6-2.1-2.4-3.1 14.1-8.1 28.7-19.4 37-27.6 1.1.3 2 .5 2.7.5 1.3 0 2-.5 2.7-1.5l-10.9-6.5c-7 9.7-20.7 23.1-33.1 32.6-11.5-17-14.6-34.5-14.6-34.9 3.1-.5 5.7-1.8 6.7-3l-11.8-8.2-4.2 5.3H181l1.1 3.5h42zm22-10.7c2.1 0 3.4-1.2 3.4-3.1 0-5.5-11.8-17.3-50.7-20l-.4 2.3c22.4 4.3 39.1 13.5 45.9 20.5.6.2 1.2.3 1.8.3zm128.5 31.2l-1.3 1.3c6.3 5.2 13.5 13.4 17.5 21.1h9.9c-1.6-6.2-8.7-15-26.1-22.4zm-16.1 7.7c7.6-8.4 14.3-20.1 19.9-33.3h40.1c-.4 18.6-1 34.8-1.7 48h8.1c.8-13.1 1.3-28.7 1.7-46.5 3.1-.3 4.8-.9 5.9-2l-10.6-8.4-4.6 5.4h-37.1c2.4-6.2 4.6-12.7 6.6-19.1 3.4 0 4.3-.8 4.9-2.4l-12.9-3.2c-4.8 22.9-13.3 46.8-22.1 60.4l1.8 1.1zM315.4 502v-14h31v14h7.3v-46c2.8-.5 5.3-1.6 6.3-2.7l-11.1-7.8-3.9 5h-18c3.1-5.4 7.1-12.8 9.8-18.3 3.2 0 4.8-.7 5.2-2.6l-13.2-2.7c-1.8 7.1-4.3 17.1-6.2 23.6H316l-8.1-3.9V502h7.5zm0-48.2h31v30.7h-31v-30.7zM502 477.2h-59.5l.9 3.3H502zm-31.4-9.5V465H502v-3.4h-31.4v-11.2H502V447h-31.4v-10.8H502v-3.4h-30.6l-8.5-3.8v41.1c6.5.2 7.7-2.2 7.7-2.4zm1.6 34.3v-8.1H502v-3.4h-28.9l-8.6-3.8V502z" fill="#686868"/><path fill="none" stroke="#D3D3CD" stroke-width="5" stroke-miterlimit="10" d="M0 409.7c167 .3 333 .3 500.3 0"/><path fill="none" stroke="#BCBCBC" stroke-width="2" stroke-miterlimit="10" stroke-dasharray="12" d="M0 209h500.3M0 30h17.7M153.2 30h347.2"/><path fill="none" stroke="#D8D5C5" stroke-width="5" stroke-miterlimit="10" d="M0 258.7c167 .3 333 .3 500.3 0"/><path fill="none" stroke="#D3D3CD" stroke-miterlimit="10" d="M0 266.5c167 .5 333 .5 500.3 0"/><path fill="none" stroke="#D3D3CD" stroke-width="5" stroke-miterlimit="10" d="M0 74.1c167-.1 333-.1 500.3 0"/><path fill="none" stroke="#CCE5D4" stroke-width="2" stroke-miterlimit="10" d="M0 196h297"/><path fill="none" stroke="#6ECC77" stroke-width="3" stroke-miterlimit="10" stroke-dasharray="10,8" d="M17.4 29.9h136.2v226H17.4z"/><path fill="none" stroke="#EDE83A" stroke-width="3.5" stroke-miterlimit="10" d="M17.3 77.9h136.2v131H17.3z"/><path d="M51.1-2c-6.5 8.9-15.2 16.6-26.7 23l1.3 2.4C40.4 16.8 51 8.1 58.5-2h-7.4zm85.6 0v4.8H99.6V-2H92v21.7c7 0 7.6-2.8 7.6-3V6.2h37.1v10.1c5.2 0 7.6-2.7 7.6-3V-2h-7.6zM67.5-2c4.3 3.8 7.9 7.6 10.1 11.4 1 .4 2 .7 2.8.7 2 0 3.2-1.3 3.2-3.6 0-2.2-1.2-5.1-3.9-8.5H67.5zm199.1 0v13.9h-67.8V-2h-7.3v25.3h1.1c3.8 0 6.2-1.9 6.2-2.6v-5.5h67.8v7c5.2 0 7.7-2.4 7.7-2.7V-2h-7.7zm-102 0c-1.5 1-3 2-4.6 2.9l1.3 2c3.1-1.5 6-3.2 8.9-5h-5.6zm172.8 0l-6.9 1.1V-2h-7.3V.1c-9.2 1.3-16.9 2.3-21.6 2.7l5.2 9.8c1.3-.4 2.5-1.3 3.1-3.1 14-3.8 24.8-7 32.9-9.4 1 3.6 1.7 7.1 1.8 10.2 1.1 1.2 2.4 1.8 3.5 1.8 2.4 0 4.5-2.6 4.5-6.7 0-2.1-.5-4.6-1.8-7.4h-13.4zm15.4 0l.5 1.7h34.6V25h1.1c3.8 0 6.3-1.9 6.3-2.4V-.3h30.3c2.9 0 4.5-.6 5.6-1.7h-78.4zM502-2h-59.4l.8 2.7H502zm-58 23.7l1.1 2.2c18.3-2.8 36.1-9.4 47.1-15.5 3.4 0 5.7 0 6.6-1.8l-13-4.2C477.4 9 459.9 17.7 444 21.7zM178.7 166.8c11.4 0 20.5 8.8 20.5 19.8 0 10.8-9.2 19.6-20.5 19.6-11.4 0-20.5-8.8-20.5-19.6 0-11.2 9.4-19.8 20.5-19.8zm16.1 19.8c0-8.5-7.2-15.5-16.1-15.5s-16.1 6.9-16.1 15.5c0 8.4 7.2 15.5 16.1 15.5 9.1 0 16.1-7.4 16.1-15.5z" fill="#686868"/><path fill="#fff" d="M128.1 121.5c2.1-3.6 4.9-10.6 6.7-15.8H40.6c-.7 11.4-8.8 17.1-14.6 17.1-3.3 0-4.5-1.9-4.5-3.5 0-1.7 1.5-3.6 3.5-4.7 6.3-2.7 12.1-10.2 11.8-19.3l2.6-.1c.7 2.5 1 5 1.1 7.1h41V82.7L96 83.9c-.1 2.1-1.8 3.1-6.7 3.7v14.7h45.1l5.6-5.4 9.9 9.2c-1 .9-2.6 1.2-5.3 1.3-3.5 4.7-9.7 11.4-14.6 15l-1.9-.9zm3.2 36.8l6.4-7.8 12 8.2c-1 1.9-2.6 2.9-6.7 2.9H89.3v33.2c0 6.4-1.7 10.8-14.5 12.1 0-5.8-6.1-6.4-17.1-7.1v-2.1H78c2.8 0 3.6-.8 3.6-2.9v-33.1H22.5l-1-3.3h60.1v-16.1l8.2.7c7-5 14-12.1 18.6-17.5H48.3l-1.1-3.3h62.3l5.7-5.6 10.2 9.4c-1 .8-2.8 1.1-5.6 1.3-6.8 5.2-16.3 11.6-25.7 16.1l1 .1c-.1 1.9-1 2.7-5.7 3.2v11.8h41.9z"/><path fill="#3D3D3D" d="M128.1 121.5c2.1-3.6 4.9-10.6 6.7-15.8H40.6c-.7 11.4-8.8 17.1-14.6 17.1-3.3 0-4.5-1.9-4.5-3.5 0-1.7 1.5-3.6 3.5-4.7 6.3-2.7 12.1-10.2 11.8-19.3l2.6-.1c.7 2.5 1 5 1.1 7.1h41V82.7L96 83.9c-.1 2.1-1.8 3.1-6.7 3.7v14.7h45.1l5.6-5.4 9.9 9.2c-1 .9-2.6 1.2-5.3 1.3-3.5 4.7-9.7 11.4-14.6 15l-1.9-.9zm3.2 36.8l6.4-7.8 12 8.2c-1 1.9-2.6 2.9-6.7 2.9H89.3v33.2c0 6.4-1.7 10.8-14.5 12.1 0-5.8-6.1-6.4-17.1-7.1v-2.1H78c2.8 0 3.6-.8 3.6-2.9v-33.1H22.5l-1-3.3h60.1v-16.1l8.2.7c7-5 14-12.1 18.6-17.5H48.3l-1.1-3.3h62.3l5.7-5.6 10.2 9.4c-1 .8-2.8 1.1-5.6 1.3-6.8 5.2-16.3 11.6-25.7 16.1l1 .1c-.1 1.9-1 2.7-5.7 3.2v11.8h41.9z"/><path fill="none" stroke="#fff" stroke-miterlimit="10" d="M128.1 121.5c2.1-3.6 4.9-10.6 6.7-15.8H40.6c-.7 11.4-8.8 17.1-14.6 17.1-3.3 0-4.5-1.9-4.5-3.5 0-1.7 1.5-3.6 3.5-4.7 6.3-2.7 12.1-10.2 11.8-19.3l2.6-.1c.7 2.5 1 5 1.1 7.1h41V82.7L96 83.9c-.1 2.1-1.8 3.1-6.7 3.7v14.7h45.1l5.6-5.4 9.9 9.2c-1 .9-2.6 1.2-5.3 1.3-3.5 4.7-9.7 11.4-14.6 15l-1.9-.9zm3.2 36.8l6.4-7.8 12 8.2c-1 1.9-2.6 2.9-6.7 2.9H89.3v33.2c0 6.4-1.7 10.8-14.5 12.1 0-5.8-6.1-6.4-17.1-7.1v-2.1H78c2.8 0 3.6-.8 3.6-2.9v-33.1H22.5l-1-3.3h60.1v-16.1l8.2.7c7-5 14-12.1 18.6-17.5H48.3l-1.1-3.3h62.3l5.7-5.6 10.2 9.4c-1 .8-2.8 1.1-5.6 1.3-6.8 5.2-16.3 11.6-25.7 16.1l1 .1c-.1 1.9-1 2.7-5.7 3.2v11.8h41.9z"/><g fill="none" stroke-width="3" stroke-miterlimit="10"><path stroke="#239CD8" d="M265 401.5h24m-24-133h24"/><path stroke="#27A4D6" stroke-dasharray="42,50" d="M277.5 269v132"/><path stroke="#E24777" d="M242 209.5h26m-26-132h26"/><path stroke="#E05889" stroke-dasharray="42,50" d="M255.5 78v133"/><path stroke="#E24777" d="M378.4 420.2m-25.5 0"/><path stroke="#6D1E9B" d="M281 254.5h25m-25-178h25"/><path stroke="#6F319B" stroke-dasharray="60,60" d="M293.5 75v180"/></g><g fill="#49473E"><path d="M251.6 132.3l9.2 1.6-1.9-2.6 1.5-.9 2.7 4v1.9l-11.5-2v-2zm3.3 7.3h-.2c-.3 0-.5.1-.7.2-.2.1-.4.2-.6.4-.2.2-.3.4-.4.7s-.1.5-.1.8c0 .5.1.9.3 1.3s.4.7.7 1l-1 1.1c-1-1-1.6-2.1-1.6-3.5 0-.5.1-1 .2-1.5.2-.4.4-.8.7-1.2s.7-.6 1.1-.8c.4-.2.9-.3 1.5-.3.7 0 1.3.1 1.9.3s1.1.5 1.5 1c.4.4.8.9 1 1.4.2.6.4 1.2.4 1.8 0 .5-.1.9-.2 1.3s-.3.7-.6 1-.6.5-1 .7-.8.2-1.4.2h-.7c-.3 0-.6-.1-.9-.1v-5.8zm1.4 4.3h.4c.4 0 .8-.1 1.1-.4.3-.3.4-.7.4-1.3 0-.3-.1-.6-.2-.9-.1-.3-.3-.5-.5-.7-.2-.2-.4-.4-.6-.5-.2-.1-.4-.2-.7-.3v4.1zm2.2 3c.3 0 .6.1.9.1v1.8c-.1 0-.3 0-.6-.1-.3 0-.5-.1-.7-.1.4.2.7.6 1 .9s.4.9.4 1.5c0 .7-.1 1.2-.4 1.6-.3.4-.7.7-1.1.8.5.3.9.7 1.1 1.2.3.5.4 1 .4 1.6 0 .5-.1.8-.2 1.2-.1.3-.3.6-.5.8-.2.2-.5.4-.8.5s-.6.2-.9.2c-.3 0-.5 0-.7-.1l-4.9-.9V156l4.3.7c.1 0 .3 0 .4.1h.4c.2 0 .3 0 .5-.1.2 0 .3-.1.4-.2.1-.1.2-.2.3-.4.1-.2.1-.4.1-.6 0-.3-.1-.6-.2-.8s-.3-.4-.5-.6c-.2-.2-.4-.3-.7-.4-.3-.1-.5-.2-.8-.2l-4.3-.7v-1.9l4.7.8h.4c.4 0 .7-.1.9-.3s.3-.5.3-.9c0-.3-.1-.6-.2-.8-.1-.2-.3-.4-.5-.6-.2-.2-.4-.3-.7-.4-.3-.1-.5-.2-.8-.2l-4.3-.8v-1.9l6.1 1.1c.6-.1.9-.1 1.2 0zM289 146.2l9.2 1.6-1.9-2.6 1.5-.9 2.7 4v1.9l-11.5-2v-2zm1.2 7.6c-.3 0-.6-.1-.9-.4s-.4-.5-.4-.9c0-.3.1-.6.3-.8.2-.2.5-.4.9-.4s.7.1.9.4c.2.2.3.5.3.9s-.1.6-.3.8c-.2.3-.5.4-.8.4zm6.1 6.8c.4.4.9.6 1.5.6.4 0 .7-.1 1-.4.3-.3.4-.7.4-1.1 0-.5-.1-.9-.3-1.2-.2-.3-.5-.6-1-.8l.9-1.4c.7.4 1.2.9 1.5 1.5.3.6.5 1.3.5 2.1 0 .5-.1.9-.2 1.3s-.3.7-.6 1-.6.5-.9.7c-.4.2-.8.3-1.2.3-.4 0-.8-.1-1.1-.2-.3-.1-.6-.3-.8-.5-.2-.2-.4-.5-.6-.7-.1-.3-.3-.6-.3-.9-.1.6-.4 1-.9 1.4-.5.3-1 .5-1.6.5-.6 0-1.2-.1-1.6-.3-.5-.2-.9-.5-1.2-.9-.3-.4-.6-.8-.7-1.4-.2-.5-.3-1.1-.3-1.7 0-1 .2-1.8.7-2.4.4-.6 1.1-1.1 1.9-1.3l.6 1.8c-.5.1-.8.4-1.1.7s-.4.8-.4 1.3c0 .7.2 1.3.5 1.6s.8.6 1.4.6c.3 0 .6-.1.9-.2.2-.1.4-.3.6-.6.1-.2.3-.5.3-.8.1-.3.1-.6.1-.9v-.5l1.5.3v.6c0 .8.2 1.5.5 1.9zm-4 6.5h-.2c-.3 0-.5.1-.7.2-.2.1-.4.2-.6.4-.2.2-.3.4-.4.7s-.1.5-.1.8c0 .5.1.9.3 1.3s.4.7.7 1l-1 1.1c-1-1-1.6-2.1-1.6-3.5 0-.5.1-1 .2-1.5.2-.4.4-.8.7-1.2s.7-.6 1.1-.8c.4-.2.9-.3 1.5-.3.7 0 1.3.1 1.9.3s1.1.5 1.5 1c.4.4.8.9 1 1.4.2.6.4 1.2.4 1.8 0 .5-.1.9-.2 1.3s-.3.7-.6 1-.6.5-1 .7-.8.2-1.4.2h-.7c-.3 0-.6-.1-.9-.1v-5.8zm1.4 4.2h.4c.4 0 .8-.1 1.1-.4.3-.3.4-.7.4-1.3 0-.3-.1-.6-.2-.9-.1-.3-.3-.5-.5-.7-.2-.2-.4-.4-.6-.5-.2-.1-.4-.2-.7-.3v4.1zm2.2 3c.3 0 .6.1.9.1v1.8c-.1 0-.3 0-.6-.1-.3 0-.5-.1-.7-.1.4.2.7.6 1 .9s.4.9.4 1.5c0 .7-.1 1.2-.4 1.6-.3.4-.7.7-1.1.8.5.3.9.7 1.1 1.2.3.5.4 1 .4 1.6 0 .5-.1.8-.2 1.2-.1.3-.3.6-.5.8-.2.2-.5.4-.8.5s-.6.2-.9.2c-.3 0-.5 0-.7-.1l-4.9-.9v-1.9l4.3.7c.1 0 .3 0 .4.1h.4c.2 0 .3 0 .5-.1.2 0 .3-.1.4-.2.1-.1.2-.2.3-.4.1-.2.1-.4.1-.6 0-.3-.1-.6-.2-.8s-.3-.4-.5-.6c-.2-.2-.4-.3-.7-.4-.3-.1-.5-.2-.8-.2l-4.3-.7v-1.9l4.7.8h.4c.4 0 .7-.1.9-.3s.3-.5.3-.9c0-.3-.1-.6-.2-.8-.1-.2-.3-.4-.5-.6-.2-.2-.4-.3-.7-.4-.3-.1-.5-.2-.8-.2l-3.9-.9v-1.9l6.1 1.1c.2 0 .5.1.8.1zM273.2 324.7l9.2 1.6-1.9-2.6 1.5-.9 2.7 4v1.9l-11.5-2v-2zm3.3 7.3h-.2c-.3 0-.5.1-.7.2-.2.1-.4.2-.6.4-.2.2-.3.4-.4.7-.1.2-.1.5-.1.8 0 .5.1.9.3 1.3.2.4.4.7.7 1l-1 1.1c-1-1-1.6-2.1-1.6-3.5 0-.5.1-1 .2-1.5.2-.4.4-.8.7-1.2.3-.3.7-.6 1.1-.8s.9-.3 1.5-.3c.7 0 1.3.1 1.9.3s1.1.5 1.5 1c.4.4.8.9 1 1.4s.4 1.2.4 1.8c0 .5-.1.9-.2 1.3s-.3.7-.6 1-.6.5-1 .7-.8.2-1.4.2h-.7c-.3 0-.6-.1-.9-.1V332zm1.4 4.2h.4c.4 0 .8-.1 1.1-.4.3-.3.4-.7.4-1.3 0-.3-.1-.6-.2-.9-.1-.3-.3-.5-.5-.7-.2-.2-.4-.4-.6-.5-.2-.1-.4-.2-.7-.3v4.1zm2.2 3c.3 0 .6.1.9.1v1.8c-.1 0-.3 0-.6-.1-.3 0-.5-.1-.7-.1.4.2.7.6 1 .9.3.4.4.9.4 1.5 0 .7-.1 1.2-.4 1.6-.3.4-.7.7-1.1.8.5.3.9.7 1.1 1.2.3.5.4 1 .4 1.6 0 .5-.1.8-.2 1.2-.1.3-.3.6-.5.8-.2.2-.5.4-.8.5-.3.1-.6.2-.9.2-.3 0-.5 0-.7-.1l-4.9-.9v-1.9l4.3.7c.1 0 .3 0 .4.1h.4c.2 0 .3 0 .5-.1.2 0 .3-.1.4-.2.1-.1.2-.2.3-.4.1-.2.1-.4.1-.6 0-.3-.1-.6-.2-.8-.1-.2-.3-.4-.5-.6-.2-.2-.4-.3-.7-.4s-.5-.2-.8-.2l-4.3-.7v-1.9l4.7.8h.4c.4 0 .7-.1.9-.3s.3-.5.3-.9c0-.3-.1-.6-.2-.8-.1-.2-.3-.4-.5-.6-.2-.2-.4-.3-.7-.4-.3-.1-.5-.2-.8-.2l-4.3-.8v-2l6.1 1.1c.6 0 .9.1 1.2.1z"/></g></svg>